<?xml version="1.0" encoding="UTF-8" standalone="no"?>
<svg
   xmlns:dc="http://purl.org/dc/elements/1.1/"
   xmlns:cc="http://creativecommons.org/ns#"
   xmlns:rdf="http://www.w3.org/1999/02/22-rdf-syntax-ns#"
   xmlns:svg="http://www.w3.org/2000/svg"
   xmlns="http://www.w3.org/2000/svg"
   viewBox="0 0 253.61333 288"
   height="288"
   width="253.61333"
   xml:space="preserve"
   id="svg2"
   version="1.1"><metadata
     id="metadata8"><rdf:RDF><cc:Work
         rdf:about=""><dc:format>image/svg+xml</dc:format><dc:type
           rdf:resource="http://purl.org/dc/dcmitype/StillImage" /></cc:Work></rdf:RDF></metadata><defs
     id="defs6" /><g
     transform="matrix(1.3333333,0,0,-1.3333333,0,288)"
     id="g10"><g
       transform="scale(0.1)"
       id="g12"><path
         id="path14"
         style="fill:#ffffff;fill-opacity:1;fill-rule:nonzero;stroke:none"
         d="m 1894.17,1079.61 c 0.34,0.71 0.29,1.12 0.75,1.91 2.11,4.57 3.57,9.94 3.57,15.57 0,4.34 -0.86,8.79 -2.96,13.12 -1.15,2.21 -3.07,3.87 -4.73,5.62 1.82,5.19 4.41,12.96 4.41,12.96 0.72,2.51 1.02,5.02 1.02,7.44 0,9.08 -4.37,17.63 -12.05,22.94 -10.15,6.99 -23.91,6.8 -34.16,-0.49 -7.93,-5.13 -13.46,-14.31 -18.68,-23.62 -3.37,3.58 -6.83,5.95 -13.97,4.12 -8.98,-2.2 -7.83,-3.86 -15.16,-14.45 -25.92,-37.77 -60.33,-97.29 -100.04,-99.31 -8.44,1.02 -11.16,3.54 -21.51,19.71 -85.68,136.55 -191,217.41 -330.47,316.71 -8.14,6.93 -25.81,34.49 -42.94,61.12 -29.59,46 -63.14,98.24 -97.08,122.09 -25.92,18.68 -53.55,28.68 -80.32,38.33 -32.33,11.64 -62.93,22.66 -90.46,48.87 -10.94,10.74 -20.88,25.21 -32.28,41.93 -23.309,34 -53.047,75.55 -109.649,112.21 1.387,8.24 3.164,19.38 3.164,33.04 0,16.73 -4.617,42.95 -12.18,56.86 -5.703,10.64 -14.715,16.78 -23.125,18.84 -15.496,3.76 -40.32,-1.92 -57.05,-9.4 33.07,97.49 110.363,161.88 150.695,195.23 22.324,18.47 35.09,29.02 35.09,43.34 0,2.26 -0.254,4.66 -0.957,7.18 -5.832,26.37 -35.071,27.72 -47.571,28.32 l -2.414,0.16 c -17.019,0.4 -71.492,-1.51 -110.918,-31.55 -11.621,-3.06 -21.922,-7.94 -31.238,-13.76 -0.449,1.6 -0.352,3.43 -1.133,5.02 -4.765,10.29 -17.273,20.35 -38.039,17.74 -39.051,-6.03 -61.055,-16.12 -75.926,-24.27 -0.976,-0.55 -3.918,-2.4 -3.918,-2.4 -13.601,-8.13 -35.671,-22.3 -52.078,-55.1 -15.593,-11.55 -33.066,-29.27 -39.695,-55.89 -16.828,-11.51 -30.664,-31.05 -31.699,-56.21 -10.344,-12.31 -16.692,-25.26 -19.629,-38.88 -16.684,14.56 -36.418,24.52 -59.875,28.44 l -1.707,0.24 -1.684,0.05 c -7.351,0.11 -22.613,0.4 -34.246,-11.25 l -2.937,-3.01 -1.758,-3.77 c -1.789,-3.97 -2.461,-7.73 -2.461,-11.25 0,-9.34 5.047,-16.57 7,-19.58 l 1.328,-1.91 c 0.305,-0.76 4.07,-19.08 4.07,-19.08 l 2.414,-20.09 c 6.172,-33.22 20.364,-50.49 38.516,-65.91 -3.914,-11.65 -6.121,-22.45 -6.121,-31.9 0,-16.01 4.266,-29.12 8.035,-40.68 0,0 0.977,-3.07 1.633,-5.21 0.203,-1.86 0.379,-3.83 0.379,-6.19 0,-22.79 -8.821,-67.1 -15.645,-93.35 0,-0.12 -2.683,-8.71 -2.683,-8.71 -5.129,-16.02 -14.348,-44.73 -14.348,-76.48 0,-11.46 1.184,-23.25 4.219,-35 5.976,-20 21.394,-43.9 42.844,-54.25 0.828,-0.31 12.031,-4.82 12.031,-4.82 10.801,-4.07 14.09,-5.32 18.679,-12.7 3.946,-6.18 5.606,-25.98 5.606,-46.66 0,-15.32 -0.879,-31.1 -2.422,-42.2 l -0.227,-1.46 c 0,0 -0.046,-1.66 -0.046,-1.7 0,-11.09 7.109,-21.35 17.609,-25.51 9.09,-3.67 22.77,-3.11 34.051,9.05 7.285,7.46 13.601,15.76 19.16,24.59 1.457,-2.21 1.809,-5.16 3.867,-6.92 l 0.977,-0.92 1.035,-0.7 c 3.867,-2.71 8.476,-3.71 13.105,-4.07 -13.886,-9.44 -30.808,-20.04 -53.547,-33.64 C 444.91,1257.52 358.203,1209.8 341.902,1151.48 134.07,1050.29 0,838.039 0,606.5 0,272.109 272.02,0 606.309,0 c 334.55,0 606.771,272.109 606.771,606.5 0,79.211 -16.18,156 -45.05,227.379 2.16,0.941 4.97,2.359 7.79,3.711 1.99,-2.199 4.01,-4.371 4.01,-4.371 7.63,-9.199 22.75,-20.199 34.96,-20.489 12.15,-0.351 19.82,1.25 19.82,1.25 0,0 0.76,0.2 1.42,0.348 1,-1.758 6.72,-11.75 6.72,-11.75 12.02,-18.379 31.41,-17.879 41.84,-17.617 6.44,0.187 11.05,0.289 16.73,-2.211 5.93,-2.672 8.13,-10.898 10.99,-29.539 l 2.32,-13.563 c 3.42,-14.707 12,-21.648 16.62,-25.418 0,0 0.16,-0.089 0.16,-0.14 1,-4.578 3.86,-19.531 3.86,-19.531 2.16,-16.137 4.62,-34.368 21.6,-41.637 -0.41,0.238 0.44,0.238 1.61,0.137 2.7,-13.457 3.36,-29.829 19.08,-39.321 3.56,-2.156 8.18,-2.558 12.81,-2.957 0.15,-0.761 0.4,-1.57 0.4,-1.57 4.12,-20.723 20.59,-25.902 26.73,-27.922 0,0 0.19,-0.039 0.28,-0.098 0.97,-1.562 10.35,-16.863 10.35,-16.863 6.54,-11.867 12.76,-23.109 20.95,-29.84 l 3.77,-3.109 4.67,-1.379 c 2.41,-0.629 4.87,-0.891 7.18,-0.941 19.94,-25.508 74.73,-107.231 74.73,-183.18 0,-3.598 -0.15,-7.168 -0.4,-10.731 -3.51,-51.679 -24.71,-78.058 -38.67,-95.488 -15.98,-19.988 -16.68,-43.39 -16.68,-52.582 v -1.25 c 1.92,-22.297 13.66,-29.637 22.1,-35.058 9.09,-4.821 34.61,-15.52 70.42,-0.598 29.53,12.348 35.8,34.5 39.92,49.117 1.92,6.68 3.18,10.84 5.28,12.949 13.66,13.262 29.64,32.453 31.64,63.633 0.2,2.617 0.3,5.219 0.3,7.891 0,26.316 -8.43,59.519 -16.52,89.047 -3.41,12.562 -7.93,42.031 -8.79,69.019 11.5,-16.027 21.19,-32.047 26.92,-41.898 l 2.91,-4.879 c 7.64,-12.961 29.53,-50.063 29.53,-86.231 0,-3.961 -0.3,-7.941 -0.9,-11.851 -3.97,-24.36 -11.66,-38.379 -20.49,-54.59 -9.24,-16.82 -19.69,-35.957 -25.41,-66.699 -0.77,-4.219 -1.11,-8.399 -1.11,-12.352 0,-16.867 6.34,-31.539 18.18,-41.539 16.58,-14.059 41.44,-16.777 68.2,-7.48 33.1,11.941 55.86,49.511 63.04,100.55 4.16,2.961 8.64,6.172 8.64,6.172 8.59,9.649 10.9,20.598 10.9,29.828 0,7.731 -1.66,14.219 -2.51,17.59 -17.68,71.153 -20.79,105.879 -20.79,133.832 0,7.598 0.19,14.61 0.45,21.758 l -1.17,60.781 c -2.11,18.629 -10.85,32.789 -18.67,40.621 -3.52,4.129 -13.11,15.02 -13.11,15.02 -9.59,9.848 -21.5,21.949 -24.06,32.75 -3.37,13.961 -4.72,31.379 -4.72,50.828 0,34 3.97,74.281 7.85,113.652 4.15,42.329 8.22,83.321 8.22,119.59 0,15.617 -1.1,30.078 -2.91,43.688 98.63,-3.059 143.34,98.5 158.61,133.151 l 2.56,5.83 c 2.81,7.43 3.96,13.76 3.96,19.19 0,9.82 -3.87,16.22 -7.98,20.47" /><path
         id="path16"
         style="fill:#ffffff;fill-opacity:1;fill-rule:nonzero;stroke:none"
         d="m 697.297,1427.48 c 1.324,10.55 2.558,17.68 3.789,25.66 2.273,-1.1 5.352,-1.46 8.238,-2.01 2.981,-16.67 13.156,-25.47 20.266,-30.18 0,-0.06 4.875,-19.29 4.875,-19.29 0.269,-0.61 0.879,-1.35 1.172,-1.95 -6.477,-5.23 -13.664,-11.25 -22.824,-19.39 l -13.583,-12.11 c -12.433,-11.05 -22.453,-19.94 -32.5,-28.27 15.067,24.9 27.059,60.86 30.567,87.54" /><path
         id="path18"
         style="fill:#ffffff;fill-opacity:1;fill-rule:nonzero;stroke:none"
         d="m 1765.04,526.34 c 0.3,-0.199 0.51,-0.641 0.71,-0.899 0.65,-0.75 2.57,-2.91 2.57,-2.91 l -3.28,3.809" /><path
         id="path20"
         style="fill:#d92838;fill-opacity:1;fill-rule:nonzero;stroke:none"
         d="m 23.2539,606.5 c 0,322.09 261.1871,583.27 583.0551,583.27 322.238,0 583.511,-261.18 583.511,-583.27 C 1189.82,284.328 928.547,23.3008 606.309,23.3008 284.441,23.3008 23.2539,284.328 23.2539,606.5" /><path
         id="path22"
         style="fill:#ffffff;fill-opacity:1;fill-rule:nonzero;stroke:none"
         d="m 93.8672,606.5 c 0,283.219 229.8318,512.89 513.1448,512.89 283.144,0 512.948,-229.671 512.948,-512.89 C 1119.96,323.289 890.156,93.7617 607.012,93.7617 323.699,93.7617 93.8672,323.289 93.8672,606.5" /><path
         id="path24"
         style="fill:#d92838;fill-opacity:1;fill-rule:nonzero;stroke:none"
         d="m 131.965,606.5 c 0,262.32 212.781,475.02 475.047,475.02 262.148,0 474.918,-212.7 474.918,-475.02 0,-262.359 -212.77,-474.98 -474.918,-474.98 -262.266,0 -475.047,212.621 -475.047,474.98" /><path
         id="path26"
         style="fill:#26262a;fill-opacity:1;fill-rule:nonzero;stroke:none"
         d="m 1106,913.078 c -9.85,10.141 -18.59,23.852 -18.59,23.852 -105.144,152.34 -281.211,252.73 -480.64,252.73 l -1.086,-1.36 c -7.715,-1.49 -15.664,-6.37 -26.746,-12.61 -17.668,-9.27 -36.399,-9.89 -54.719,-10.85 -14.668,0.96 -4.473,19.14 -13.406,16.14 -10.403,-2.87 -33.223,-10.71 -43.118,-16.99 -0.91,-22.54 -69.218,-46.09 -106.054,-28.26 4.316,54.04 94.074,100.9 222.558,120.28 80.071,47.72 91.367,60.22 144.114,106.92 23.652,21.05 34.546,29.64 42.207,31.2 3.386,1.46 1.035,3.51 -1.75,3.66 -7.239,3.01 -10.586,8.05 -13.262,13.77 -4.219,8.89 -1.387,19.39 -7.422,24.96 -6.973,4.83 -15.684,8.38 -16.531,19.97 -0.492,5.99 -0.891,15.44 -9.426,16.15 -11.934,-0.41 -16.25,-2.98 -17.609,21.54 -0.543,10.75 -0.196,28.03 -5.797,28.48 -8.039,0.8 -15.891,-26.12 -24.524,-92.17 -6.34,-48.06 -34.863,-102.45 -44.812,-95.53 -9.516,8.3 -1.477,57.92 -16.047,79.96 -2.254,4.03 4.695,-54.39 -39.324,-99.33 -6.067,-6.54 -11.321,-2.72 -11.274,0.64 1.711,12.15 7.563,82.76 -6.472,104.38 -11.055,17.71 -22.989,18.62 -40.43,26.21 -14.348,6.88 -26.172,25.11 -30.344,39.02 -11.629,45.16 8.84,93.15 12.805,108.54 3.867,14.86 19.687,81.91 15.754,109.89 -6.438,21.3 -16.203,40.63 -2.114,73.58 2.114,3.46 3.789,5.97 1.028,8.88 -21.094,16.18 -35.137,28.92 -41.114,60.94 -3.496,18.87 -0.585,27.26 -7.8,43.54 -2.461,6.52 -8.196,10.25 -6.184,14.51 4.426,4.51 11.172,4.51 17.227,4.42 34.882,-5.82 55.8,-25.37 68.984,-46.66 4.523,8.94 8.215,14.41 14.539,20.68 -1.375,21.56 8.586,37.93 22.902,51.93 -2.429,26.84 15.821,43.15 28.731,49.04 2.012,22.9 15.742,39.71 37.441,54.94 14.766,33.86 36.563,44.8 49.375,52.64 13.633,7.49 33.02,16.32 67.598,21.6 14.844,1.85 18.035,-7.4 11.102,-13.76 -22.43,-18.09 -74.735,-73.99 -96.036,-135.86 6.758,11.95 23.059,32.44 43.325,42.02 11.453,29.84 39.226,45.2 56.043,53.46 9.777,17.93 31.425,40.51 62.863,47.2 35.281,30.24 92.859,29.49 99.922,29.33 11.676,-0.61 26.343,-0.45 28.699,-11.14 4.133,-15.37 -171.113,-105.58 -197.949,-287.34 -0.977,-8.08 42.976,41.49 88.918,33.94 2.554,-1.11 4.566,-3 5.742,-5.62 21.402,-46.25 1.082,-88.69 6.277,-91.81 90.891,-53.44 110.637,-121.04 149.766,-159.27 55.04,-52.53 119.52,-50.52 173.47,-89.4 51.32,-36.22 110.04,-157.99 139.92,-183.17 129.13,-92.01 238.02,-172.62 324.3,-310.22 11.51,-17.99 18.63,-28.73 40.78,-30.76 48.16,1.27 87.8,58.22 119.89,110.11 1.85,2.72 4.06,3.46 6.02,1.95 3.82,-2.95 1.7,-10.6 5.73,-11.09 10.54,-1.45 19.38,29.93 30.12,36.87 4.23,3 10.67,0.4 9.19,-5.03 -3.14,-11.97 -10.64,-25.92 -11.19,-35.07 0,-2.2 2,-1.7 3.12,-0.25 2.01,2.32 4.72,3.17 6.93,2.77 4.51,-1 4.07,-6.83 2.8,-9.65 -3.96,-7.37 -7.37,-14.9 -7.88,-23.56 -0.19,-7.37 5.68,-2.05 9.15,-4.12 4.96,-2.3 3.97,-8.17 1.3,-15.26 -13.42,-29.72 -54.59,-138.549 -152.53,-124.498 -12.51,2.199 -18.93,11.297 -15.16,-2.711 25,-84.332 -24.32,-267.5 -3.37,-354.641 6.02,-24.898 34.3,-45.101 43.03,-58.109 5.13,-4.922 11,-15.312 12.31,-26.91 6.58,-74.391 -12.31,-81.43 22.05,-220.039 2.91,-11.363 2.62,-19.703 -3.32,-26.313 -6.12,-7.031 -10.74,-3.968 -12.65,-10.609 -4.42,-44.66 -22.85,-79.949 -49.12,-89.5 -36.31,-12.609 -60.02,4.52 -54.74,35.172 10.24,55.328 36.86,65.879 46.1,122.187 6.93,47.653 -21.89,96.68 -31.68,113.352 -9.1,15.277 -32.2,56.859 -60.82,83.328 -3.77,4.672 -6.84,3.512 -8.2,-0.469 -10.89,-34.429 0.56,-105 5.48,-123.191 7.98,-29.289 17.29,-65.34 15.46,-89.188 -1.49,-23.421 -13.44,-37.679 -24.56,-48.48 -16.97,-16.422 -6.17,-43.992 -38.11,-57.301 -23.31,-9.75 -40.58,-5.57 -48.52,-1.41 -7.33,4.629 -10.85,6.68 -11.71,15.672 -0.05,10.707 1.17,26.117 11.61,39.226 17.08,21.293 39.78,51.481 43.7,108.282 7.54,102.91 -84.09,220.191 -89.91,221.55 -5.92,1.29 -3.8,-3.871 -8.43,-2.519 -9.1,7.437 -19.94,35.168 -29.63,45.5 -5.23,7.25 -18.38,4.117 -20.5,14.48 -1.05,7.93 -4.32,15.957 -10.75,19.387 -4.21,2.461 -7.33,-1.828 -11.14,0.281 -11.21,8.743 -11.66,40.231 -15.38,42.262 -3.91,1.699 -7.63,-1.461 -10.54,0 -8.14,3.508 -6.13,29.867 -12.76,48.598 -3.01,9.851 -12.96,9.511 -15.77,21.301 -4.36,21.39 -3.72,49.261 -26.81,59.82 -23.51,10.301 -38.58,-3.82 -49.73,13.148 -6.03,7.34 -4.98,19.344 -20.29,20.942 -8.08,4.039 -11.35,13.922 -18.64,11.718 -3.97,-1.109 -0.65,-8.847 -8.79,-13.968 -10.94,-0.739 -21.94,28.832 -37.12,27.582 -5.06,-1.91 -6.98,-7.692 -12.64,-8.043 -6.59,-0.258 -7.19,33.101 -28.48,41.14 -3.87,1.45 -6.74,-5.578 -10,-0.91 0,0 -8.74,6.68 -18.93,17.379" /><path
         id="path28"
         style="fill:none;stroke:#26262a;stroke-width:0.34;stroke-linecap:butt;stroke-linejoin:miter;stroke-miterlimit:4;stroke-dasharray:none;stroke-opacity:1"
         d="m 1106,913.078 c -9.85,10.141 -18.59,23.852 -18.59,23.852 -105.144,152.34 -281.211,252.73 -480.64,252.73 l -1.086,-1.36 c -7.715,-1.49 -15.664,-6.37 -26.746,-12.61 -17.668,-9.27 -36.399,-9.89 -54.719,-10.85 -14.668,0.96 -4.473,19.14 -13.406,16.14 -10.403,-2.87 -33.223,-10.71 -43.118,-16.99 -0.91,-22.54 -69.218,-46.09 -106.054,-28.26 4.316,54.04 94.074,100.9 222.558,120.28 80.071,47.72 91.367,60.22 144.114,106.92 23.652,21.05 34.546,29.64 42.207,31.2 3.386,1.46 1.035,3.51 -1.75,3.66 -7.239,3.01 -10.586,8.05 -13.262,13.77 -4.219,8.89 -1.387,19.39 -7.422,24.96 -6.973,4.83 -15.684,8.38 -16.531,19.97 -0.492,5.99 -0.891,15.44 -9.426,16.15 -11.934,-0.41 -16.25,-2.98 -17.609,21.54 -0.543,10.75 -0.196,28.03 -5.797,28.48 -8.039,0.8 -15.891,-26.12 -24.524,-92.17 -6.34,-48.06 -34.863,-102.45 -44.812,-95.53 -9.516,8.3 -1.477,57.92 -16.047,79.96 -2.254,4.03 4.695,-54.39 -39.324,-99.33 -6.067,-6.54 -11.321,-2.72 -11.274,0.64 1.711,12.15 7.563,82.76 -6.472,104.38 -11.055,17.71 -22.989,18.62 -40.43,26.21 -14.348,6.88 -26.172,25.11 -30.344,39.02 -11.629,45.16 8.84,93.15 12.805,108.54 3.867,14.86 19.687,81.91 15.754,109.89 -6.438,21.3 -16.203,40.63 -2.114,73.58 2.114,3.46 3.789,5.97 1.028,8.88 -21.094,16.18 -35.137,28.92 -41.114,60.94 -3.496,18.87 -0.585,27.26 -7.8,43.54 -2.461,6.52 -8.196,10.25 -6.184,14.51 4.426,4.51 11.172,4.51 17.227,4.42 34.882,-5.82 55.8,-25.37 68.984,-46.66 4.523,8.94 8.215,14.41 14.539,20.68 -1.375,21.56 8.586,37.93 22.902,51.93 -2.429,26.84 15.821,43.15 28.731,49.04 2.012,22.9 15.742,39.71 37.441,54.94 14.766,33.86 36.563,44.8 49.375,52.64 13.633,7.49 33.02,16.32 67.598,21.6 14.844,1.85 18.035,-7.4 11.102,-13.76 -22.43,-18.09 -74.735,-73.99 -96.036,-135.86 6.758,11.95 23.059,32.44 43.325,42.02 11.453,29.84 39.226,45.2 56.043,53.46 9.777,17.93 31.425,40.51 62.863,47.2 35.281,30.24 92.859,29.49 99.922,29.33 11.676,-0.61 26.343,-0.45 28.699,-11.14 4.133,-15.37 -171.113,-105.58 -197.949,-287.34 -0.977,-8.08 42.976,41.49 88.918,33.94 2.554,-1.11 4.566,-3 5.742,-5.62 21.402,-46.25 1.082,-88.69 6.277,-91.81 90.891,-53.44 110.637,-121.04 149.766,-159.27 55.04,-52.53 119.52,-50.52 173.47,-89.4 51.32,-36.22 110.04,-157.99 139.92,-183.17 129.13,-92.01 238.02,-172.62 324.3,-310.22 11.51,-17.99 18.63,-28.73 40.78,-30.76 48.16,1.27 87.8,58.22 119.89,110.11 1.85,2.72 4.06,3.46 6.02,1.95 3.82,-2.95 1.7,-10.6 5.73,-11.09 10.54,-1.45 19.38,29.93 30.12,36.87 4.23,3 10.67,0.4 9.19,-5.03 -3.14,-11.97 -10.64,-25.92 -11.19,-35.07 0,-2.2 2,-1.7 3.12,-0.25 2.01,2.32 4.72,3.17 6.93,2.77 4.51,-1 4.07,-6.83 2.8,-9.65 -3.96,-7.37 -7.37,-14.9 -7.88,-23.56 -0.19,-7.37 5.68,-2.05 9.15,-4.12 4.96,-2.3 3.97,-8.17 1.3,-15.26 -13.42,-29.72 -54.59,-138.549 -152.53,-124.498 -12.51,2.199 -18.93,11.297 -15.16,-2.711 25,-84.332 -24.32,-267.5 -3.37,-354.641 6.02,-24.898 34.3,-45.101 43.03,-58.109 5.13,-4.922 11,-15.312 12.31,-26.91 6.58,-74.391 -12.31,-81.43 22.05,-220.039 2.91,-11.363 2.62,-19.703 -3.32,-26.313 -6.12,-7.031 -10.74,-3.968 -12.65,-10.609 -4.42,-44.66 -22.85,-79.949 -49.12,-89.5 -36.31,-12.609 -60.02,4.52 -54.74,35.172 10.24,55.328 36.86,65.879 46.1,122.187 6.93,47.653 -21.89,96.68 -31.68,113.352 -9.1,15.277 -32.2,56.859 -60.82,83.328 -3.77,4.672 -6.84,3.512 -8.2,-0.469 -10.89,-34.429 0.56,-105 5.48,-123.191 7.98,-29.289 17.29,-65.34 15.46,-89.188 -1.49,-23.421 -13.44,-37.679 -24.56,-48.48 -16.97,-16.422 -6.17,-43.992 -38.11,-57.301 -23.31,-9.75 -40.58,-5.57 -48.52,-1.41 -7.33,4.629 -10.85,6.68 -11.71,15.672 -0.05,10.707 1.17,26.117 11.61,39.226 17.08,21.293 39.78,51.481 43.7,108.282 7.54,102.91 -84.09,220.191 -89.91,221.55 -5.92,1.29 -3.8,-3.871 -8.43,-2.519 -9.1,7.437 -19.94,35.168 -29.63,45.5 -5.23,7.25 -18.38,4.117 -20.5,14.48 -1.05,7.93 -4.32,15.957 -10.75,19.387 -4.21,2.461 -7.33,-1.828 -11.14,0.281 -11.21,8.743 -11.66,40.231 -15.38,42.262 -3.91,1.699 -7.63,-1.461 -10.54,0 -8.14,3.508 -6.13,29.867 -12.76,48.598 -3.01,9.851 -12.96,9.511 -15.77,21.301 -4.36,21.39 -3.72,49.261 -26.81,59.82 -23.51,10.301 -38.58,-3.82 -49.73,13.148 -6.03,7.34 -4.98,19.344 -20.29,20.942 -8.08,4.039 -11.35,13.922 -18.64,11.718 -3.97,-1.109 -0.65,-8.847 -8.79,-13.968 -10.94,-0.739 -21.94,28.832 -37.12,27.582 -5.06,-1.91 -6.98,-7.692 -12.64,-8.043 -6.59,-0.258 -7.19,33.101 -28.48,41.14 -3.87,1.45 -6.74,-5.578 -10,-0.91 0,0 -8.74,6.68 -18.93,17.379 z" /><path
         id="path30"
         style="fill:#ffffff;fill-opacity:1;fill-rule:nonzero;stroke:none"
         d="m 590.82,1926.16 c 9.16,11.46 27.727,16.73 26.895,20.39 -1.582,3.41 -8.496,0.34 -13.613,0 -2.207,-0.3 -5.098,0.2 -4.793,2.77 8.679,30.39 38.367,35.81 47.363,45.45 1.023,1.8 0,1.8 -2.363,3.16 -4.668,0.2 -12.18,-4.93 -12.18,-0.45 3.484,30.22 40.43,44.81 47.305,47.21 1.816,1.6 0.207,3.67 -2.11,4.06 -3.125,-0.39 -5.691,-2.3 -6.125,1.57 3.567,14.96 23.606,27 36.516,33.45 13.183,5.41 39.25,13.36 39.25,9.44 0,-1.66 -20.473,-11.55 -27.199,-21.71 -5.625,-8.22 -10.696,-13.71 -11.172,-26.81 -20.918,-10.3 -31.27,-33.5 -32.649,-55.55 -14.859,-7.69 -26.238,-34.55 -21.336,-45.6 -17.136,-16.64 -25.527,-40.63 -24.589,-64.69 -37.051,-48.42 -26.075,-66.9 14.765,-81.92 5.996,-1.91 11.778,-2.26 12.91,0.65 1.426,2.91 -3.574,4.68 -5.351,8.85 -22.227,49.46 5.801,74.18 44.851,90.86 3.008,1.5 0.766,4.92 -3.816,4.82 -10.547,0.1 -20.066,-2.62 -21.348,0.8 -5.703,16.11 36.262,49.61 56.875,56 8.797,2.55 5.098,6.97 1.524,6.37 -5.586,0.51 -14.129,-2.65 -16.895,4.52 5.305,18.18 55.547,42.39 62.969,46.72 4.57,2.86 6.465,8.09 -15.801,3.46 -2.058,-0.25 -4.316,-0.25 -3.34,2.81 4.168,13.1 51.223,31.44 75.176,39.78 3.75,1.81 4.832,7.68 -6.426,5.48 -4.109,-0.66 -11.57,-3.36 -13,-0.32 1.43,17.8 53.43,31.45 71.992,35.52 4.219,1.47 5,3.82 1.34,5.63 -5.91,1.75 -15.273,-2.91 -11.726,3.26 13.98,8.9 51.023,9.05 63.875,6.94 3.547,-0.66 4.426,-1.46 4.726,-2.21 -3.945,-9.35 -66.191,-27.52 -73.906,-64.96 -18.652,-7.73 -36.875,-25.5 -39.023,-40.72 -9.817,-5.22 -29.485,-21.4 -30.618,-43.65 -10.691,-8.03 -38.765,-32.95 -29.453,-63.22 -14.968,-14.08 -26.597,-28.48 -26.023,-67.96 0.254,-13.62 -17.449,-35.72 -35.703,-40.83 -5.149,-2.06 -3.086,-6.22 0.625,-7.23 30.539,-8.99 58.945,7.58 70.039,18.13 35.285,33.55 58.789,45.7 74.637,47.71 2.941,0.75 2.941,-1.37 3.378,-2.91 2.219,-8.89 7.727,-30.28 0.063,-60.33 -10.023,-37.61 -38.781,-55.04 -46.965,-65.33 -1.426,-1.46 4.024,-17.44 1.082,-25.62 -3.289,-10.4 0.481,-16.82 4.27,-18.39 10.449,-3.82 17.8,35.06 24.082,34.07 5.019,-0.26 4.172,-8.75 10.129,-11.82 3.242,-1.15 7.859,-0.15 8.386,3.36 0.774,10.87 4.844,37.47 7.442,40.29 1.926,2.41 7.812,-9.59 8.203,-16.92 0.39,-30.3 -16.629,-56 -6.668,-76.85 2.293,-4.47 7.273,-4.08 10.75,-0.8 9.121,9.84 15.398,45.29 35.723,49.77 27.335,6.07 54.46,-68.91 35.175,-88.95 -9.355,-7.98 -21.152,-0.96 -32.773,-7.44 -12.512,-7.29 -11.426,-35.1 -19.961,-46.66 -5.078,-5.11 -11.106,-5.92 -22.832,-6.92 -24.832,-1.91 -17.274,-72.78 -13.43,-85.43 2.485,-7.49 7.739,-6.03 11.223,-3.47 3.547,2.96 6.269,17.58 7.004,31.19 1.004,4.33 8.523,6.03 13.914,11.35 5.84,4.51 2.793,9.44 6.328,13.87 5.051,5.66 10.039,0.64 14.16,6.97 10.703,8.94 3.067,22.85 11.731,28.79 12.671,8.33 24.011,4.17 35.203,16.42 6.906,7.68 7.785,23.91 17.461,26.6 51.367,1.23 102.497,-57.94 111.297,-75.52 25.35,-52.64 -15.31,-132.04 12.5,-147.21 35.01,-20.39 27.42,-59.87 23.61,-69.81 -7.58,-20.15 -63.54,-45.76 -70.72,-92.46 -3.66,-44.86 19.74,-35.51 21.4,-30 1.81,5.68 3.32,12.97 6.12,18.59 2.21,4.97 9.04,2.77 9.8,-2.05 1.35,-4.17 10.94,-16.17 25.21,10.24 8.94,16.78 33.1,38.42 51.18,50.83 17.84,12.65 22.09,52.23 25.21,61.22 2.31,7.79 8.85,7.79 9.85,16.17 0.7,8.65 -15.53,37.27 -5.94,57.7 4.53,6.88 15.38,11.71 23.53,2.31 8.48,-9.85 -5.29,-42.03 10.09,-42.68 13.15,-0.45 14.56,15.01 25.91,13.96 11.6,-2.2 -9.24,-44.64 2.15,-51.17 7.04,-2.87 15.88,0.44 19.39,-6.54 3.21,-11.7 -17.68,-32.99 0.41,-32.99 191.36,3.31 261.26,-147.28 249,-174.78 -5.72,-10.45 -28.82,5.17 -32.14,-5.39 -17.48,-58.96 22.05,-103.599 33.45,-111.24 3.43,-1.949 9.44,0.801 8.95,8.199 -1.92,16.801 -11.2,25.751 -9.35,42.331 3.21,29.33 68.6,11.25 71.92,-11.04 1.26,-8.34 1.71,-15.18 9.09,-22.22 9.29,-8.77 31.6,1.11 33.81,-18.371 2.86,-37.821 -44.34,-39.981 -76.95,-63.379 -15.57,-12.008 -12.05,-20.352 1.12,-24.68 15.67,-4.16 40.77,0.309 53.47,-18.219 18.02,-25.812 -5.67,-79.652 -7.02,-102.41 -1.32,-23.101 39.92,-90.41 40.84,-124.82 2.95,-17.153 -8.86,-26.461 -23.47,-12.34 -14.01,14.711 -28.79,37.418 -39.72,54.43 -3.17,5.39 -11.51,5.738 -11.36,-5.309 -0.15,-29.793 140.94,-213.352 144.45,-243.402 3.26,-15.809 -5.52,-29.219 -1.8,-44.692 1.25,-4.468 7.03,-1.847 7.48,-5.468 0.75,-10.2 -9.6,-25.68 5.17,-33.051 7.28,-20.149 0,-28.571 3.81,-45.309 1.91,-16.558 9.75,-39.66 11.55,-56.5 -3.96,-47.351 -22.1,-65.789 -36.56,-72.808 -12.44,-6.231 -17.57,4.957 -16.42,14.609 3.27,28.68 35,79.449 22.35,136.75 -32.6,147.269 -190.26,251.777 -216.47,307.777 -8.53,21.09 -38.78,23.453 -40.48,48.321 -3.01,8.031 -10.95,5.57 -17.73,12.953 -5.67,6.437 -5.48,25.718 -11.55,39.879 -1.82,4.468 -7.29,2.218 -11.4,6.48 -22.44,29.488 -17.58,173.481 -37.63,193.219 -14.75,8.191 -26.16,-14.68 -44.54,-16.59 -14.06,-1.449 -37.21,33.41 -45.7,24.578 -6.93,-6.887 -3.93,-24.578 -3.32,-27.316 0.7,-2.481 4.12,-14.774 -0.61,-14.774 -4.31,-0.168 -10.43,8.692 -28.22,15.864 -11.84,4.277 -23.1,0 -28.63,3.558 -12.05,13.078 0.51,40.59 -19.88,48.43 -5.73,2.199 -6.73,16.769 -9.64,22.59 -2.82,4.18 -8.64,3.82 -11.26,7.04 -5.53,8.34 -9.4,18.54 -11.85,30.24 -2.12,8.03 -20.69,-1.96 -22.1,10.69 -1.81,8.49 -11.75,11.25 -19.49,12.51 -9.39,1.16 -5.42,21.76 -13.55,25.15 -3.52,1.62 -4.77,-2.4 -8.44,-0.48 -3.72,4.65 -3.07,9.07 -7.83,12.45 -4.03,2.76 -7.99,-1.86 -10.85,1.45 -11.92,14.42 -2.42,38.63 -8.65,45.81 -4.12,4.42 -11.05,-0.54 -17.28,4.83 -6.02,4.57 -6.98,12.1 -10.65,13.2 -10.43,0.2 -14.16,2.11 -18.47,7.37 -19.24,26.88 -17.08,57.78 -23.66,68.77 -4.27,7.28 -10.76,11.75 -15.62,-1.8 -9.648,-23.42 -8.632,-110.65 -36.535,-122.5 -21.542,-10.56 -40.789,26.56 -51.433,33.19 -4.727,2.51 -5.598,-5.38 -8.984,-5.67 -9.852,3.86 -7.637,15.57 -15.547,20.19 -7.715,3.31 -4.473,-7.53 -8.848,-6.58 -7.656,7.03 -7.656,25.92 -14.453,29.28 -5.508,2.11 -8.75,-4.32 -11.887,-1.61 -11.043,9.59 -3.277,31.04 -16.648,37.83 -5.782,1.85 -4.95,-7.84 -10.899,-5.13 -5.683,2.05 -4.695,32.5 -22.5,29.57 -2.605,-0.35 -1.797,3.82 -3.586,5.43 -5.3,0.65 -8.953,-6.68 -14.402,-1.9 -7.5,9.88 -13.23,14.71 -18.098,18.42 -7.461,6.39 -18.55,-1.66 -27.769,5.23 -32.5,14.27 -106.938,-42.59 -140.461,-75.84 -12.207,11.41 -28.699,-0.6 -42.586,-2.05 -5.051,-1.16 -20.664,-0.47 -8.391,16.47 30.41,32.19 52.657,30.57 109.973,71.56 41.91,30.69 79.5,60.63 93.035,69.41 11.094,5.77 28.848,10.59 43.692,-9 20.996,-27.35 67.8,-73.27 87.695,-82.19 41.015,-17.75 43.039,13.6 48.047,24.44 4.375,11.06 7.097,1.92 6.855,-8.48 -0.058,-6.83 2.461,-16.43 8.059,-17.38 11.219,-1.3 11.328,7.19 12.957,12.6 12.754,50.43 62.404,111.05 81.994,98.6 14.26,-9.14 22.8,-9.14 26.21,8.14 3.77,22.24 -13.41,42.69 -18.09,66.15 -4.81,27.11 -1.79,62.82 -12.15,67.8 -6.07,2.61 -14.39,-3.32 -19.08,-9.91 -6.22,-8.32 -6.22,-17.11 -8.39,-27.21 -0.94,-5.63 -23.6,-11.72 -26.166,-40.98 -0.195,-5.33 -8.781,5.26 -14.914,0 -12.61,-9.59 -10.344,-57.16 -14.336,-59.82 -4.758,-0.45 -10.399,4.76 -12.293,-2.11 1.023,-7.69 -3.254,-26.22 -6.945,-27.66 -3.086,-0.91 -6.375,2.8 -10.743,0.28 -10.878,-9.09 -6.484,-21.74 -16.914,-33.75 -6.394,-7.83 -10.761,-2.35 -11.496,4.53 -1.531,11.74 -10.945,29.38 -19.187,37.76 -24.102,24.92 -9.192,66.5 -43.34,83.82 -10.242,5.14 -10.852,10.11 -11.973,19.3 -0.39,10.15 -6.23,17.13 -11.472,18.48 -9.426,2.72 -11.008,7.83 -11.438,14.41 0.879,17.74 -12.344,18.49 -19.387,19.99 -16.648,1.61 -17.222,4.78 -11.98,46.46 1.484,10 1.594,21.59 -1.648,30.99 -8.696,12.84 -27.778,4.62 -25.137,25.61 2,13.81 26.648,31.7 37.183,43.05 6.379,7.18 10.422,25.76 -11.57,21.25 -50,-13.27 -89.851,-101.86 -99.277,-118.84 -36.153,-66.3 -67.578,-92.71 -96.985,-102.9 -13.726,-4.9 -61.433,-9.3 -71.14,37.4 -4.969,24.51 1.035,47.58 12.207,85.94 48.301,167.91 -5.672,135.91 20.715,191.81 17.031,18.99 41.14,16.37 65.625,19.34 5.449,0.7 3.484,7.73 2.156,9.84 -0.977,1.97 -6.68,4.32 -14.192,5.77 -7.46,1.25 -23.55,15.53 -24.937,30.85 -1.398,16.86 9.422,27.27 16.602,34.59 10.261,10.11 17.656,11.21 17.808,13.46 -0.633,8.96 -19.488,-3.66 -21.148,0 -4.016,13.93 7.554,26.68 15.222,35.77" /><path
         id="path32"
         style="fill:#ffffff;fill-opacity:1;fill-rule:nonzero;stroke:none"
         d="m 538.633,1838.71 c -0.625,-6.07 -0.625,-15.46 7.512,-35.1 -8.137,-1.06 -13.086,-8.23 -20.168,-4.31 -22.227,12.19 -34.727,34.8 -41.914,57.65 -4.649,13.17 -4.219,28.78 -11.524,40.63 38.418,-2.56 66.543,-54.34 66.094,-58.87" /><path
         id="path34"
         style="fill:#26262a;fill-opacity:1;fill-rule:nonzero;stroke:none"
         d="m 848.789,1832.64 c 2.07,0.6 2.793,-0.75 2.793,-1.6 -1.648,-27.43 -30.664,-82.08 -68.457,-91.86 -2.207,-0.47 -3.613,-0.22 -4.355,1.89 -3.457,19.05 8.527,51.39 39.257,63.25 15.243,5.88 22.383,15.97 30.762,28.32" /><path
         id="path36"
         style="fill:#26262a;fill-opacity:1;fill-rule:nonzero;stroke:none"
         d="m 721.555,1725.12 c 1.804,-7.08 0.535,-7.55 -5.5,-3.57 -19.746,20.74 -36.621,15.35 -48.594,9.09 -5.828,-2.36 -7.606,-2.22 -5.93,3.11 18.203,27.83 51.379,14.06 60.024,-8.63" /><path
         id="path38"
         style="fill:#26262a;fill-opacity:1;fill-rule:nonzero;stroke:none"
         d="m 618.918,1721.29 c 9.969,-14.31 5.652,-36.5 -2.988,-53.18 -6.86,-12.82 -18.059,-33.25 -22.422,-42.29 -1.867,-5.33 -5.781,-5.68 -9.016,-4.28 -3.293,0.72 12.102,26.28 16.477,56.31 1.726,12.31 -1.516,30.28 7.449,43.7 3.145,4.47 7.715,3 10.5,-0.26" /><path
         id="path40"
         style="fill:#26262a;fill-opacity:1;fill-rule:nonzero;stroke:none"
         d="m 702.539,1707.83 c 7.234,-16.67 -10.449,-24.86 -20.793,-26.92 -7.254,-1.26 -12.703,0.75 -18.797,4.77 -3.429,2.42 -1.562,4.16 -4.226,5.48 -5.5,0.3 -4.219,-3.21 -10.2,-4.62 -4.121,-0.47 -4.468,1.41 -1.675,5.57 6.726,11.19 10.371,19.04 21.445,23.52 10.32,4.16 25.391,8.48 34.246,-7.8" /><path
         id="path42"
         style="fill:#26262a;fill-opacity:1;fill-rule:nonzero;stroke:none"
         d="m 644.629,1637.71 c 8.594,-33.5 2.219,-46.46 -5.469,-54.39 -2.859,-2.61 -20.867,-5.82 -23.23,17.29 8.992,10.85 14.5,27.32 19.89,39.02 3.821,7.48 6.172,8.04 8.809,-1.92" /><path
         id="path44"
         style="fill:#26262a;fill-opacity:1;fill-rule:nonzero;stroke:none"
         d="m 577.859,1545.21 c -3.843,-21 -12.476,-31.69 -27.398,-35.07 -17.402,-2.1 -24.809,17.13 -22.512,17.03 16.887,-3.06 34.746,6.53 45.442,20.29 2.507,3.67 5.144,1.1 4.468,-2.25" /><path
         id="path46"
         style="fill:#26262a;fill-opacity:1;fill-rule:nonzero;stroke:none"
         d="m 1431.25,1220 c 9.64,-3.01 13.6,-12.91 10.24,-18.54 -3.95,-9.15 -12.11,-15.37 -12.29,-24.1 -0.16,-7.38 -1.48,-11.86 -7.29,-13.77 -10.85,-1.2 -17.18,21.3 -26.82,5.69 -5.32,-7.99 -16.17,-2.51 -17.53,1.9 -1.95,6.93 -6.12,13.96 -13.01,14.27 -22.61,0.64 -28.12,35.91 -24.55,45.45 17.42,40.83 60.11,-0.15 91.25,-10.9" /><path
         id="path48"
         style="fill:#ffffff;fill-opacity:1;fill-rule:nonzero;stroke:none"
         d="m 545.215,1226.79 c -11.875,-8.86 -19.863,-19.99 -26.399,-32.2 -14.187,-2.28 -37.183,-11.86 -53.589,-19.24 -6.067,-3.16 -29.153,-4.92 -49.993,-7.33 -3.191,0.3 -3.945,2.25 -3.945,4.82 -1.66,15.77 96.328,55.8 133.926,59.66 3.39,0 5.5,-1.6 0,-5.71" /><path
         id="path50"
         style="fill:#ffffff;fill-opacity:1;fill-rule:nonzero;stroke:none"
         d="m 1838.21,1024.17 c 3.08,-8.03 -5.42,-18.14 -14.22,-27.811 -8.62,-10.148 -46.08,-36.519 -77.23,-35.121 -8.63,1.301 -17.97,10.801 -15.05,22.25 3,9.801 33.13,12.313 56.24,20.342 16.86,5.78 24.85,9.33 38.22,19.54 8.38,6.33 10.29,2.51 12.04,0.8" /><path
         id="path52"
         style="fill:#ffffff;fill-opacity:1;fill-rule:nonzero;stroke:none"
         d="m 1572.09,439.871 c 5.66,-0.152 4.86,1.75 9.79,0 4.37,-0.152 4.21,-19.043 3.66,-28.73 -1.11,-6.141 -2.51,-16.379 3.92,-21.063 5.73,-4.969 -7.58,-23.039 2,-31.828 5.33,-7.391 -5.92,-26.668 2.71,-37.328 4.19,0 7.34,-1.203 9.55,-4.711 -3.61,-22.313 6.33,-57.5 2.81,-67.66 -9.74,-15.371 -17.07,-13.86 -25.42,-39.18 -12.59,-24.402 -48.11,-9.18 -41.17,10.559 25.11,42.492 34.35,89.691 35.66,110.34 4.17,53.589 -24.06,138.769 -27.12,150.621 -0.72,10.711 1.6,17.129 10.04,7.531 12.45,-19.524 7.98,-47.41 13.57,-48.551" /><path
         id="path54"
         style="fill:#ffffff;fill-opacity:1;fill-rule:nonzero;stroke:none"
         d="m 657.063,895.352 -1.125,-5.18 c 0,0 -27.149,40.488 -32.872,48.976 -0.91,-11.867 -13.847,-171.07 -13.847,-171.07 h -4.414 c 0,0 -12.532,159.16 -13.457,171.07 -5.735,-8.488 -32.989,-48.976 -32.989,-48.976 0,0 -56.316,259.248 -60.363,277.988 -4.058,-18.74 -60.391,-277.988 -60.391,-277.988 0,0 -27.246,40.539 -32.949,48.976 -0.972,-12.507 -57.859,-727.109 -57.859,-727.109 0,0 0,-0.488 -0.051,-0.898 77.297,-50.969 167.149,-77.903 260.024,-77.903 h 0.671 c 92.989,0 182.891,26.934 260.039,77.953 v 1 c 0,0 -52.05,655.641 -57.656,726.957 -5.781,-8.488 -32.976,-48.976 -32.976,-48.976 0,0 -56.477,259.318 -60.547,278.048 -3.996,-18.73 -59.238,-272.868 -59.238,-272.868" /><path
         id="path56"
         style="fill:#26262a;fill-opacity:1;fill-rule:nonzero;stroke:none"
         d="M 869.734,212.191 811.453,945.77 777.93,895.84 716.301,1178.77 654.902,895.84 621.379,945.77 607.012,768.281 593.027,945.77 559.504,895.84 497.996,1178.77 436.523,895.84 402.961,945.77 344.512,212.191 v -2.25 c 75.039,-49.832 165.468,-78.91 262.258,-78.91 h 0.671 c 97.079,0 187.317,29.078 262.293,78.91 v 2.25" /><path
         id="path58"
         style="fill:#ffffff;fill-opacity:1;fill-rule:nonzero;stroke:none"
         d="M 1102.58,632.52 1027.74,891.48 103.789,631.57 160.918,367.84 1102.58,632.52" /><path
         id="path60"
         style="fill:#d92838;fill-opacity:1;fill-rule:nonzero;stroke:none"
         d="m 277.617,646.988 121.172,37.571 -21.406,-228.079 -84.649,-23.589 14.461,154.988 -36.355,-12.609 6.777,71.718" /><path
         id="path62"
         style="fill:#d92838;fill-opacity:1;fill-rule:nonzero;stroke:none"
         d="m 503.496,525 c -2.156,-23.672 -27.266,-43.809 -49.844,-50.73 -23.027,-5.981 -45.254,0.652 -43.047,24.5 2.266,24.761 27.364,45.66 50.157,51.589 22.519,6.469 44.902,-0.91 42.734,-25.359" /><path
         id="path64"
         style="fill:#d92838;fill-opacity:1;fill-rule:nonzero;stroke:none"
         d="m 559.297,729.648 157.004,44.512 -5.805,-65.898 -71.59,-19.543 -2.011,-24 62.761,17.422 -5.75,-58.711 -62.605,-17.789 -7.61,-79.801 -85.988,-24.25 21.594,228.058" /><path
         id="path66"
         style="fill:#d92838;fill-opacity:1;fill-rule:nonzero;stroke:none"
         d="m 918.523,740.41 c -12.476,8.43 -28.796,14 -48.132,8.629 -25.567,-7.168 -48.387,-32.488 -50.801,-57.398 -2.254,-24.871 18.113,-38.09 43.574,-30.891 19.629,5.422 35.977,17.879 50.899,34.891 l -10.594,-86.02 C 889.324,599.41 857.273,587.879 842.07,583.551 775,564.82 727.324,600.578 733.43,665.371 c 6.179,66.539 65.261,134.899 134.258,154.43 19.175,5.429 38.667,7.847 56.289,6.39 l -5.454,-85.781" /><path
         id="path68"
         style="fill:#ffffff;fill-opacity:1;fill-rule:nonzero;stroke:none"
         d="m 548.605,436.852 c -0.878,-9.102 -7.257,-17.891 -14.289,-20.493 -6.711,-1.621 -11.535,4.469 -10.832,13.563 0.434,9.328 6.809,18.117 13.743,19.469 7.058,2.828 12.16,-3.442 11.378,-12.539" /><path
         id="path70"
         style="fill:#ffffff;fill-opacity:1;fill-rule:nonzero;stroke:none"
         d="m 585.066,447.34 c -0.632,-9.238 -6.961,-18.031 -13.992,-20.379 -7.004,-2.27 -11.57,4.16 -10.945,12.91 0.926,9.129 6.785,17.918 13.887,20.09 6.843,2.34 11.98,-3.582 11.05,-12.621" /><path
         id="path72"
         style="fill:#ffffff;fill-opacity:1;fill-rule:nonzero;stroke:none"
         d="m 609.07,351.359 c -3.992,-48.3 -34.656,-85.531 -69.59,-95.121 -34.851,-9.797 -60.82,11.801 -56.714,59.973 3.867,47.148 34.871,85.641 69.707,95.469 34.5,9.761 60.418,-13.211 56.597,-60.321" /><path
         id="path74"
         style="fill:#26262a;fill-opacity:1;fill-rule:nonzero;stroke:none"
         d="m 524.375,327.059 c -1.484,-17.438 6.523,-26.52 18.879,-23.399 12.508,3.5 22.422,17.981 23.902,34.75 1.282,16.469 -5.801,27.512 -18.855,23.649 -12.957,-3.61 -22.422,-19.348 -23.926,-35" /><path
         id="path76"
         style="fill:#ffffff;fill-opacity:1;fill-rule:nonzero;stroke:none"
         d="m 629.863,430.969 41.438,11.152 -8.488,-101.91 34.687,9.699 -3.977,-48.469 -76.218,-20.742 12.558,150.27" /><path
         id="path78"
         style="fill:#ffffff;fill-opacity:1;fill-rule:nonzero;stroke:none"
         d="m 716.887,455.23 39.843,10.598 30.235,-73.039 h 0.996 c -0.41,12.621 -1.242,24.922 -0.219,37.93 l 4.028,45 39.546,10.953 -12.507,-150.121 -39.707,-10.949 -29.727,68.648 -1.582,-0.289 c 0.449,-10.102 0.93,-19.289 0,-29.59 l -4.07,-49.012 -39.297,-10.66 12.461,150.531" /><path
         id="path80"
         style="fill:#ffffff;fill-opacity:1;fill-rule:nonzero;stroke:none"
         d="m 381.602,361.77 40.234,11.179 -6.602,-65.578 0.977,0.301 c 1.66,6.379 4.543,12.5 7.305,18.726 l 23.984,53.813 45.254,12.437 -41.863,-83.027 33.172,-66.441 -47.989,-13.399 -16.191,40.367 c -1.914,4.922 -4.949,9.493 -5.11,15.274 l -1.121,-0.25 -4.472,-62.891 -40.235,-10.941 12.657,150.43" /></g></g></svg>