<?xml version="1.0" encoding="utf-8"?>
<!-- Generator: Adobe Illustrator 20.1.0, SVG Export Plug-In . SVG Version: 6.00 Build 0)  -->
<!DOCTYPE svg PUBLIC "-//W3C//DTD SVG 1.1//EN" "http://www.w3.org/Graphics/SVG/1.1/DTD/svg11.dtd">
<svg version="1.1" id="Ebene_1" xmlns="http://www.w3.org/2000/svg" xmlns:xlink="http://www.w3.org/1999/xlink" x="0px" y="0px"
	 viewBox="0 0 323.1 371.3" style="enable-background:new 0 0 323.1 371.3;" xml:space="preserve">
<style type="text/css">
	.st0{fill-rule:evenodd;clip-rule:evenodd;fill:#FFFFFF;}
	.st1{fill:#0068B2;}
	.st2{fill-rule:evenodd;clip-rule:evenodd;fill:#0068B2;}
</style>
<path class="st0" d="M318.8,208.9c0,87.1-70.6,157.8-157.2,157.8C75,366.7,4.4,296.1,4.4,209l0-204.3h314.4V208.9z"/>
<path class="st1" d="M320.8,208.9c0,44.1-17.9,84-46.6,112.9c-28.8,28.9-68.7,46.9-112.5,46.9c-43.9,0-83.7-17.9-112.5-46.9
	C20.3,292.9,2.4,253,2.4,209l0-204.3l0-2h2h314.4h2v2V208.9L320.8,208.9z M271.3,319c28.1-28.2,45.5-67.1,45.5-110.1V6.7H6.4
	l0,202.3c0,43,17.4,81.9,45.4,110.1c28.1,28.2,66.9,45.7,109.7,45.7C204.3,364.7,243.2,347.2,271.3,319z"/>
<path class="st2" d="M311,207.8c0,82.9-67.1,150-149.4,150c-82.3,0-149.4-67.1-149.4-149.9l0-194.2H311V207.8z"/>
<path class="st0" d="M312.1,208c0,83.3-66,150.7-149.8,150.7l0-346h149.8V208z"/>
<rect x="127.4" y="41.4" class="st0" width="28.1" height="89.4"/>
<rect x="155" y="41.4" class="st0" width="9.3" height="12.1"/>
<rect x="154.9" y="82" class="st0" width="9.3" height="12.1"/>
<g>
	<polygon class="st2" points="162.3,41.4 194.8,41.4 194.8,53.4 162.5,53.6 	"/>
	<polygon class="st2" points="162.2,82.2 194.7,82.2 194.7,94.2 162.4,94.3 	"/>
</g>
<g>
	<polygon class="st0" points="50.3,131 78.4,131 78.4,41.6 50.3,44.3 	"/>
	<polygon class="st0" points="78.6,41.3 29.8,46.5 29.8,57.9 78.5,52.4 	"/>
</g>
<path class="st0" d="M100.1,135.9c6.7,0,12.2-5.5,12.2-12.2c0-6.7-5.5-12.2-12.2-12.2c-6.7,0-12.2,5.5-12.2,12.2
	C87.9,130.4,93.4,135.9,100.1,135.9z"/>
<path class="st2" d="M292.9,96.8l-26.3,0.1c-0.9,14.7-4.7,24.4-17.6,24.5c-15.4,0.2-18.7-15.6-18.7-35s4.3-35.7,18.7-35.5
	c13.6,0.2,15.6,7.8,17.5,19.9l25.5-0.1c-6.3-17.1-23.3-29.3-42.6-29.3c-24.7,0-44.9,20.1-44.9,44.7c0,24.6,20.1,44.7,44.9,44.7
	C270.4,130.9,288.1,116.3,292.9,96.8z"/>
<path class="st0" d="M25.8,210.2l24.3,0c1.1,0,2.6,0.1,4.4,0.2c1.8,0.2,3.7,0.4,5.8,0.7c-2-0.7-4.6-1.8-7.8-3.3l-0.4-0.2l-27.1-13.1
	L52,181.7c0.2-0.1,0.6-0.3,1.2-0.5c2.7-1.3,5.1-2.3,7-2.9c-2.2,0.3-4.2,0.6-6,0.7c-1.7,0.2-3.1,0.3-4.1,0.3l-24.3,0l0-11l47.8,0.1
	l0,14.8l-26.3,11.7l26.2,12.4l0,14.2l-47.8-0.1L25.8,210.2L25.8,210.2z M27.2,236.8l50.5-1.8l5.3,13.8l-38.8,32.5l-4.6-11.9l5.8-4.3
	L38.9,248l-7.2,0.7L27.2,236.8L27.2,236.8z M48.3,247.3l4.6,12l18.4-14L48.3,247.3L48.3,247.3z M102.5,291.8l11.7,0
	c0-3.8-0.8-7.2-2.3-10.4c-1.5-3.2-3.7-6-6.6-8.6c-2.7-2.3-5.6-4.1-8.6-5.2s-6.2-1.5-9.5-1.3c-3.3,0.2-6.4,1.1-9.2,2.6
	c-2.9,1.5-5.5,3.6-7.8,6.2c-2.3,2.7-4,5.5-5.1,8.6c-1.1,3.1-1.5,6.2-1.2,9.5c0.2,3.3,1.1,6.4,2.6,9.3c1.5,2.9,3.6,5.5,6.2,7.8
	c3.6,3.1,7.4,5.1,11.3,5.9c4,0.8,8.3,0.6,13-0.8c1.7-0.5,3.6-1.4,5.6-2.8c2-1.4,3.8-3,5.5-4.9c0.2-0.3,0.5-0.7,0.9-1.2
	c0.4-0.5,0.7-0.9,0.8-1.1l-18.7-16.3l-6,6.9l9.3,8.1c-2.5,1.3-5,1.8-7.6,1.5c-2.6-0.3-4.9-1.5-7.2-3.4c-2.8-2.5-4.3-5.5-4.4-9.1
	c-0.1-3.6,1.2-6.9,4-10c2.7-3.1,5.9-4.9,9.4-5.3c3.5-0.4,6.7,0.6,9.6,3.1c1.7,1.4,2.9,3.1,3.6,4.9
	C102.5,287.7,102.8,289.7,102.5,291.8L102.5,291.8z M124.9,328l3.5,1c3.7,1.1,6.9,0.7,9.8-1.1c2.9-1.8,5-4.8,6.2-9
	c1.3-4.3,1.2-8-0.2-11c-1.4-3-4.1-5.1-7.9-6.3l-3.2-1L124.9,328L124.9,328z M110.6,333.9l13.7-46l14.1,4.2c3.2,1,5.9,2,8,3.2
	c2.1,1.2,3.8,2.5,5.2,4c2.8,3.2,4.5,6.7,5.3,10.6c0.8,3.9,0.5,8-0.8,12.4c-1.3,4.2-3.3,7.8-6.1,10.6c-2.8,2.8-6.3,4.9-10.5,6.1
	c-1.8,0.5-4,0.7-6.4,0.5c-2.5-0.2-5.2-0.7-8.3-1.6L110.6,333.9z"/>
<path class="st2" d="M172.2,345.6l-8-45.3l25.4-4.5l1.5,8.8l-14,2.5l1.6,9.3l14-2.5l1.5,8.8l-14,2.5l1.6,9.3l14-2.5l1.6,9.2
	L172.2,345.6L172.2,345.6z M215.8,334.3l13.8-8c4.4-2.5,7.2-5.5,8.3-8.8c1.2-3.3,0.6-6.9-1.6-10.7c-1.3-2.2-2.9-3.8-4.8-4.7
	c-1.9-0.9-4.1-1.1-6.4-0.6c1.2-1.8,1.9-3.7,1.9-5.7c0-2-0.5-4-1.6-5.9c-1.9-3.3-4.5-5.3-7.7-6c-3.2-0.7-6.7,0-10.3,2.1l-14.6,8.4
	L215.8,334.3L215.8,334.3z M211.6,305.6l-5.5-9.5l1.6-0.9c2.2-1.3,4-1.8,5.3-1.6c1.4,0.2,2.5,1.1,3.5,2.8c0.9,1.5,1.1,3,0.7,4.3
	c-0.4,1.3-1.5,2.5-3.2,3.5L211.6,305.6L211.6,305.6z M220.7,321.4l-5.7-10l2.4-1.4c1.9-1.1,3.6-1.5,5.1-1.2c1.5,0.3,2.7,1.2,3.6,2.8
	c0.9,1.5,1.1,3,0.8,4.4c-0.4,1.4-1.3,2.6-2.9,3.5L220.7,321.4L220.7,321.4z M227.7,270.6l20.1,15.7c3.1,2.4,5.7,3.8,7.8,4
	c2.1,0.2,3.9-0.7,5.4-2.7c1.6-2,2-4,1.3-5.9c-0.7-2-2.6-4.2-5.8-6.6l-20.1-15.7l7.1-9.1l23.3,18.2c4.3,3.4,6.6,7.3,7,11.8
	c0.4,4.5-1.2,9.1-4.8,13.7c-3.6,4.6-7.6,7.3-12.1,8c-4.5,0.7-8.8-0.6-13.1-3.9l-23.3-18.2L227.7,270.6L227.7,270.6z M268.1,182.1
	c-1.7,1.1-3,2.6-3.9,4.3c-0.9,1.7-1.3,3.6-1.3,5.7c0,3.6,1.3,6.6,3.8,8.9c2.5,2.3,5.8,3.5,9.8,3.5c4,0,7.3-1.2,9.8-3.5
	c2.5-2.3,3.8-5.3,3.8-8.9c0-2.8-0.7-5.2-2.1-7.3c-1.4-2.1-3.3-3.6-5.9-4.6V192h-8.8v-23.8c0.2,0,0.7,0,1.3-0.1
	c0.6-0.1,1.1-0.1,1.5-0.1c2.4,0,4.7,0.3,7,0.9c2.3,0.6,4.2,1.3,5.6,2.3c3.9,2.5,6.9,5.5,8.8,8.9c1.9,3.4,2.9,7.4,2.9,11.9
	c0,3.4-0.6,6.5-1.7,9.5c-1.2,2.9-2.9,5.5-5.1,7.8c-2.2,2.2-4.7,3.9-7.6,5.1c-2.9,1.2-6,1.7-9.4,1.7c-3.4,0-6.6-0.6-9.5-1.7
	c-2.9-1.2-5.5-2.8-7.7-5.1c-2.2-2.2-3.9-4.8-5-7.7c-1.1-2.9-1.7-6.1-1.7-9.5c0-3.8,0.7-7.2,2-10.2c1.4-3.1,3.4-5.8,6.1-8.2
	L268.1,182.1z M290.1,257.1l2.4-11.3l-19.1-4.1l21.2-5.8l2.9-13.6l-20.9,7.8c0.4-3.1-0.3-5.8-2.1-8.1c-1.8-2.2-4.4-3.7-7.9-4.5
	c-4.4-0.9-8.2-0.2-11.5,2.2c-3.2,2.4-5.4,6.1-6.5,11.2l-3.5,16.5L290.1,257.1L290.1,257.1z M256.9,235.1l-0.7,3.1l12.4,2.6l0.7-3.4
	c0.5-2.2,0.3-3.9-0.6-5.4c-0.8-1.4-2.3-2.3-4.3-2.8c-2.1-0.4-3.7-0.2-5,0.8C258.3,231,257.4,232.7,256.9,235.1L256.9,235.1z"/>
</svg>
