<?xml version="1.0" encoding="utf-8"?>
<!-- Generator: Adobe Illustrator 13.0.0, SVG Export Plug-In . SVG Version: 6.00 Build 14948)  -->
<!DOCTYPE svg PUBLIC "-//W3C//DTD SVG 1.0//EN" "http://www.w3.org/TR/2001/REC-SVG-20010904/DTD/svg10.dtd">
<svg version="1.0" id="HQFL" xmlns="http://www.w3.org/2000/svg" xmlns:xlink="http://www.w3.org/1999/xlink" x="0px" y="0px"
	 width="348.735px" height="403.014px" viewBox="0 0 348.735 403.014" enable-background="new 0 0 348.735 403.014"
	 xml:space="preserve">
<path fill="#E32219" d="M331.534,19.001L324.614,0l-19.682,4.644c-76.29,18-128.712,15.382-129.233,15.354l-1.247-0.068
	l-1.321,0.068c-0.521,0.028-52.944,2.647-129.234-15.354L24.213,0l-6.918,19.004c-0.176,0.484-4.36,12.065-8.512,30.891
	L5.057,66.792l15.289,8.103c11.548,6.121,18.723,18.022,18.723,31.061c0,14.537-9.141,27.75-22.747,32.877L0,144.985l1.705,17.359
	c4.432,45.146,17.959,86.562,40.205,123.099c27.585,45.306,68.519,82.885,121.664,111.693l10.842,5.877l10.842-5.877
	c53.793-29.159,95.061-67.292,122.659-113.339c22.162-36.977,35.451-78.875,39.5-124.53
	C354.231,82.424,332.463,21.555,331.534,19.001z"/>
<g>
	<path fill="#006AB2" d="M307.52,214.819c2.7-8.667,4.974-17.544,6.805-26.626H34.594c1.826,9.079,4.08,17.961,6.769,26.626H307.52z
		"/>
	<path fill="#006AB2" d="M64.941,268.072h218.958c5.086-8.578,9.64-17.461,13.667-26.626H51.282
		C55.3,250.614,59.855,259.494,64.941,268.072z"/>
	<path fill="#006AB2" d="M107.245,321.325h134.342c8.739-8.45,16.77-17.328,24.074-26.626H83.175
		C90.479,303.996,98.507,312.875,107.245,321.325z"/>
	<path fill="#006AB2" d="M174.414,370.357c12.557-6.949,24.335-14.426,35.334-22.406h-70.667
		C150.08,355.931,161.858,363.408,174.414,370.357z"/>
</g>
<path fill="none" stroke="#FFFFFF" stroke-width="11.83" d="M310.157,26.787c-80.99,19.11-135.742,15.925-135.742,15.925
	s-54.752,3.185-135.742-15.925c0,0-3.798,10.435-7.673,28.008c18.327,9.713,30.819,28.975,30.819,51.162
	c0,24.781-15.579,45.914-37.473,54.166c7.081,72.112,41.551,158.189,150.07,217.015C394.332,257.926,310.157,26.787,310.157,26.787z
	"/>
<g>
	<path fill="#FFFFFF" d="M106.801,281.848v-7.456h-1.991v-3.271h9.186v3.271h-2.076v6.855c0,0.854,0.265,1.504,0.793,1.948
		s1.3,0.667,2.313,0.667c1.013,0,1.782-0.222,2.306-0.667s0.787-1.095,0.787-1.948v-6.855h-2.047v-3.271h9.128v3.271h-1.962v7.456
		c0,1.838-0.736,3.292-2.207,4.361s-3.478,1.605-6.019,1.605c-2.533,0-4.535-0.536-6.005-1.605S106.801,283.686,106.801,281.848z"/>
	<path fill="#FFFFFF" d="M131.667,279.845c0.359-0.279,0.861-0.419,1.507-0.419c0.637,0,1.13,0.137,1.48,0.412
		c0.35,0.275,0.551,0.688,0.604,1.237h-4.208C131.103,280.534,131.309,280.124,131.667,279.845z M135.126,283.691
		c-0.257,0.317-0.554,0.553-0.89,0.708c-0.336,0.154-0.721,0.231-1.155,0.231c-0.549,0-1.012-0.166-1.388-0.494
		c-0.376-0.331-0.591-0.762-0.644-1.297h8.789c0-0.054,0.004-0.133,0.013-0.24c0.009-0.106,0.013-0.186,0.013-0.239
		c0-1.746-0.628-3.17-1.885-4.27c-1.256-1.099-2.87-1.649-4.841-1.649c-2.104,0-3.823,0.53-5.154,1.587
		c-1.332,1.058-1.998,2.412-1.998,4.065c0,1.715,0.654,3.089,1.964,4.12c1.31,1.031,3.047,1.546,5.213,1.546
		c1.296,0,2.474-0.247,3.535-0.742s1.964-1.224,2.71-2.185L135.126,283.691z"/>
	<path fill="#FFFFFF" d="M147.632,278.53l0.202-0.04c0.204-0.632,0.534-1.12,0.991-1.458c0.457-0.339,1.004-0.508,1.643-0.508
		c0.772,0,1.397,0.211,1.876,0.635c0.479,0.424,0.719,0.974,0.719,1.652c0,0.643-0.246,1.17-0.738,1.584
		c-0.493,0.415-1.121,0.622-1.883,0.622c-0.586,0-1.089-0.146-1.51-0.436c-0.421-0.292-0.77-0.731-1.044-1.322l-0.256,0.067v4.903
		h1.621v3.27h-8.076v-3.27h1.592v-4.266h-1.592v-3.271h6.455V278.53z"/>
	<path fill="#FFFFFF" d="M159.378,280.687c0.475-0.386,1.083-0.579,1.821-0.579c0.72,0,1.33,0.2,1.828,0.6
		c0.498,0.398,0.747,0.887,0.747,1.462c0,0.595-0.247,1.086-0.74,1.478c-0.494,0.389-1.105,0.584-1.834,0.584
		c-0.738,0-1.346-0.193-1.821-0.579c-0.476-0.385-0.714-0.879-0.714-1.483C158.665,281.567,158.902,281.072,159.378,280.687z
		 M161.793,274.392h1.621v3.487c-0.489-0.479-1.047-0.839-1.674-1.079c-0.627-0.24-1.314-0.361-2.061-0.361
		c-1.735,0-3.166,0.531-4.296,1.593c-1.129,1.062-1.694,2.42-1.694,4.073c0,1.6,0.6,2.941,1.801,4.026
		c1.201,1.084,2.668,1.626,4.402,1.626c0.801,0,1.505-0.132,2.115-0.393c0.609-0.261,1.149-0.662,1.621-1.203v1.34h6.214v-3.27
		h-1.564v-13.082h-6.484V274.392z"/>
	<path fill="#FFFFFF" d="M171.592,275.216v-3.498h5.886v3.498H171.592z M177.478,284.231h1.394v3.27h-7.849v-3.27h1.593v-4.266
		h-1.593v-3.271h6.455V284.231z"/>
	<path fill="#FFFFFF" d="M186.729,278.085c0.685-0.562,1.354-0.977,2.008-1.244c0.652-0.268,1.313-0.402,1.98-0.402
		c0.729,0,1.362,0.096,1.9,0.286c0.538,0.191,0.972,0.473,1.301,0.846c0.195,0.222,0.335,0.494,0.419,0.813
		c0.085,0.32,0.127,0.83,0.127,1.532v0.281v4.033h1.564v3.27h-6.427v-5.864c0-0.689-0.098-1.164-0.292-1.423
		c-0.195-0.261-0.528-0.391-0.998-0.391c-0.576,0-0.984,0.164-1.224,0.491c-0.238,0.327-0.359,0.924-0.359,1.792v2.125h1.394v3.27
		h-7.849v-3.27h1.593v-4.266h-1.593v-3.271h6.455V278.085z"/>
	<path fill="#FFFFFF" d="M202.755,280.714c0.476-0.385,1.082-0.578,1.821-0.578c0.721,0,1.33,0.199,1.828,0.599
		c0.498,0.398,0.747,0.887,0.747,1.463c0,0.595-0.248,1.086-0.741,1.478c-0.493,0.389-1.104,0.584-1.834,0.584
		c-0.739,0-1.345-0.193-1.821-0.579c-0.477-0.386-0.714-0.88-0.714-1.483C202.041,281.596,202.278,281.1,202.755,280.714z
		 M211.653,279.965h1.564v-3.271h-6.427v1.157c-0.525-0.479-1.089-0.829-1.695-1.051c-0.604-0.222-1.285-0.333-2.041-0.333
		c-1.752,0-3.188,0.526-4.31,1.578c-1.12,1.053-1.68,2.412-1.68,4.081c0,1.597,0.541,2.868,1.621,3.814
		c1.081,0.945,2.546,1.417,4.396,1.417c0.755,0,1.436-0.09,2.041-0.272c0.605-0.182,1.161-0.459,1.668-0.831
		c0.026,0.167,0.042,0.29,0.047,0.365c0.003,0.076,0.006,0.153,0.006,0.232c0,0.771-0.294,1.352-0.88,1.742
		s-1.468,0.585-2.642,0.585c-0.846,0-1.692-0.092-2.542-0.277c-0.849-0.186-1.706-0.472-2.568-0.86v3.3
		c0.658,0.284,1.49,0.501,2.494,0.653c1.004,0.15,2.121,0.227,3.347,0.227c1.253,0,2.385-0.129,3.394-0.386
		c1.008-0.258,1.807-0.618,2.393-1.079c0.658-0.516,1.125-1.145,1.4-1.885c0.276-0.742,0.414-1.778,0.414-3.109V279.965z"/>
	<path fill="#FFFFFF" d="M220.02,279.845c0.358-0.279,0.861-0.419,1.507-0.419c0.636,0,1.131,0.137,1.48,0.412
		c0.349,0.275,0.551,0.688,0.604,1.237h-4.209C219.455,280.534,219.661,280.124,220.02,279.845z M223.479,283.691
		c-0.258,0.317-0.554,0.553-0.891,0.708c-0.336,0.154-0.721,0.231-1.154,0.231c-0.55,0-1.013-0.166-1.388-0.494
		c-0.377-0.331-0.591-0.762-0.644-1.297h8.789c0-0.054,0.004-0.133,0.013-0.24c0.009-0.106,0.014-0.186,0.014-0.239
		c0-1.746-0.628-3.17-1.885-4.27c-1.257-1.099-2.87-1.649-4.84-1.649c-2.105,0-3.823,0.53-5.154,1.587
		c-1.333,1.058-1.998,2.412-1.998,4.065c0,1.715,0.655,3.089,1.964,4.12c1.309,1.031,3.047,1.546,5.214,1.546
		c1.296,0,2.474-0.247,3.536-0.742c1.061-0.495,1.964-1.224,2.709-2.185L223.479,283.691z"/>
	<path fill="#FFFFFF" d="M235.984,278.085c0.684-0.562,1.354-0.977,2.006-1.244c0.654-0.268,1.313-0.402,1.981-0.402
		c0.729,0,1.362,0.096,1.9,0.286c0.537,0.191,0.971,0.473,1.299,0.846c0.196,0.222,0.336,0.494,0.421,0.813
		c0.083,0.32,0.126,0.83,0.126,1.532v0.281v4.033h1.564v3.27h-6.427v-5.864c0-0.689-0.098-1.164-0.293-1.423
		c-0.194-0.261-0.527-0.391-0.997-0.391c-0.576,0-0.983,0.164-1.223,0.491c-0.24,0.327-0.359,0.924-0.359,1.792v2.125h1.393v3.27
		h-7.849v-3.27h1.593v-4.266h-1.593v-3.271h6.456V278.085z"/>
</g>
<g>
	<path fill="#FFFFFF" d="M169.917,338.018c-0.219,0.391-0.588,0.586-1.104,0.586c-0.505,0-0.866-0.196-1.084-0.586
		c-0.219-0.393-0.327-1.069-0.327-2.028v-3.746c0-0.945,0.111-1.62,0.333-2.021c0.222-0.403,0.581-0.604,1.078-0.604
		c0.51,0,0.877,0.198,1.099,0.593c0.222,0.396,0.333,1.073,0.333,2.033v3.746C170.245,336.949,170.136,337.625,169.917,338.018z
		 M163.683,338.613c0.118,0.555,0.319,1.049,0.601,1.479c0.497,0.755,1.129,1.332,1.896,1.728c0.767,0.396,1.644,0.595,2.629,0.595
		c1,0,1.891-0.199,2.669-0.595c0.778-0.396,1.416-0.973,1.912-1.728c0.274-0.43,0.473-0.914,0.595-1.452s0.183-1.376,0.183-2.518
		v-4.034c0-1.14-0.061-1.979-0.183-2.515s-0.321-1.016-0.595-1.439c-0.49-0.754-1.124-1.327-1.902-1.716
		c-0.778-0.388-1.671-0.583-2.68-0.583c-0.994,0-1.874,0.195-2.641,0.583c-0.768,0.389-1.396,0.962-1.885,1.716
		c-0.282,0.43-0.482,0.92-0.601,1.473c-0.119,0.551-0.178,1.379-0.178,2.481v4.034C163.505,337.227,163.564,338.056,163.683,338.613
		z"/>
	<path fill="#FFFFFF" d="M176.237,336.698h3.753v0.287c0,0.737,0.107,1.252,0.322,1.546c0.213,0.295,0.568,0.442,1.063,0.442
		c0.428,0,0.754-0.151,0.979-0.453c0.226-0.301,0.338-0.736,0.338-1.302v-1.302c0-0.49-0.137-0.839-0.414-1.043
		c-0.276-0.205-0.765-0.308-1.462-0.308h-4.152v-8.417h9.124v3.413h-5.768v2.024c0.444-0.186,0.897-0.324,1.36-0.413
		c0.462-0.089,0.934-0.133,1.414-0.133c1.309,0,2.269,0.334,2.879,1.002c0.611,0.668,0.916,1.714,0.916,3.138v2.214
		c0,1.708-0.434,2.97-1.305,3.791c-0.87,0.82-2.208,1.229-4.015,1.229c-1.815,0-3.11-0.35-3.888-1.052
		c-0.778-0.702-1.166-1.872-1.166-3.512c0-0.162,0.001-0.341,0.006-0.537C176.225,337.118,176.23,336.913,176.237,336.698z"/>
</g>
<path fill="#FFFFFF" d="M235.869,87.404l-0.79,1.352c-1.212,2.074-2.696,3.616-4.409,4.585c-1.723,0.974-3.835,1.468-6.276,1.468
	c-3.299,0-5.946-1.06-8.094-3.239c-2.158-2.19-3.207-4.9-3.207-8.287c0-3.525,1.064-6.29,3.252-8.451
	c2.198-2.172,4.997-3.228,8.552-3.228c2.632,0,4.787,0.568,6.585,1.737c1.77,1.151,3.078,2.802,3.994,5.046l0.694,1.697h18.215
	V54.678h-18.085c0,0,0,1.182,0,1.973c-0.903-0.499-1.834-0.958-2.825-1.332c-2.813-1.059-5.908-1.596-9.199-1.596
	c-4.016,0-7.819,0.606-11.303,1.801c-2.35,0.807-4.562,1.899-6.632,3.219c0-0.416,0-4.065,0-4.065H93.917V70.41c0,0,4.332,0,5.915,0
	c0,4.104,0,21.489,0,25.594c-1.583,0-5.915,0-5.915,0v15.731h55.624V96.003c0,0-4.846,0-6.202,0
	c-1.278-1.496-9.313-10.892-11.593-13.557c2.257-2.555,9.387-10.624,10.635-12.037c1.022,0,12.571,0,16.411,0
	c0,4.104,0,21.489,0,25.594c-1.365,0-5.46,0-5.46,0v15.731h32.191V96.003c0,0-5.074,0-7.166,0c0-2.094,0-3.554,0-5.647
	c2.888,0,10.01,0,10.01,0V73.43c0,0-7.122,0-10.01,0c0-1.318,0-1.702,0-3.02c3.302,0,10.005,0,13.452,0
	c-0.126,2.438-0.427,8.241-0.427,8.241s0.9,0,1.73,0c-0.234,1.502-0.38,3.032-0.38,4.595c0,4.341,0.923,8.463,2.743,12.252
	c1.811,3.768,4.468,7.15,7.9,10.051c2.879,2.375,6.109,4.171,9.625,5.364c3.483,1.18,7.287,1.778,11.305,1.778
	c7.334,0,13.816-1.94,19.269-5.768c5.487-3.853,9.35-9.225,11.479-15.967l1.123-3.552H235.869z M242.005,104.688
	c-5.008,3.516-10.909,5.272-17.7,5.272c-3.739,0-7.214-0.545-10.428-1.633c-3.213-1.09-6.126-2.71-8.739-4.864
	c-3.153-2.665-5.553-5.714-7.202-9.147c-1.649-3.434-2.474-7.124-2.474-11.071c0-2.56,0.34-5.001,1.011-7.325h-2.216l0.427-8.241
	h-19.057v8.48h10.01v11.466h-10.01v11.107h7.166v10.271h-26.731V98.733h5.459V67.68h-16.91h-3.462l-13.021,14.737l13.952,16.316
	h4.729v10.271h-22.978V98.733h3.331l-11.862-14.211v14.211h4.664v10.271H96.647V98.733h5.915V67.68h-5.915V57.408h23.319V67.68
	h-4.664v14.036l11.596-14.036h-3.064V57.408h20.779h58.998v6.923c0.487-0.47,0.987-0.934,1.518-1.383
	c2.611-2.127,5.521-3.742,8.73-4.843c3.21-1.101,6.682-1.653,10.417-1.653c2.977,0,5.723,0.474,8.236,1.42
	c2.514,0.948,4.687,2.342,6.518,4.184v-4.648h12.626v19.946h-13.652c-1.123-2.749-2.801-4.85-5.033-6.303
	c-2.234-1.451-4.925-2.177-8.073-2.177c-4.271,0-7.762,1.34-10.471,4.016c-2.708,2.676-4.063,6.142-4.063,10.393
	c0,4.1,1.329,7.5,3.992,10.203c2.663,2.702,6.007,4.053,10.039,4.053c2.93,0,5.471-0.607,7.619-1.821
	c2.149-1.215,3.957-3.076,5.423-5.584h15.015C250.496,96.322,247.014,101.172,242.005,104.688z M121.33,96.003
	c-0.682,0-2.359,0-3.298,0c0-1.227,0-1.982,0-3.95C119.623,93.96,119.906,94.298,121.33,96.003z M121.101,70.41
	c-1.332,1.612-1.577,1.909-3.069,3.714c0-1.845,0-2.55,0-3.714c0.939,0,1.934,0,1.934,0S120.549,70.41,121.101,70.41z"/>
<circle fill="#FFFFFF" cx="174.415" cy="186.037" r="61.88"/>
<circle fill="none" stroke="#000000" stroke-width="1.82" cx="174.415" cy="186.037" r="61.88"/>
<circle fill="none" stroke="#000000" stroke-width="1.82" cx="174.415" cy="186.037" r="54.454"/>
<path d="M171.7,124.217l-3.048,7.667c0,0,5.763,3.193,18.503,11.382c0,0,4.765,1.393,21.645,0.545c0,0,2.246-5.146,1.123-8.457
	C209.923,135.354,197.194,124.217,171.7,124.217z"/>
<path d="M233.253,166.831l-10.684-6.234c0,0-2.579,17.174-9.024,23.62c0,0,12.664,4.778,10.75,23.852c0,0,3.919-9.236,10.689-10.429
	C234.985,197.639,238.932,179.931,233.253,166.831z"/>
<path d="M209.371,237.101c0,0-0.936-6.075,0.709-9.915c0,0-12.611,1.923-21.711-0.807c0,0-12.479,10.61-22.166,13.495
	c0,0,3.945,3.064,5.472,7.979C171.675,247.854,193.442,249.264,209.371,237.101z"/>
<path d="M115.87,165.945l5.638,7.165c0,0,6.194-8.913,17.721-11.644c0,0-1.854-13.935,4.909-20.696l-9.075-2.56
	C135.063,138.21,123.754,145.55,115.87,165.945z"/>
<path d="M136.508,234.949l8.925-2.803l-0.44-0.609c0,0-6.37-14.864-3.64-24.57c0,0-14.69-3.972-19.63-7.143l-6.2,2.157l-0.834,0.291
	c0,0,5.127,21.075,21.811,31.995"/>
<path fill="none" stroke="#000000" stroke-width="1.82" d="M135.285,157.827c0,0,7.887,9.403,21.537,16.38"/>
<path fill="none" stroke="#000000" stroke-width="1.82" d="M189.279,139.323c0,0-6.674,13.347-9.707,26.693"/>
<path fill="none" stroke="#000000" stroke-width="1.82" d="M137.105,209.089c0,0,9.707-5.157,21.233-15.167"/>
<path d="M153.789,197.26l-0.607-25.479c0,0,12.437-9.404,27.907-9.404c0,0,11.526,7.886,16.683,21.536
	c0,0-13.953,17.898-15.773,22.751C181.999,206.664,164.405,203.023,153.789,197.26"/>
<path fill="none" stroke="#000000" stroke-width="1.82" d="M189.885,229.716c0,0-6.977-15.167-10.01-32.153"/>
<path fill="none" stroke="#000000" stroke-width="1.82" d="M192.919,183.61c0,0,14.408-2.351,27.906,1.82"/>
</svg>
