<?xml version="1.0" encoding="utf-8"?>
<!-- Generator: Adobe Illustrator 13.0.0, SVG Export Plug-In . SVG Version: 6.00 Build 14948)  -->
<!DOCTYPE svg PUBLIC "-//W3C//DTD SVG 1.0//EN" "http://www.w3.org/TR/2001/REC-SVG-20010904/DTD/svg10.dtd">
<svg version="1.0" xmlns="http://www.w3.org/2000/svg" xmlns:xlink="http://www.w3.org/1999/xlink" x="0px" y="0px"
	 width="400.085px" height="378.158px" viewBox="0 0 400.085 378.158" enable-background="new 0 0 400.085 378.158"
	 xml:space="preserve">
<g id="HQFL">
	<path d="M346.338,131.657c-6.294,15.68-12.973,29.772-17.178,38.45c-12.958,26.753-28.049,52.661-44.14,76.345
		c-11.577,17.039-24.167,33.057-38.056,47.539c-16.122,16.816-32.74,26.407-46.922,26.233c-14.182,0.183-30.8-9.41-46.922-26.224
		c-13.889-14.484-26.479-30.501-38.055-47.538c-16.092-23.688-31.182-49.595-44.142-76.346c-4.206-8.68-10.885-22.775-17.18-38.458
		L0,152.131c20.17,40.92,37.286,74.449,54.971,102.741c26.956,43.123,50.748,73.019,74.037,92.596
		c23.29,19.578,46.079,28.836,71.034,30.689c24.956-1.854,47.745-11.112,71.034-30.689c23.29-19.578,47.082-49.473,74.038-92.596
		c17.685-28.292,34.801-61.821,54.971-102.741L346.338,131.657z"/>
	<path fill="#AE1839" d="M200.042,0c24.255,0.001,62.301,4.013,98.595,15.387c20.756,6.504,54.557,22.364,61.679,39.351
		c10.974,26.172-19.54,91.396-31.156,115.37c-12.958,26.753-28.049,52.661-44.14,76.345c-11.577,17.039-24.167,33.057-38.056,47.539
		c-16.122,16.816-32.74,26.407-46.922,26.233c-14.182,0.183-30.8-9.41-46.922-26.224c-13.889-14.484-26.479-30.501-38.055-47.538
		c-16.092-23.688-31.182-49.595-44.142-76.346c-11.615-23.974-42.129-89.198-31.155-115.37
		c7.123-16.988,40.924-32.848,61.679-39.353C137.742,4.021,175.787,0.009,200.042,0L200.042,0z"/>
	<path fill="#FFFFFF" d="M199.99,12.049c-18.964-0.4-53.477,3.242-84.188,12.182c-25.232,7.346-54.745,20.27-61.906,34.513
		c-3.955,7.865-3.012,16.411,0.434,31.461c3.63,15.852,10.307,34.772,19.844,56.235c8.012,18.033,17.493,36.786,28.986,57.333
		c11.524,20.601,24.177,38.29,36.134,54.335c24.468,32.834,44.323,48.954,60.7,49.273h0.098
		c16.378-0.328,36.232-16.448,60.698-49.282c11.96-16.049,24.615-33.739,36.135-54.336c11.486-20.534,20.968-39.287,28.985-57.331
		c9.54-21.47,16.217-40.39,19.845-56.235c3.444-15.051,4.389-23.598,0.436-31.463c-7.163-14.242-36.676-27.166-61.907-34.512
		C253.554,15.277,219.046,11.642,199.99,12.049z"/>
	<path fill="#AE1839" d="M282.9,28.978c30.447,8.864,53.553,21.417,58.865,31.982c1.417,2.817,2.046,5.865,2.046,9.542
		c0,4.821-1.082,10.721-2.883,18.591c-3.557,15.535-10.132,34.151-19.541,55.331c-7.957,17.903-17.372,36.524-28.785,56.925
		c-11.381,20.346-23.924,37.878-35.78,53.792c-23.142,31.055-42.243,46.958-56.78,47.283c-14.535-0.316-33.636-16.217-56.777-47.274
		c-11.856-15.911-24.398-33.441-35.784-53.793c-11.418-20.413-20.833-39.034-28.782-56.926
		c-9.409-21.172-15.983-39.789-19.543-55.33c-1.801-7.871-2.882-13.77-2.882-18.59c0-3.676,0.628-6.724,2.044-9.542
		c5.313-10.565,28.42-23.119,58.868-31.982c30.211-8.796,64.101-12.378,82.805-11.987C218.787,16.599,252.671,20.176,282.9,28.978z"
		/>
	<path fill="#FFFFFE" d="M175.649,74.253c-0.089,1.022-0.17,2.046-0.246,3.07c-1.935,26.102,12.176,41.633,12.454,73.71
		c0.113,13.042-3.13,28.822-9.358,49.156c21.544-11.057,44.807,10.237,68.092-2.789c15.517-8.682,20.094-30.559,19.902-46.677
		c-0.288-24.206-9.489-48.504-29.782-62.566C219.335,76.118,196.485,71.484,175.649,74.253L175.649,74.253z M222.032,45.034
		c31.071,5.778,50.105,17.547,62.74,37.754c12.449,19.911,14.163,48.65,9.08,75.21c-4.693,24.526-16.535,54.085-38.154,70.168
		c-11.325,8.422-25.333,13.147-42.402,11.515c-11.813-1.129-20.973-9.073-44.391-9.495c-9.163-0.166-20.512,1.292-35.055,4.05
		c6.228-9.965,9.823-22.971,11.537-35.507c1.767-12.926,1.947-26.406-0.962-39.186c-3.852-16.911-11.405-27.332-12.228-48.176
		c-0.319-8.12,0.277-16.5,1.78-24.726c-16.188,6.665-34.586,17.258-56.737,37.966c0.18-36.247,32.646-60.609,69.659-72.64
		c11.298-18.276,29.042-31.028,53.144-30.375c-8.948,5.965-14.568,13.849-18.178,22.751
		C195.102,42.802,208.895,42.59,222.032,45.034L222.032,45.034z"/>
	<path fill="#FFED00" d="M46.033,143.53c12.148,25.63,29.875,60.894,43.194,83.007l3.408-2.054
		c-13.243-21.987-30.899-57.114-43.007-82.657L46.033,143.53z"/>
	<path fill="#FFED00" d="M37.09,147.469c13.349,27.595,29.57,58.207,44.503,83.982l3.442-1.993
		c-14.886-25.697-31.056-56.211-44.364-83.722L37.09,147.469z"/>
	<path fill="#FFED00" d="M28.179,151.037c12.679,26.211,29.706,58.184,45.545,85.526l3.442-1.993
		c-15.792-27.263-32.767-59.137-45.406-85.266L28.179,151.037z"/>
	<path fill="#FFED00" d="M19.397,154.805c14.168,29.286,33.315,64.06,46.509,86.835l3.441-1.993
		c-13.158-22.714-32.249-57.386-46.37-86.576L19.397,154.805z"/>
	<path fill="#FFED00" d="M11.015,157.942c12.292,25.41,31.296,61.031,47.29,88.636l3.441-1.993
		c-15.948-27.53-34.896-63.045-47.15-88.376L11.015,157.942z"/>
	<path fill="#FFED00" d="M307.45,224.483l3.408,2.054c13.312-22.1,31.041-57.369,43.195-83.007l-3.596-1.704
		C338.344,167.378,320.685,202.509,307.45,224.483z"/>
	<path fill="#FFED00" d="M315.05,229.458l3.441,1.993c14.947-25.801,31.167-56.412,44.502-83.982l-3.581-1.733
		C346.118,173.222,329.949,203.737,315.05,229.458z"/>
	<path fill="#FFED00" d="M322.92,234.57l3.441,1.993c15.838-27.34,32.865-59.312,45.547-85.526l-3.582-1.733
		C355.686,175.435,338.71,207.31,322.92,234.57z"/>
	<path fill="#FFED00" d="M330.737,239.647l3.442,1.993c13.19-22.766,32.333-57.533,46.51-86.835l-3.582-1.733
		C362.979,182.275,343.89,216.94,330.737,239.647z"/>
	<path fill="#FFED00" d="M338.339,244.585l3.442,1.993c15.995-27.604,34.999-63.226,47.289-88.636l-3.581-1.733
		C373.236,181.54,354.287,217.055,338.339,244.585z"/>
</g>
<g id="Ebene_2">
	<g>
		<path fill="#FFED00" d="M74.37,243.672l3.856,5.749c-1.839,1.462-2.936,3.008-3.29,4.639c-0.354,1.631-0.021,3.395,1,5.291
			c1.082,2.008,2.321,3.293,3.719,3.854s2.666,0.535,3.803-0.078c0.73-0.393,1.236-0.942,1.518-1.646
			c0.282-0.705,0.325-1.693,0.13-2.964c-0.14-0.867-0.587-2.773-1.34-5.719c-0.971-3.788-1.216-6.682-0.734-8.681
			c0.679-2.811,2.24-4.875,4.683-6.19c1.573-0.847,3.284-1.193,5.134-1.039s3.584,0.878,5.204,2.17
			c1.62,1.293,3.069,3.125,4.347,5.5c2.087,3.876,2.809,7.251,2.165,10.125c-0.645,2.874-2.359,5.124-5.143,6.749l-3.631-6.087
			c1.443-1.121,2.276-2.308,2.499-3.56c0.222-1.252-0.139-2.756-1.084-4.512c-0.976-1.812-2.112-3.029-3.408-3.654
			c-0.833-0.403-1.649-0.389-2.45,0.042c-0.73,0.394-1.189,1.039-1.375,1.937c-0.237,1.142,0.104,3.422,1.021,6.842
			c0.918,3.419,1.385,6.062,1.402,7.927c0.017,1.865-0.417,3.566-1.301,5.103c-0.885,1.537-2.304,2.83-4.255,3.881
			c-1.77,0.953-3.692,1.354-5.766,1.202c-2.074-0.151-3.972-0.923-5.69-2.316c-1.719-1.394-3.301-3.431-4.746-6.113
			c-2.103-3.904-2.814-7.389-2.137-10.453C69.177,248.606,71.134,245.94,74.37,243.672z"/>
		<path fill="#FFED00" d="M110.757,295.132l2.824,6.627c-3.59,1.696-6.887,2.222-9.892,1.575c-3.005-0.646-5.734-2.396-8.188-5.251
			c-3.036-3.533-4.323-7.473-3.865-11.821c0.459-4.348,2.782-8.321,6.968-11.917c4.428-3.804,8.849-5.616,13.264-5.435
			c4.414,0.182,8.222,2.135,11.424,5.861c2.796,3.254,4.106,6.724,3.928,10.409c-0.098,2.187-0.951,4.498-2.56,6.933l-5.839-4.226
			c1.109-1.5,1.634-3.091,1.575-4.775s-0.703-3.24-1.929-4.667c-1.695-1.972-3.777-2.964-6.248-2.976s-5.291,1.344-8.46,4.068
			c-3.363,2.89-5.24,5.553-5.627,7.989c-0.388,2.437,0.25,4.623,1.913,6.559c1.227,1.427,2.735,2.265,4.526,2.514
			C106.363,296.847,108.424,296.358,110.757,295.132z"/>
		<path fill="#FFED00" d="M115.529,319.203l27.079-22.294l4.501,5.467l-10.658,8.775l8.82,10.712l10.658-8.774l4.501,5.467
			l-27.078,22.295l-4.501-5.468l11.839-9.748l-8.82-10.713l-11.84,9.748L115.529,319.203z"/>
		<path fill="#FFED00" d="M161.865,359.427l1.097-36.044l6.996,1.897l-1.202,24.638l12.494-21.576l8.128,2.204l-0.477,25.255
			l11.607-22.237l6.881,1.866l-17.4,31.624l-7.251-1.967l0.12-27.137l-13.582,23.487L161.865,359.427z"/>
		<path fill="#FFED00" d="M236.625,362.459l-20.476-28.478l21.117-15.182l3.464,4.818l-15.366,11.047l4.54,6.314l14.297-10.28
			l3.449,4.797l-14.296,10.28l5.573,7.751l15.91-11.439l3.45,4.798L236.625,362.459z"/>
		<path fill="#FFED00" d="M277.896,330.699l-27.342-21.97l9.336-11.62c2.348-2.921,4.299-4.847,5.854-5.777s3.281-1.287,5.176-1.074
			s3.651,0.97,5.267,2.269c2.051,1.648,3.262,3.613,3.629,5.893c0.367,2.28-0.239,4.761-1.819,7.439
			c1.656-0.634,3.212-1.005,4.67-1.113c1.457-0.108,3.778,0.034,6.964,0.424l8.017,0.948l-5.305,6.603l-9.157-0.79
			c-3.266-0.291-5.384-0.397-6.357-0.32c-0.973,0.078-1.797,0.326-2.471,0.746c-0.675,0.42-1.522,1.264-2.541,2.532l-0.899,1.119
			l11.414,9.172L277.896,330.699z M266.554,312.5l3.282-4.084c2.128-2.648,3.345-4.392,3.651-5.231
			c0.305-0.838,0.335-1.664,0.087-2.477c-0.247-0.813-0.781-1.548-1.602-2.208c-0.92-0.739-1.86-1.091-2.821-1.055
			c-0.96,0.037-1.875,0.442-2.744,1.218c-0.421,0.398-1.532,1.716-3.33,3.954l-3.462,4.309L266.554,312.5z"/>
		<path fill="#FFED00" d="M308.434,294.681l-29.891-18.352l3.706-6.035l29.891,18.352L308.434,294.681z"/>
		<path fill="#FFED00" d="M323.08,275.124l-30.297-17.673l3.472-5.952l27.467-0.598l-20.233-11.803l3.315-5.683l30.297,17.673
			l-3.581,6.139l-26.882,0.688l19.757,11.525L323.08,275.124z"/>
	</g>
</g>
</svg>
