<?xml version="1.0" encoding="UTF-8" standalone="no"?>
<!-- Created with Inkscape (http://www.inkscape.org/) -->

<svg
   xmlns:svg="http://www.w3.org/2000/svg"
   xmlns="http://www.w3.org/2000/svg"
   version="1.1"
   width="100%"
   height="100%"
   viewBox="0 0 503.7211 566"
   id="svg2"
   style="fill-rule:evenodd">
  <defs
     id="defs4">
    <marker
       markerUnits="strokeWidth"
       refX="0"
       refY="5"
       markerWidth="4"
       markerHeight="3"
       orient="auto"
       viewBox="0 0 10 10"
       id="ArrowEnd">
      <path
         d="M 0,0 10,5 0,10 z"
         id="path7" />
    </marker>
    <marker
       markerUnits="strokeWidth"
       refX="10"
       refY="5"
       markerWidth="4"
       markerHeight="3"
       orient="auto"
       viewBox="0 0 10 10"
       id="ArrowStart">
      <path
         d="M 10,0 0,5 10,10 z"
         id="path10" />
    </marker>
  </defs>
  <g
     transform="translate(-46.9109,-138.967)"
     id="g12">
    <path
       d="m 478.23,298.89 0,-159.923 -358.917,0 0,159.923 -72.4021,0 c 0,274.356 117.9991,355.35 251.8761,406.077 C 432.633,654.24 550.632,573.246 550.632,298.89 l -72.402,0 z"
       id="path14"
       style="fill:#ffffff;stroke:none" />
    <path
       d="m 470.215,306.829 0,-159.772 -342.978,0 0,159.772 -72.2814,0 c 0,258.372 109.9544,339.488 243.8314,389.911 133.846,-50.423 243.679,-131.539 243.679,-389.911 l -72.251,0 z"
       id="path16"
       style="fill:#f9001c;stroke:none" />
    <path
       d="m 135.388,155.042 0,69.397 326.646,0 0,-69.397 -326.646,0 z"
       id="path18"
       style="fill:#ffffff;stroke:none" />
    <path
       d="M 298.727,688.605 C 156.927,640.002 62.4841,541.826 62.4841,313.887 l 65.0259,0 c 4.736,194.151 84.455,250.556 171.217,301.161 86.73,-50.605 166.358,-107.01 171.063,-301.161 l 65.148,0 c 0,227.939 -94.442,326.115 -236.211,374.718"
       id="path20"
       style="fill:#ffffff;stroke:none" />
    <path
       d="m 182.153,214.269 24.711,0 0,-11.491 -11.505,0 0,-7.528 10.352,0 0,-11.597 -10.352,0 0,-6.952 11.505,0 0,-11.384 -24.711,0 0,48.952 z"
       id="path22"
       style="fill:#f9001c;stroke:none" />
    <path
       d="m 415.269,176.701 0,-11.384 -24.347,0 0,48.952 24.347,0 0,-11.491 -11.233,0 0,-7.528 10.11,0 0,-11.597 -10.11,0 0,-6.952 11.233,0 z"
       id="path24"
       style="fill:#f9001c;stroke:none" />
    <path
       d="m 369.793,214.269 13.206,0 0,-48.952 -13.206,0 0,48.952 z"
       id="path26"
       style="fill:#f9001c;stroke:none" />
    <path
       d="m 236.402,177.794 c 0,5.571 1.033,11.202 1.367,16.833 l 0,0.046 -10.686,-29.356 -12.538,0 0,48.952 12.78,0 0,-14.36 c 0,-4.659 -0.576,-9.137 -1.062,-13.797 l 0.121,-0.273 10.018,28.43 12.75,0 0,-48.952 -12.75,0 0,12.477 z"
       id="path28"
       style="fill:#f9001c;stroke:none" />
    <path
       d="m 256.954,214.269 24.468,0 0,-11.491 -11.262,0 0,-7.528 10.23,0 0,-11.597 -10.23,0 0,-6.952 11.262,0 0,-11.384 -24.468,0 0,48.952 z"
       id="path30"
       style="fill:#f9001c;stroke:none" />
    <path
       d="m 321.858,181.573 c 0,-13.038 -8.135,-16.256 -19.762,-16.256 l -12.75,0 0,48.952 13.114,0 0,-13.161 c 0,-2.291 -0.121,-4.766 -0.121,-7.24 l 0.121,-0.045 7.347,20.446 14.358,0 -9.866,-20.446 c 5.404,-2.08 7.559,-6.846 7.559,-12.25 z m -18.487,6.436 -0.911,0 0,-12.234 c 3.886,0 6.314,1.837 6.314,5.92 0,3.279 -1.942,6.314 -5.403,6.314 z"
       id="path32"
       style="fill:#f9001c;stroke:none" />
    <path
       d="m 345.416,185.839 0,10.397 4.827,0 c 0,2.809 -1.033,6.997 -4.463,6.997 -5.07,0 -4.948,-8.56 -5.07,-12.051 l 0,-2.019 c 0,-4.766 0.244,-12.932 5.404,-12.932 2.307,0 3.795,2.99 3.916,5.054 l 12.75,-4.933 c -2.883,-6.891 -8.864,-11.946 -16.787,-11.946 -14.359,0 -18.822,13.433 -18.822,25.728 0,12.295 4.463,24.939 18.943,24.939 15.513,0 17.82,-14.936 17.82,-27.003 l -0.122,-2.231 -18.396,0 z"
       id="path34"
       style="fill:#f9001c;stroke:none" />
    <path
       d="m 364.025,287.689 3.795,0 0,19.14 7.012,0 0,-19.14 3.917,0 0,-6.254 -14.724,0 0,6.254 z"
       id="path36"
       style="fill:#ffffff;stroke:none" />
    <path
       d="m 380.357,287.689 3.552,0 0,19.14 7.013,0 0,-19.14 3.916,0 0,-6.254 -14.481,0 0,6.254 z"
       id="path38"
       style="fill:#ffffff;stroke:none" />
    <path
       d="m 428.504,297.464 c 0,0.622 0,1.426 -0.242,2.291 0,0.638 -0.456,1.215 -1.366,1.215 -1.154,0 -1.519,-0.577 -1.731,-1.32 -0.243,-0.76 -0.243,-1.564 -0.243,-2.369 l 0,-15.846 -6.891,0 0,16.651 c 0,3.051 0.82,9.259 8.865,9.259 7.801,0 8.5,-6.208 8.5,-9.259 l 0,-16.651 -6.892,0 0,16.029 z"
       id="path40"
       style="fill:#ffffff;stroke:none" />
    <path
       d="m 450.665,294.413 c -0.789,-1.26 -1.821,-2.065 -3.339,-3.158 -0.577,-0.288 -1.032,-0.637 -1.244,-0.971 -0.456,-0.516 -0.699,-0.926 -0.699,-1.442 0,-0.926 0.911,-1.548 1.73,-1.548 1.731,0 3.34,1.442 4.129,2.641 l 0,-7.589 c -1.488,-0.805 -3.339,-1.366 -4.948,-1.366 -5.859,0 -7.681,5.388 -7.681,8.378 0,1.897 0.456,3.279 1.366,4.311 0.82,1.381 2.065,2.292 3.34,3.445 0.455,0.167 0.789,0.683 1.032,0.972 0.577,0.471 0.789,0.804 0.789,1.32 0,1.276 -1.244,1.731 -2.277,1.731 -1.609,0 -3.217,-1.382 -4.158,-2.869 l 0,7.984 c 1.517,0.577 3.339,1.093 5.069,1.093 4.949,0 8.045,-3.795 8.045,-8.455 0,-2.003 -0.334,-3.263 -1.154,-4.477 z"
       id="path42"
       style="fill:#ffffff;stroke:none" />
    <path
       d="m 409.774,293.836 0,-0.167 c 2.975,0 4.827,-2.064 4.827,-4.933 0,-5.586 -4.827,-7.301 -8.865,-7.301 l -8.045,0 0,25.394 9.199,0 c 6.193,0 8.045,-4.083 8.045,-7.179 0,-3.446 -1.731,-5.586 -5.161,-5.814 z m -5.192,-6.997 0.699,0 c 1.396,0 2.429,0.85 2.429,2.291 0,1.67 -1.275,2.247 -2.884,2.247 l -0.244,0 0,-4.538 z m 0.486,14.525 -0.486,0 0,-4.932 0.365,0 c 1.822,0 3.096,0.682 3.096,2.458 0,1.792 -1.366,2.474 -2.975,2.474 z"
       id="path44"
       style="fill:#ffffff;stroke:none" />
    <path
       d="m 352.307,280.98 c -7.103,0 -9.866,6.936 -9.866,13.205 0,6.208 2.763,13.16 9.866,13.16 6.891,0 9.654,-6.952 9.654,-13.16 0,-6.269 -2.763,-13.205 -9.654,-13.205 z m 0,19.99 c -2.641,0 -2.732,-5.237 -2.732,-6.785 0,-1.67 0.091,-6.83 2.732,-6.83 2.641,0 2.641,5.16 2.641,6.83 0,1.548 0,6.785 -2.641,6.785 z"
       id="path46"
       style="fill:#ffffff;stroke:none" />
    <path
       d="m 331.512,294.185 c 0,-2.808 0.941,-6.83 4.493,-6.83 1.488,0 2.186,0.561 3.339,1.609 l 0,-7.423 c -1.153,-0.394 -2.55,-0.561 -3.582,-0.561 -3.309,0 -11.262,2.003 -11.262,13.433 0,8.682 4.735,12.932 10.473,12.932 1.487,0 2.854,-0.349 4.25,-0.926 l 0.334,-7.18 c -1.154,1.094 -2.064,1.731 -3.673,1.731 -3.431,0 -4.372,-3.856 -4.372,-6.785 z"
       id="path48"
       style="fill:#ffffff;stroke:none" />
    <path
       d="m 492.474,455.975 c -8.864,5.647 -9.441,19.823 -12.871,18.852 -0.456,-0.121 -0.699,-0.243 -0.911,-0.334 5.494,-16.029 10.443,-30.448 14.359,-50.272 l 1.366,-1.791 c 3.794,-3.157 10.109,-0.789 14.48,-2.762 17.122,-7.377 17.699,-43.503 12.629,-60.108 -5.859,24.012 -7.104,30.843 -16.757,39.465 -7.59,6.724 -6.558,21.159 -10.018,20.248 -0.334,0 -0.456,0 -0.79,-0.06 l 4.828,-30.358 c 12.75,-21.706 12.75,-30.206 1.942,-51.061 -9.167,14.936 -15.148,24.073 -4.917,50.439 l -5.07,31.162 -0.577,-0.122 c -3.097,-0.334 1.73,-11.111 -1.731,-18.989 -7.468,-17.227 -8.378,-23.087 -6.891,-41.757 -9.289,13.1 -18.275,44.125 -4.25,56.359 4.129,3.704 9.897,3.476 12.538,9.335 -3.218,14.117 -7.923,32.24 -15.058,49.331 -0.242,-0.455 -1.275,-1.032 -1.153,-2.004 0.334,-4.25 3.673,-12.507 0.698,-19.307 -6.436,-14.754 -7.012,-19.338 -3.005,-39.95 -8.956,11.536 -19.186,41.559 -8.713,55.645 3.097,4.25 8.622,4.584 10.898,9.411 -7.467,20.279 -15.269,37.825 -20.339,47.358 -5.039,-1.276 5.191,-11.84 1.518,-22.586 -5.313,-15.635 -4.736,-19.581 1.943,-39.465 -11.718,10.898 -26.32,40.558 -15.179,55.433 3.005,4.037 8.045,5.342 10.109,10.048 -8.5,14.146 -17.577,27.473 -23.648,35.913 -0.456,0.273 -1.032,-0.911 -0.698,-2.065 2.883,-5.19 6.314,-10.473 3.672,-18.79 -5.039,-15.331 -2.64,-20.735 4.494,-40.225 -12.082,10.596 -28.506,39.374 -17.82,54.523 2.519,3.521 6.314,4.705 8.5,8.287 -9.077,10.322 -18.488,20.097 -28.02,28.658 -0.699,0.455 -1.032,-0.85 -0.364,-1.549 3.126,-3.46 5.858,-11.262 5.191,-17.971 -1.974,-15.3 0.334,-21.22 10.109,-39.647 -13.327,8.834 -33.545,35.549 -25.045,51.759 1.943,3.856 5.859,5.677 7.225,9.29 -10.929,9.653 -22.404,18.123 -33.879,25.53 -0.577,-0.455 -1.032,-1.031 0,-2.064 3.43,-3.066 8.014,-10.352 7.802,-17.486 -0.82,-16.605 3.552,-21.128 16.089,-38.25 -14.723,6.83 -39.646,30.843 -33.211,48.42 1.487,4.311 5.282,6.891 6.193,11.08 -12.295,7.65 -25.379,14.936 -38.827,20.006 -1.609,0.455 1.396,-2.125 1.73,-2.368 4.007,-2.398 8.379,-8.652 9.29,-15.513 2.094,-16.301 6.8,-20.218 22.07,-34.911 -15.726,4.372 -43.897,23.618 -40.558,42.167 0.911,4.25 4.038,7.286 4.371,11.657 -5.794,2.269 -11.593,4.312 -17.477,6.293 -5.916,-1.981 -11.87,-4.024 -17.555,-6.293 0.212,-4.371 3.43,-7.407 4.25,-11.657 3.43,-18.549 -24.711,-37.795 -40.345,-42.167 15.179,14.693 20.006,18.61 22.07,34.911 0.789,6.861 5.282,13.115 9.198,15.513 0.334,0.243 3.552,2.823 1.822,2.368 -13.449,-5.07 -26.533,-12.356 -39.071,-20.006 1.154,-4.189 4.949,-6.769 6.345,-11.08 6.527,-17.577 -18.396,-41.59 -33.089,-48.42 12.507,17.122 16.878,21.645 15.967,38.25 -0.121,7.134 4.342,14.42 7.924,17.486 0.91,1.033 0.455,1.609 0,2.064 -11.718,-7.407 -22.981,-15.877 -34.001,-25.53 1.488,-3.613 5.283,-5.434 7.347,-9.29 8.378,-16.21 -11.839,-42.925 -24.954,-51.759 9.563,18.427 11.84,24.347 9.897,39.647 -0.698,6.709 2.064,14.511 5.282,17.971 0.698,0.699 0.334,2.004 -0.455,1.549 -9.533,-8.561 -18.853,-18.336 -28.051,-28.658 2.186,-3.582 5.981,-4.766 8.5,-8.287 10.807,-15.149 -5.737,-43.927 -17.668,-54.523 6.983,19.49 9.411,24.894 4.463,40.225 -2.641,8.317 0.819,13.6 3.582,18.79 0.455,1.154 -0.121,2.338 -0.577,2.065 -6.102,-8.44 -15.421,-21.767 -23.8,-35.913 1.973,-4.706 7.134,-6.011 10.109,-10.048 11.141,-14.875 -3.339,-44.535 -15.27,-55.433 6.891,19.884 7.225,23.83 2.065,39.465 -3.552,10.746 6.557,21.31 1.487,22.586 -4.948,-9.533 -12.75,-27.079 -20.218,-47.358 2.307,-4.827 7.802,-5.161 10.929,-9.411 10.443,-14.086 0.212,-44.109 -8.743,-55.645 4.007,20.612 3.461,25.196 -2.975,39.95 -3.127,6.8 0.212,15.057 0.576,19.307 0,0.972 -0.941,1.549 -1.153,2.004 -7.134,-17.091 -11.961,-35.214 -14.936,-49.331 2.641,-5.859 8.257,-5.631 12.386,-9.335 14.147,-12.234 5.069,-43.259 -4.25,-56.359 1.518,18.67 0.577,24.53 -6.77,41.757 -3.552,7.878 1.487,18.655 -1.609,18.989 l -0.789,0.122 -5.313,-31.162 c 10.474,-26.366 4.614,-35.503 -4.5838,-50.439 -10.8072,20.855 -10.8985,29.355 1.9428,51.061 l 4.827,30.358 c -0.334,0.06 -0.668,0.06 -0.911,0.06 -3.4301,0.911 -2.398,-13.524 -9.7749,-20.248 -9.7446,-8.622 -11.1411,-15.453 -17,-39.465 -4.9179,16.605 -4.5842,52.731 12.6587,60.108 4.584,1.973 10.5645,-0.395 14.4502,2.762 l 1.397,1.791 c 3.916,19.824 8.834,34.243 14.48,50.272 -0.364,0.091 -0.577,0.213 -0.941,0.334 -3.309,0.971 -4.25,-13.205 -12.841,-18.852 -14.4807,-9.168 -15.7556,-15.543 -22.8899,-36.702 -3.0962,16.788 1.8521,53.49 21.0379,57.467 11.02,2.125 17,1.183 17.577,2.702 9.532,24.528 16.545,39.495 19.429,45.354 0.789,2.034 -0.577,1.457 -0.941,1.852 -2.277,1.274 -6.193,-12.811 -15.604,-17.244 -15.634,-7.012 -17.699,-13.266 -27.4735,-33.606 -0.5767,17.365 9.5325,52.064 28.7185,54.856 5.646,0.881 14.268,-4.584 17.82,-0.607 6.101,9.077 18.609,28.658 23.314,35.154 0.577,0.85 0.243,1.549 -0.091,1.549 -1.518,1.153 -9.775,-10.504 -18.063,-11.961 -16.545,-3.158 -20.096,-8.682 -33.879,-25.379 3.218,16.423 20.795,47.145 39.86,45.02 6.102,-0.668 11.019,-5.889 15.27,-5.434 23.466,25.379 28.505,27.17 27.352,28.081 -2.399,1.73 -10.231,-8.045 -19.763,-7.741 -16.09,0.334 -17.456,-1.397 -34,-14.207 6.435,14.723 23.77,34.941 43.441,31.146 5.282,-1.032 8.379,-6.891 14.359,-6.557 15.27,13.266 24.225,18.488 34.334,25.227 -0.212,0.728 -1.123,0.85 -1.943,0.455 -4.007,-1.487 -11.961,-6.77 -20.005,-5.403 -16.757,2.762 -21.827,-0.85 -40.649,-11.779 8.622,14.359 35.61,36.55 52.853,27.99 5.039,-2.581 7.225,-8.683 13.084,-9.138 6.193,3.491 12.295,6.83 18.488,10.048 6.223,3.097 12.78,6.315 19.307,9.199 1.396,0.789 0.82,0.789 0,0.789 -3.309,0.243 -12.295,-4.706 -19.763,-2.338 -14.116,4.584 -28.597,1.549 -42.257,-3.218 12.962,12.295 38.25,25.774 58.225,17.334 4.372,-1.881 5.191,-8.5 9.654,-10.321 2.428,0.971 10.109,3.552 14.481,5.495 L 279,666.535 l 3.431,2.307 16.269,-12.001 16.243,12.001 3.461,-2.307 -17.364,-12.477 c 4.371,-1.943 12.082,-4.524 14.602,-5.495 4.371,1.821 5.16,8.44 9.532,10.321 20.006,8.44 45.263,-5.039 58.256,-17.334 -13.661,4.767 -28.02,7.802 -42.409,3.218 -7.347,-2.368 -16.181,2.581 -19.642,2.338 -0.668,0 -1.366,0 -0.121,-0.789 6.921,-2.884 13.236,-6.102 19.55,-9.199 6.193,-3.218 12.295,-6.557 18.488,-10.048 5.859,0.455 7.923,6.557 12.993,9.138 17.334,8.56 44.231,-13.631 52.974,-27.99 -18.852,10.929 -24.013,14.541 -40.801,11.779 -8.044,-1.367 -15.968,3.916 -19.884,5.403 -1.032,0.395 -1.7,0.273 -1.943,-0.455 9.988,-6.739 19.065,-11.961 34.365,-25.227 5.859,-0.334 9.077,5.525 14.237,6.557 19.641,3.795 37.098,-16.423 43.442,-31.146 -16.332,12.81 -17.82,14.541 -34.031,14.207 -9.532,-0.304 -17.334,9.471 -19.763,7.741 -1.032,-0.911 4.038,-2.702 27.353,-28.081 4.25,-0.455 9.198,4.766 15.391,5.434 18.973,2.125 36.55,-28.597 39.89,-45.02 -13.904,16.697 -17.486,22.221 -34.153,25.379 -8.014,1.457 -16.301,13.114 -17.789,11.961 -0.455,0 -0.699,-0.699 -0.121,-1.549 4.584,-6.496 17.243,-26.077 23.223,-35.154 3.673,-3.977 12.173,1.488 17.789,0.607 19.186,-2.792 29.417,-37.491 28.718,-54.856 -9.622,20.34 -11.93,26.594 -27.564,33.606 -9.198,4.433 -13.084,18.518 -15.391,17.244 -0.456,-0.395 -1.852,0.182 -1.032,-1.852 2.853,-5.859 9.987,-20.826 19.519,-45.354 0.456,-1.519 6.558,-0.577 17.577,-2.702 18.974,-3.977 24.013,-40.679 20.795,-57.467 -6.891,21.159 -8.257,27.534 -22.616,36.702 z"
       id="path50"
       style="fill:#edff16;stroke:none" />
    <path
       d="m 212.025,232.605 197.84,282.082 c 6.8,-9.684 12.993,-20.158 18.518,-31.633 L 255.922,232.605"
       id="path52"
       style="fill:#ffffff;stroke:none" />
    <path
       d="m 135.388,247.769 0,-15.286 32.27,0 219.242,310.436 c -8.166,8.561 -16.909,16.241 -25.986,23.588"
       id="path54"
       style="fill:#ffffff;stroke:none" />
  </g>
  <g
     transform="translate(-46.9109,-138.967)"
     id="g56" />
</svg>
