<?xml version="1.0" encoding="UTF-8" standalone="no"?>
<svg
   xmlns:dc="http://purl.org/dc/elements/1.1/"
   xmlns:cc="http://creativecommons.org/ns#"
   xmlns:rdf="http://www.w3.org/1999/02/22-rdf-syntax-ns#"
   xmlns:svg="http://www.w3.org/2000/svg"
   xmlns="http://www.w3.org/2000/svg"
   xmlns:sodipodi="http://sodipodi.sourceforge.net/DTD/sodipodi-0.dtd"
   xmlns:inkscape="http://www.inkscape.org/namespaces/inkscape"
   version="1.1"
   id="svg4845"
   viewBox="0 0 1771.6535 1771.6535"
   height="500mm"
   width="500mm"
   inkscape:version="0.91 r13725"
   sodipodi:docname="SC_Fortuna_Koln.svg">
  <sodipodi:namedview
     pagecolor="#ffffff"
     bordercolor="#666666"
     borderopacity="1"
     objecttolerance="10"
     gridtolerance="10"
     guidetolerance="10"
     inkscape:pageopacity="0"
     inkscape:pageshadow="2"
     inkscape:window-width="1920"
     inkscape:window-height="1017"
     id="namedview16"
     showgrid="false"
     inkscape:snap-bbox="true"
     inkscape:bbox-paths="true"
     inkscape:bbox-nodes="true"
     inkscape:snap-bbox-edge-midpoints="true"
     inkscape:snap-bbox-midpoints="true"
     inkscape:object-paths="true"
     inkscape:snap-intersection-paths="true"
     inkscape:object-nodes="true"
     inkscape:snap-smooth-nodes="true"
     inkscape:snap-midpoints="true"
     inkscape:snap-object-midpoints="true"
     inkscape:snap-center="true"
     inkscape:snap-text-baseline="true"
     inkscape:snap-page="true"
     showguides="true"
     inkscape:guide-bbox="true"
     inkscape:zoom="0.37677163"
     inkscape:cx="923.02354"
     inkscape:cy="793.05958"
     inkscape:window-x="-8"
     inkscape:window-y="-8"
     inkscape:window-maximized="1"
     inkscape:current-layer="layer1" />
  <defs
     id="defs4847">
    <clipPath
       id="clipPath1768"
       clipPathUnits="userSpaceOnUse">
      <path
         id="path1770"
         d="m 0,0 841.89,0 0,595.276 L 0,595.276 0,0 Z" />
    </clipPath>
    <clipPath
       id="clipPath1744"
       clipPathUnits="userSpaceOnUse">
      <path
         id="path1746"
         d="m 0,0 841.89,0 0,595.276 L 0,595.276 0,0 Z" />
    </clipPath>
    <clipPath
       id="clipPath1724"
       clipPathUnits="userSpaceOnUse">
      <path
         id="path1726"
         d="m 0,0 841.89,0 0,595.276 L 0,595.276 0,0 Z" />
    </clipPath>
    <clipPath
       id="clipPath1704"
       clipPathUnits="userSpaceOnUse">
      <path
         id="path1706"
         d="m 0,0 841.89,0 0,595.276 L 0,595.276 0,0 Z" />
    </clipPath>
  </defs>
  <metadata
     id="metadata4850">
    <rdf:RDF>
      <cc:Work
         rdf:about="">
        <dc:format>image/svg+xml</dc:format>
        <dc:type
           rdf:resource="http://purl.org/dc/dcmitype/StillImage" />
        <dc:title />
      </cc:Work>
    </rdf:RDF>
  </metadata>
  <g
     transform="translate(0,719.29134)"
     id="layer1">
    <circle
       r="885.82556"
       cy="166.5354"
       cx="885.82477"
       id="path4439"
       style="opacity:1;fill:#ffffff;fill-opacity:1;stroke:none;stroke-width:10.5;stroke-linecap:round;stroke-linejoin:round;stroke-miterlimit:4;stroke-dasharray:none;stroke-dashoffset:0;stroke-opacity:1" />
    <path
       style="fill:#e80000;fill-opacity:1;fill-rule:nonzero;stroke:none"
       d="m 885.82437,-719.29134 c -234.93365,0 -460.24891,93.32935 -626.372,259.45242 C 93.329287,-293.71583 -9.7541902e-6,-68.398538 -9.7541902e-6,166.53497 -9.7541902e-6,401.46845 93.329287,626.78579 259.45237,792.90887 c 166.12309,166.12309 391.43835,259.45053 626.372,259.45053 234.93343,0 460.25083,-93.32744 626.37383,-259.45053 166.1231,-166.12308 259.4524,-391.44042 259.4524,-626.3739 0,-234.933508 -93.3293,-460.2508 -259.4524,-626.37389 -166.123,-166.12307 -391.4404,-259.45242 -626.37383,-259.45242 z m 0,10.86477 c 232.05603,0 454.60363,92.18283 618.69203,256.27132 164.0887,164.08849 256.2694,386.634049 256.2694,618.69022 0,232.05619 -92.1807,454.60173 -256.2694,618.69024 -164.0884,164.0885 -386.636,256.26949 -618.69203,256.26949 -232.05627,0 -454.6017,-92.18099 -618.69031,-256.26949 C 103.04565,621.1367 10.864764,398.59116 10.864764,166.53497 c 0,-232.056171 92.180886,-454.60173 256.269296,-618.69022 164.08861,-164.08849 386.63404,-256.27132 618.69031,-256.27132 z m -0.0117,26.94009 c -468.33991,0 -848.009825,379.68994 -848.009825,848.02338 0,468.33356 379.669915,848.0195 848.009825,848.0195 468.36529,0 848.03299,-379.68594 848.03299,-848.0195 0,-468.33344 -379.6677,-848.02338 -848.03299,-848.02338 z m 85.4637,60.15751 106.55849,25.06692 c 19.7594,4.64361 34.4441,9.8874 44.0976,15.75122 9.6533,5.86421 16.6624,14.13121 20.9193,24.87015 4.2567,10.73894 4.8438,22.9008 1.769,36.16125 -2.6799,11.55627 -7.4062,20.90578 -14.2426,28.13807 -6.8373,7.23307 -15.175,12.45766 -24.9453,15.65477 -6.2262,2.0325 -14.4467,3.02545 -24.4555,2.97083 7.0283,4.34848 12.1391,8.21849 15.0278,11.59398 1.9567,2.2576 4.4849,6.6374 7.6586,13.27617 3.1734,6.63907 5.0905,11.67379 5.8934,15.05866 l 16.9917,67.66949 -72.2839,-17.0418 -19.4474,-71.62996 c -2.4171,-9.25787 -5.0392,-15.46776 -7.8554,-18.72591 -3.8636,-4.30403 -8.6039,-7.14928 -14.4375,-8.5209 l -5.6967,-1.38703 -19.64221,84.51066 -64.13337,-15.05868 48.22399,-208.35789 z m -204.67526,7.52934 c 21.2195,0.19685 39.48131,5.55664 54.80232,16.05023 22.28414,15.26274 36.5571,39.86261 42.82054,73.71341 4.5472,24.57453 4.12911,45.44496 -1.17675,62.71551 -5.30616,17.27104 -14.96544,31.73398 -28.87689,43.39544 -13.91195,11.66185 -32.41051,19.63076 -55.58745,23.97696 -23.55749,4.41752 -43.76419,4.36207 -60.59738,-0.29901 -16.83309,-4.65931 -31.57521,-14.27765 -44.19405,-28.83062 -12.61924,-14.55238 -21.08705,-34.07757 -25.63405,-58.6528 -6.35185,-34.32865 -1.90489,-62.91531 13.5539,-85.60254 15.45959,-22.68673 40.23838,-37.23508 74.14942,-43.59413 10.86358,-2.03695 21.09455,-2.96204 30.74039,-2.87245 z m 259.18235,49.63805 -9.823,42.40387 27.0115,6.341 c 2.9163,0.68547 8.6661,1.11514 17.4796,1.18833 4.4317,0.14272 8.3889,-1.28638 11.8834,-4.1611 3.4945,-2.87443 5.8208,-6.54955 6.8753,-11.09626 1.5594,-6.7252 0.55,-12.44536 -2.8492,-17.03988 -3.3999,-4.59432 -10.8226,-8.25581 -22.4897,-10.99788 l -28.0879,-6.63808 z m -271.2624,1.48541 c -3.14742,0 -6.32685,0.35499 -9.72278,0.99157 -13.01343,2.43954 -22.70748,9.06241 -28.87502,19.81587 -6.16773,10.75326 -7.20423,26.93038 -3.24086,48.3494 3.92742,21.22848 10.68017,35.68788 20.23258,43.49382 9.55221,7.80595 21.08369,10.45566 34.57161,7.92673 13.8681,-2.60043 23.74022,-9.20858 29.65827,-19.71748 5.91754,-10.509 6.61309,-27.49943 2.26086,-51.02316 -3.66291,-19.79394 -10.2198,-33.57261 -19.84096,-41.21747 -7.21598,-5.73353 -15.59895,-8.61809 -25.0437,-8.61928 z m -227.85159,21.20291 24.6502,38.73854 -81.02475,52.5105 20.03573,31.40792 69.23983,-44.88085 23.17831,36.26157 -69.23982,44.88085 47.04348,73.5147 -55.48906,35.8661 -115.00611,-179.82435 136.61219,-88.47498 z m 728.83299,7.72803 163.1298,115.71987 -30.2485,43.19866 -54.7058,-38.83886 -92.2213,131.57527 -53.6237,-38.04793 92.123,-131.57333 -54.7039,-38.83695 30.2504,-43.19673 z m -367.74134,176.03171 c 17.63669,0.08 35.43734,1.05214 53.35355,2.95348 C 1227.774,-324.3366 1435.489,-67.294154 1405.0629,219.385 1374.6394,506.03943 1117.5982,713.75277 830.93908,683.32933 544.28082,652.90628 336.56135,395.86756 366.98509,109.21326 395.50986,-159.54859 623.21043,-358.91092 887.76116,-357.71352 Z m 611.79754,25.39101 34.5697,56.07744 -110.3898,68.7575 c -9.8606,6.14028 -15.8073,13.73308 -17.9735,22.68832 -2.1662,8.95386 -0.3016,18.27857 5.6986,28.03968 5.9469,9.67794 13.3497,15.53585 22.1945,17.63404 8.8444,2.09759 18.2598,0.1048 28.2846,-6.14038 l 110.3918,-68.75943 34.4732,56.07744 -107.8394,67.073384 c -10.6823,6.651513 -21.7434,11.309805 -33.2927,13.870336 -11.5496,2.559543 -23.1654,2.433038 -34.67,-0.297083 -11.5048,-2.729132 -21.07,-7.108762 -28.7748,-13.175859 -10.7363,-8.411498 -20.748,-20.265778 -30.152,-35.569008 -5.439,-8.85115 -10.8121,-18.88736 -16.0097,-30.11927 -5.1977,-11.23201 -8.0765,-21.5054 -8.7408,-30.81375 -0.6638,-9.30785 0.5784,-18.90101 3.7328,-28.929 3.1543,-10.0271 7.6281,-18.36582 13.4556,-24.96854 9.369,-10.6375 18.4282,-18.8467 27.3027,-24.37243 l 107.7392,-67.07339 z m -613.74599,1.52014 c -131.90043,0 -258.40413,52.39804 -351.67179,145.66552 -93.26766,93.267476 -145.66748,219.77157 -145.66748,351.67182 0,131.90016 52.39982,258.40228 145.66748,351.66985 93.26766,93.26776 219.76939,145.66945 351.66991,145.66945 131.90037,0 258.40597,-52.40169 351.67377,-145.66945 93.2677,-93.26757 145.6655,-219.76969 145.6655,-351.66985 0,-131.90025 -52.3978,-258.404344 -145.6655,-351.67182 -1.6743,-1.67406 -3.3658,-3.32482 -5.062,-4.97133 -0.934,-0.9076 -1.8742,-1.80713 -2.8146,-2.70654 -1.1734,-1.12124 -2.3495,-2.24148 -3.5322,-3.35087 -5.5851,-5.23722 -11.2743,-10.33974 -17.0707,-15.29596 -89.7441,-76.73741 -204.2713,-119.34082 -323.19239,-119.34082 z m 0,10.95738 0,0.006 c 114.66029,0 225.14189,40.48696 312.34109,113.54191 -0.012,1e-4 -0.025,-2e-4 -0.037,0 -64.4925,0.71895 -133.2332,-25.33843 -204.87203,-52.87511 -54.82809,-21.075 -111.47554,-44.73477 -163.69895,-50.80709 -9.20997,-1.2534 -18.39505,-1.76358 -27.56127,-1.74393 -1.68008,0.0109 -3.35859,0.0319 -5.0369,0.0694 29.10742,-5.40938 58.84134,-8.19103 88.86466,-8.19103 z m -88.00615,19.05193 0,0.01 c 31.52612,-0.11033 65.93861,7.81562 95.88854,16.91833 42.95438,11.23961 77.68877,29.51495 120.315,44.69373 67.347,23.98162 123.2317,47.01127 196.4534,43.5459 l 0.012,0.0116 c -22.6199,28.78504 -42.026,50.45483 -68.6534,76.09393 -15.1773,14.63851 -35.2101,25.41164 -56.6986,27.547753 -52.7901,7.999733 -160.84534,-38.808013 -224.24031,-63.355983 -26.46036,53.09004 -10.89104,114.585822 8.30484,167.601484 15.6836,44.626871 37.79489,87.054198 61.85325,128.158806 36.76403,-35.75381 68.12243,-77.871862 111.65712,-105.33159 15.9996,-10.288546 37.5526,-11.613525 55.4022,-3.655671 25.806,12.291813 46.0036,33.33205 72.4422,44.952232 20.4952,9.185179 43.2418,5.899503 65.4182,5.883799 -20.2774,41.79057 -45.6773,88.24241 -91.4594,105.9682 -38.0605,14.221 -74.1648,-14.10607 -95.9155,-43.51504 -11.5095,-14.03117 -24.5429,-37.13111 -45.9322,-32.56346 -23.12985,11.80982 -38.10071,33.7997 -56.47295,52.00315 27.97956,63.20957 75.30645,120.61504 80.71025,192.3501 7.0274,60.57477 4.4066,124.80287 -25.2752,179.29771 -24.02874,47.13317 -59.87538,92.63148 -110.8527,111.16521 -31.6003,12.0681 -68.43484,2.06776 -90.68195,-22.09026 -33.06437,-36.91119 -43.67165,-88.23115 -46.39901,-135.86182 -4.01512,-90.7343 32.45684,-178.18635 81.10376,-252.86253 -16.22584,-19.11864 -31.77156,-38.86547 -49.28113,-57.29085 -43.66375,1.32155 -89.79459,6.57772 -132.06913,-11.0982 C 590.13125,144.85805 547.78915,84.070903 533.4757,19.793212 520.69882,-36.685142 520.84184,-99.494726 548.62692,-151.9713 c 27.30269,-50.58472 72.15741,-89.44027 121.69821,-117.51781 12.31937,-6.08812 24.88764,-11.64981 37.67173,-16.67141 24.63686,-8.36459 50.38144,-13.02027 76.312,-14.27544 4.49791,-0.2173 8.99514,-0.32282 13.498,-0.35689 z m 0.73495,15.12619 c -1.31947,0 -2.63056,2.7e-4 -3.93729,0.0174 -2.98732,0.0336 -5.94609,0.10421 -8.8624,0.25464 -33.67922,1.35889 -66.91071,8.78575 -97.56112,24.00977 -50.74413,26.37108 -97.80579,65.67585 -125.62968,116.84647 -32.13306,59.796459 -24.75983,133.497732 -3.96821,196.270059 -9.44722,-62.96256 -3.92327,-129.986046 30.99315,-183.985449 21.04062,-33.31772 54.62937,-56.28445 91.71785,-67.39941 38.30218,-11.43518 72.79685,-7.77107 108.36032,1.33687 65.19299,16.85275 116.06542,50.35669 194.18847,73.70569 27.4969,9.28474 54.2027,15.77074 88.4114,18.53879 48.2472,3.9045 82.5612,-44.53323 110.9511,-76.76526 -33.5713,6.00792 -142.2232,-27.80928 -212.83926,-57.16739 -58.89182,-22.81662 -112.1781,-45.15539 -171.82433,-45.66021 l 0,-0.002 z m -223.84091,78.351 c -11.1436,12.90982 -20.85967,26.32386 -29.15088,39.82078 -39.83549,63.95125 -38.09367,145.559945 -14.47998,215.437736 17.99,56.321224 58.68756,106.742374 114.76501,127.923454 41.6422,18.34982 88.51561,16.99438 132.77326,13.69671 16.70163,13.22076 28.94465,31.08158 43.11765,46.99324 -48.5687,77.2882 -84.30788,166.65017 -78.92972,259.3019 3.37845,47.61221 15.21187,96.92939 46.95459,133.22475 6.17603,7.27742 13.56111,13.0157 21.45753,18.07 C 709.83903,631.41764 615.33031,583.89749 541.89017,510.45754 450.67476,419.24214 399.43471,295.53286 399.43471,166.53497 c 0,-128.997972 51.24005,-252.705414 142.45546,-343.92063 10.51671,-10.51661 21.47185,-20.49356 32.81043,-29.93021 z m -211.06255,8.74467 49.69597,32.20078 -34.08171,53.40368 -49.694,-32.20271 34.07974,-53.40175 z m 369.3387,7.26505 c -2.84064,-0.0109 -5.67655,0.0464 -8.51126,0.17361 -20.6166,0.92163 -41.017,5.44875 -60.5086,14.82139 -53.46723,22.53117 -83.65935,79.592689 -90.4524,136.01031 -10.07283,55.861037 2.79985,118.33403 45.06995,157.58165 39.63943,38.67239 97.97823,47.98381 151.31973,43.10415 C 737.6652,107.76191 699.60145,55.912204 687.97239,-5.8314263 c -3.55229,-9.6965147 6.69507,-15.9028687 13.03694,-21.9803267 51.55681,-42.735611 103.72639,-86.093407 155.26285,-129.482177 -37.56574,-19.08655 -80.68023,-33.90358 -123.29543,-34.01222 z m 485.42505,2.95733 c 3.8301,3.58962 7.6118,7.2395 11.3354,10.96316 91.2156,91.215216 142.4555,214.922658 142.4555,343.92063 0,128.99789 -51.2399,252.70717 -142.4555,343.92257 -86.0916,86.09148 -201.1293,136.56557 -322.23929,141.96546 13.80083,-6.24912 26.4579,-14.8474 36.84423,-24.66758 59.73706,-52.78789 97.85016,-131.79791 96.75276,-212.16019 0.1137,-39.8672 0.627,-84.41367 -25.7518,-141.08964 -18.68846,-36.03885 -37.34644,-72.10488 -56.0137,-107.49027 13.23596,-15.43291 25.73253,-32.14306 43.6868,-42.49068 10.9037,-6.21247 19.7732,5.93874 27.1561,12.90385 19.0474,26.22313 41.3514,52.39248 72.9648,62.54768 30.9218,8.87089 63.6902,-5.84232 85.2245,-27.40692 31.0732,-29.69927 46.4938,-63.41662 63.6087,-101.843756 -11.2408,0.237346 -20.7457,0.724572 -29.6312,0.889321 -16.9035,0.779498 -37.6808,-0.661269 -53.1568,-8.181372 -26.8397,-13.40645 -47.7915,-36.465332 -76.7112,-45.550258 -19.7266,-5.286503 -40.4808,-1.31933 -57.0941,10.311114 C 996.36633,54.211294 966.79824,90.972395 934.51712,123.97485 899.52682,66.206538 870.21998,3.7248038 859.06749,-63.91514 c -4.70781,-26.656229 -2.35617,-53.06757 6.00536,-78.81205 68.97205,26.19409 123.64458,55.344958 195.27075,62.657642 13.7288,1.942326 31.1082,0.693904 43.4476,-2.696893 16.7141,-4.681345 30.0159,-15.045292 42.8321,-26.419229 27.7972,-25.81381 48.2462,-50.44439 71.7785,-79.16315 z m -486.57484,7.51969 c 35.79864,-0.0198 71.8045,11.68527 104.31882,25.40837 -48.3196,41.98465 -97.9572,82.764386 -146.96572,123.463335 -5.70974,5.400089 -15.35578,10.887768 -12.45637,20.60295 7.66016,59.901647 44.38102,110.446886 73.31214,161.862365 C 698.55152,152.06817 641.30749,136.78236 609.96282,91.976616 573.24956,42.105329 576.52025,-25.988861 594.393,-82.739437 c 13.72103,-42.901633 49.19718,-78.597003 92.52995,-91.019483 12.43246,-4.13317 25.03886,-6.32843 37.75084,-6.90624 2.38334,-0.10864 4.76648,-0.16269 7.15317,-0.16397 z m -518.7486,49.53387 -3.83122,59.642445 c -6.78209,0.139366 -12.02098,0.875336 -15.51776,2.179899 -5.85068,2.134335 -10.74605,5.432772 -14.82913,9.807621 -4.08348,4.375442 -7.00225,9.702095 -8.83919,16.05216 -4.16061,14.382393 -1.62606,27.113034 7.66243,38.1424587 6.85972,8.2925878 19.43708,15.0527093 37.71223,20.4100303 22.63596,6.635118 39.10429,7.719669 49.49921,3.269853 10.39473,-4.449421 17.49407,-12.8478324 21.11411,-25.3620766 3.5115,-12.1406934 2.71866,-22.3208684 -2.25701,-30.5166604 -4.97577,-8.195299 -13.55044,-15.612285 -25.63415,-22.194462 l 32.90111,-50.726078 c 14.41153,8.27767 25.62032,17.952883 33.68623,29.029322 8.06699,11.077724 12.98735,23.399118 14.83101,36.855733 1.84326,13.457208 0.11694,29.357617 -5.20472,47.7552349 C 327.91507,25.369626 319.37496,42.708126 308.83573,54.966554 298.29542,67.224192 283.45246,76.103893 264.24621,81.617272 245.04064,87.131243 222.68973,86.168624 197.36384,78.744823 163.59593,68.845434 140.3464,52.19661 127.43727,28.80969 114.52854,5.4223753 112.86672,-22.841465 122.4293,-55.901599 c 7.48326,-25.868631 18.52424,-44.616601 33.19623,-56.372581 14.6714,-11.75619 33.85059,-18.14004 57.45283,-19.02108 z m 618.41433,15.92871 c -42.66853,34.624246 -85.30981,69.230931 -125.96539,105.7540635 -1.50596,15.0781333 5.40157,29.2542825 10.39215,43.4841735 25.86992,58.044669 60.75927,112.626573 103.2598,159.709473 49.35008,57.98659 107.1004,114.38722 132.15397,188.7967 21.73656,72.54785 17.69121,154.42301 -18.78766,221.54143 48.81513,-47.22986 81.42974,-112.92352 82.00664,-180.91814 -0.1203,-47.71009 2.6971,-77.79929 -24.42067,-141.75715 C 961.8125,228.504 934.73649,175.02572 904.48076,122.99678 865.10969,49.672486 828.16442,-30.295174 831.49269,-115.36655 Z m 816.75831,69.671902 7.6624,61.228167 -106.6588,94.817921 116.6767,-14.863832 7.7589,61.826192 -210.7654,26.8475 -7.7569,-61.82234 105.6749,-94.123435 -115.6929,14.663198 -7.7589,-61.723956 210.86,-26.849415 z m -575.9006,87.849955 c -0.8191,0.01087 -1.6425,0.03827 -2.4731,0.0926 -1.7724,0.113587 -3.5955,0.346251 -5.4189,0.684837 -27.137,8.664064 -54.0007,37.157645 -70.87563,53.812652 22.79283,-5.636546 39.96223,3.335867 51.48803,18.021787 20.312,24.87649 40.2054,57.70663 75.5345,61.21466 43.0119,-1.29972 74.1606,-45.03058 94.0192,-78.964443 -28.4411,3.256073 -56.0349,-4.624186 -76.0919,-21.011919 -19.8528,-12.038466 -39.4653,-32.689794 -63.7399,-33.805803 -0.809,-0.03753 -1.6233,-0.05128 -2.4423,-0.04437 z m -826.27257,100.888843 59.02506,0 0.0985,63.41 -59.12354,0.10031 0,-63.50839 0,-0.002 z m 1221.66007,84.71127 181.1033,137.91439 -20.4273,69.05651 -226.4781,16.24886 19.5458,-66.28046 36.6339,0 21.2125,-72.12965 -30.6421,-20.11297 19.052,-64.69668 z m -1216.5634,26.05271 0.002,0.002 c 0.82137,-0.0158 1.64028,-0.0148 2.45958,0 6.55551,0.12653 13.09186,1.27232 19.64223,3.36824 13.10203,4.19262 24.32475,12.07396 33.68821,23.57956 9.36267,11.5055 16.85324,27.30555 22.39121,47.2595 9.72377,35.03593 9.75617,61.11139 0.0984,78.37028 -9.65592,17.25928 -24.52259,29.66043 -44.68791,37.25116 l -20.6242,-59.44563 c 9.40711,-4.05967 16.13468,-8.79789 20.1342,-14.26584 6.46197,-8.88699 7.99677,-19.42661 4.61635,-31.60464 -2.52162,-9.0869 -6.67799,-15.49425 -12.2769,-19.22176 -5.59872,-3.72662 -11.11269,-4.84006 -16.69649,-3.2698 -5.30349,1.49203 -9.38934,5.23435 -12.2769,11.09619 -2.88727,5.86224 -3.7606,17.76934 -2.75086,35.8661 1.51346,29.67061 -1.32017,51.87535 -8.34731,66.67801 -7.00106,14.8962 -18.46488,24.62817 -34.47136,29.12954 -10.51522,2.95759 -21.35363,2.71274 -32.40913,-0.79283 -11.0551,-3.50507 -20.98906,-10.6858 -29.75851,-21.5 -8.76975,-10.81381 -16.14397,-26.89654 -22.09806,-48.34933 -7.30587,-26.32417 -8.04991,-47.74861 -2.16061,-64.30129 5.88979,-16.55278 19.08871,-29.25657 39.5778,-37.84734 l 20.23248,59.15059 c -8.76995,4.18393 -14.61203,9.36968 -17.38324,15.65278 -2.77042,6.28389 -2.88746,13.89151 -0.39163,22.88507 2.05433,7.3999 5.27021,12.58733 9.42766,15.458 4.15766,2.86949 8.39847,3.63259 12.86518,2.37672 3.25706,-0.9158 5.71576,-3.31 7.4638,-7.13391 1.86608,-3.75654 2.46255,-11.58303 1.66863,-23.47927 -1.76582,-29.49835 -1.28016,-51.14355 1.47386,-64.89539 2.75412,-13.75233 7.9144,-24.67706 15.41948,-32.69656 7.50618,-8.0183 16.72593,-13.60178 27.89304,-16.74278 5.74035,-1.61451 11.52999,-2.4722 17.27904,-2.5773 z m 603.82453,4.69353 c -55.69115,57.24086 -76.03367,138.89448 -79.57598,216.78236 -0.74206,40.54803 -0.12465,83.68612 20.51803,119.66492 16.51762,28.91314 54.84943,46.66598 86.35293,31.3346 30.18115,-15.94485 48.17549,-47.82575 57.01507,-79.46604 11.72625,-44.14664 12.30692,-90.56105 3.81186,-134.75056 -11.56921,-59.78312 -49.60896,-108.97477 -88.12191,-153.56528 z m -0.0984,17.61281 c 39.77703,43.24513 73.3155,95.8576 80.97645,155.75866 4.66227,46.91923 3.53144,96.65836 -17.35816,139.77591 -10.41635,22.53848 -29.28817,43.98969 -54.56882,49.32745 -29.89917,3.51881 -56.70711,-19.13968 -65.99886,-46.31031 -17.73615,-47.83315 -13.42629,-99.67136 -7.0702,-148.88523 8.23421,-51.88482 24.92399,-106.02794 60.24813,-146.31176 l 3.77146,-3.35472 z m 664.49695,63.30002 -13.3571,45.17988 79.9463,-0.79283 -66.5892,-44.38705 z M 329.85156,507.151 l 36.53547,51.81796 -48.41886,34.47906 -36.33675,-51.91821 48.22014,-34.37881 z m 1116.28024,0.29907 48.2221,34.37872 -36.4371,51.91633 -48.2221,-34.47906 36.4371,-51.81599 z m -982.41516,65.88508 54.11359,37.55014 -45.47116,66.57953 102.23733,-27.4455 71.89231,49.73834 -109.11266,22.39131 -8.2508,155.94576 -66.68562,-46.16957 12.47168,-97.98742 -48.02527,10.10661 -29.36501,43.00001 -54.11556,-37.35348 120.31117,-176.35573 z m 837.75096,5.34942 119.7189,176.6548 -50.5815,34.77617 -132.3873,-52.31379 66.292,97.68844 -51.1678,35.272 -119.7209,-176.75328 51.0695,-35.07129 131.5058,51.81608 -65.7037,-96.99399 50.975,-35.07514 z m -629.14799,102.44563 43.99917,8.61922 -8.05406,41.61298 -43.99917,-8.71958 8.05406,-41.51262 z m 173.3444,32.79295 43.9973,8.6213 -8.05208,41.611 -44.09765,-8.7177 8.15243,-41.5146 z m 157.03959,16.05221 33.5898,157.63177 100.2753,-21.79701 10.9979,51.61736 -164.4069,35.569 -44.68592,-209.15075 64.22982,-13.87037 z m -258.89684,1.08223 c 1.43109,-0.0217 2.8762,-0.02 4.33277,0.0116 7.76851,0.13926 15.96016,0.97595 24.45345,2.47697 34.83049,6.15746 60.06363,20.34883 75.62327,42.50418 15.55835,22.15653 20.35268,50.1035 14.4375,84.0168 -4.29494,24.62146 -12.00123,44.1498 -22.98156,58.45416 -10.98113,14.30358 -25.04587,24.50126 -42.13379,30.51669 -17.08881,6.01543 -37.18015,6.97893 -60.40054,2.87432 -23.60135,-4.17197 -42.42506,-11.39813 -56.56942,-21.70061 -14.14445,-10.30138 -24.57464,-24.51992 -31.32877,-42.60058 -6.75365,-18.08145 -8.02779,-39.48111 -3.73284,-64.10256 5.99814,-34.39284 20.14971,-59.50301 42.52541,-75.2992 15.73259,-11.10647 34.31017,-16.81818 55.77452,-17.1459 l 0,-0.006 z m 10.51749,50.93248 c -9.1187,0.18371 -17.11666,3.29144 -24.25659,9.21343 -9.51972,7.89711 -16.29252,22.53176 -20.03583,43.99157 -3.70943,21.26819 -2.40111,37.36968 3.82924,48.05035 6.22976,10.68027 16.14901,17.13019 29.66212,19.51886 13.89427,2.45623 25.46703,-0.17038 34.66811,-7.92486 9.20039,-7.75567 15.72597,-23.49518 19.8371,-47.06265 3.45905,-19.83058 2.03102,-35.02131 -4.31934,-45.57536 -6.35076,-10.55325 -16.24847,-17.01255 -29.85689,-19.41851 -3.25934,-0.57534 -6.48914,-0.85367 -9.52792,-0.79283 z"
       id="path1662-4-7-3"
       inkscape:connector-curvature="0" />
    <rect
       style="opacity:1;fill:#800000;fill-opacity:1;stroke:none;stroke-width:15;stroke-linecap:round;stroke-linejoin:round;stroke-miterlimit:4;stroke-dasharray:none;stroke-dashoffset:0;stroke-opacity:1"
       id="rect4146"
       width="10.96402"
       height="1.6501678"
       x="388.47394"
       y="166.53516" />
  </g>
</svg>
