<?xml version="1.0" encoding="UTF-8"?>
<!DOCTYPE svg PUBLIC "-//W3C//DTD SVG 1.1//EN" "http://www.w3.org/Graphics/SVG/1.1/DTD/svg11.dtd">
<!-- Creator: CorelDRAW -->
<svg xmlns="http://www.w3.org/2000/svg" xml:space="preserve" width="51mm" height="51mm" style="shape-rendering:geometricPrecision; text-rendering:geometricPrecision; image-rendering:optimizeQuality; fill-rule:evenodd; clip-rule:evenodd"
viewBox="0 0 51 51"
 xmlns:xlink="http://www.w3.org/1999/xlink">
 <defs>
  <style type="text/css">
   <![CDATA[
    .fil4 {fill:#960000}
    .fil5 {fill:white}
    .fil1 {fill:#0058A6;fill-rule:nonzero}
    .fil3 {fill:#960000;fill-rule:nonzero}
    .fil2 {fill:#E60000;fill-rule:nonzero}
    .fil0 {fill:white;fill-rule:nonzero}
   ]]>
  </style>
 </defs>
 <g id="Ebene_x0020_1">
  <metadata id="CorelCorpID_0Corel-Layer"/>
  <path id="_122986968" class="fil0" d="M25.5 51c6.8114,0 13.2151,-2.6527 18.0313,-7.4693 4.816,-4.8161 7.4687,-11.2194 7.4687,-18.0307 0,-6.8113 -2.6527,-13.2146 -7.4687,-18.031 -4.8162,-4.8167 -11.2199,-7.469 -18.0313,-7.469 -14.0602,0 -25.5,11.4393 -25.5,25.5 0,6.8113 2.6527,13.2146 7.4693,18.0307 4.8162,4.8166 11.2194,7.4693 18.0307,7.4693z"/>
  <path id="_122986968_0" class="fil1" d="M25.5 50.5c6.6778,0 12.956,-2.6007 17.6777,-7.3228 4.7216,-4.7217 7.3223,-10.9995 7.3223,-17.6772 0,-6.6777 -2.6007,-12.9555 -7.3223,-17.6775 -4.7217,-4.7222 -10.9999,-7.3225 -17.6777,-7.3225 -13.7845,0 -25,11.215 -25,25 0,6.6777 2.6007,12.9555 7.3228,17.6772 4.7218,4.7221 10.9995,7.3228 17.6772,7.3228z"/>
  <path id="_122984952" class="fil0" d="M1.8874 25.4993c0,-6.3072 2.4561,-12.2369 6.9162,-16.6965 4.46,-4.46 10.3896,-6.9161 16.6964,-6.9161 6.3073,0 12.2369,2.4561 16.697,6.9161 4.4596,4.4596 6.9158,10.3893 6.9158,16.6965 0,13.0198 -10.5926,23.6123 -23.6128,23.6123 -6.3068,0 -12.2364,-2.4562 -16.6964,-6.9158 -4.4601,-4.4601 -6.9162,-10.3897 -6.9162,-16.6965z"/>
  <path id="_122985816" class="fil2" d="M46.399 25.0278l-18.4387 2.6313c0,0 -0.1193,1.4671 -0.208,2.2652 -0.0886,0.798 -0.4611,5.0471 -4.5768,5.0471 -3.9812,0 -4.3807,-3.6758 -4.4448,-4.4382 -0.064,-0.7623 -0.1,-1.5964 -0.1,-1.5964l-14.0409 -2.9665 0.064 1.7762 5.3878 2.2509c0,0 -0.1928,2.202 0.6232,4.7338 1.3608,4.2198 4.9506,9.6694 12.696,9.6694 8.6416,0 12.265,-6.1712 13.4402,-10.1058 0.5598,-1.8762 0.2474,-3.1828 0.2474,-3.1828l7.9901 -1.1349 1.3605 -4.9493z"/>
  <path id="_122985912" class="fil2" d="M40.6652 31.2831l-2.814 0.4275c0,0 0.105,2.4513 -1.6968,5.9549 -1.8683,3.6331 -5.6285,5.6629 -5.6285,5.6629l10.2061 -2.2382 -0.0668 -9.8071z"/>
  <path id="_122987368" class="fil3" d="M16.0748 33.0772c0.2196,-0.0601 0.4586,0.0358 0.5317,0.3033l0.375 1.3696c0.0643,0.2356 -0.0841,0.4083 -0.2713,0.4599 -0.1818,0.0496 -0.4016,-0.0168 -0.4671,-0.2575l-0.2697 -0.9848 -0.7811 0.2142 0.2268 0.8291c0.0705,0.257 -0.0764,0.4351 -0.2583,0.485 -0.1873,0.0513 -0.4096,-0.026 -0.4801,-0.2826l-0.2268 -0.8295 -1.1667 0.3192c-0.2677,0.0731 -0.4642,-0.0572 -0.5272,-0.2873 -0.063,-0.2298 0.0399,-0.4423 0.3075,-0.5154l3.0073 -0.8232z"/>
  <path id="_122988976" class="fil3" d="M14.3619 36.293c0.1113,0.2108 0.0302,0.4732 -0.181,0.5845 -0.2108,0.1114 -0.4733,0.0303 -0.5847,-0.1806 -0.1116,-0.2112 -0.0306,-0.4737 0.1806,-0.585 0.2109,-0.1113 0.4734,-0.0303 0.5851,0.1811z"/>
  <path id="_122990920" class="fil3" d="M18.861 37.3811c0.2777,0.2949 0.7203,0.9602 0.3646,1.2949 -0.1454,0.1366 -0.3659,0.1537 -0.5066,0.0042 -0.1557,-0.1659 -0.1205,-0.412 -0.4401,-0.7518 -0.4713,-0.5011 -1.1391,-0.3603 -1.6322,0.1034 -0.4809,0.4523 -0.6459,1.1028 -0.1785,1.6001 0.3197,0.3394 0.6187,0.3172 0.7745,0.4827 0.171,0.1818 0.0689,0.438 -0.0239,0.5254 -0.388,0.365 -1.0508,-0.1617 -1.3326,-0.4608 -0.7716,-0.8206 -0.657,-2.0022 0.1796,-2.7892 0.8409,-0.7909 2.0195,-0.8333 2.7952,-0.0089z"/>
  <path id="_123048640" class="fil3" d="M18.1944 40.8112c0.2037,0.1252 0.2672,0.3923 0.1424,0.5951 -0.1247,0.2034 -0.3918,0.2676 -0.5951,0.1424 -0.2033,-0.1247 -0.2671,-0.3918 -0.1424,-0.5951 0.1252,-0.2033 0.3923,-0.2671 0.5951,-0.1424z"/>
  <path id="_123049648" class="fil3" d="M20.6125 39.3932c0.0688,-0.2688 0.2793,-0.3755 0.5103,-0.3167 0.2314,0.0593 0.365,0.2537 0.2964,0.5226l-0.291 1.1394 1.6884 0.4309 0.2907 -1.1398c0.0688,-0.2689 0.2793,-0.3755 0.5103,-0.3167 0.2314,0.0591 0.365,0.2536 0.2964,0.5224l-0.7791 3.0539c-0.0688,0.2688 -0.2793,0.3755 -0.5102,0.3167 -0.2315,-0.0593 -0.3649,-0.2537 -0.2965,-0.5225l0.299 -1.1718 -1.688 -0.431 -0.2991 1.1723c-0.0688,0.2688 -0.2793,0.3755 -0.5103,0.3163 -0.2314,-0.0588 -0.3649,-0.2534 -0.2964,-0.5221l0.7791 -3.0539z"/>
  <path id="_123050808" class="fil3" d="M27.1775 39.7385c-0.1452,-0.2365 -0.0751,-0.4616 0.1281,-0.5867 0.0899,-0.055 0.2798,-0.0743 0.3936,-0.0273l2.7283 1.0785 0.0093 -0.0058 -1.0988 -1.7872c-0.1452,-0.2364 -0.0756,-0.462 0.1278,-0.5867 0.2032,-0.1252 0.4363,-0.0857 0.5812,0.1507l1.6514 2.6851c0.1454,0.2365 0.0756,0.4616 -0.1276,0.5869 -0.0899,0.0553 -0.2755,0.0718 -0.3939,0.0272l-2.7137 -1.0546 -0.0096 0.0059 1.0843 1.7632c0.1454,0.2364 0.0756,0.4619 -0.1276,0.5867 -0.2032,0.1251 -0.436,0.0857 -0.5812,-0.1508l-1.6516 -2.6851z"/>
  <path id="_123052416" class="fil3" d="M31.7149 35.6405c0.1721,0.1311 0.2389,0.3638 0.1012,0.5447 -0.1382,0.1806 -0.3784,0.221 -0.5804,0.4855 -0.1446,0.1899 -0.1748,0.4395 0.0105,0.5806 0.4544,0.3469 1.2881,-1.3487 2.4259,-0.4801 0.6313,0.4817 0.6267,1.302 0.1617,1.9105 -0.2591,0.3398 -0.8975,1.0114 -1.3126,0.6947 -0.1717,-0.1309 -0.2254,-0.3536 -0.0873,-0.5342 0.1583,-0.2075 0.5187,-0.3234 0.738,-0.6098 0.2222,-0.2911 0.1798,-0.5746 -0.0362,-0.7397 -0.5204,-0.3973 -1.3318,1.3151 -2.3553,0.5338 -0.6179,-0.4712 -0.6141,-1.2717 -0.1663,-1.8581 0.1886,-0.2474 0.7525,-0.7942 1.1008,-0.5279z"/>
  <path id="_123053600" class="fil4" d="M32.0101 34.794c-0.2166,-0.1646 -0.3502,-0.4313 -0.2675,-0.7022 0.0856,-0.2814 0.3314,-0.4212 0.6136,-0.4338l3.205 -0.1605c0.0946,-0.0058 0.1723,0.006 0.2092,0.0173 0.2071,0.063 0.2986,0.2768 0.239,0.4729 -0.068,0.223 -0.2189,0.299 -0.394,0.3037l-0.5476 0.0071 -0.4498 1.4759 0.4451 0.3095c0.1487,0.1033 0.2315,0.2504 0.1651,0.4684 -0.0647,0.212 -0.2789,0.3439 -0.4914,0.2793 -0.0848,-0.0261 -0.1403,-0.0719 -0.1638,-0.0904l-2.5629 -1.9472zm1.9451 0.5289l0.307 -1.0089 -1.6901 0.0252 -0.003 0.0105 1.3861 0.9732z"/>
  <path id="_123054768" class="fil4" d="M24.9267 40.0956c0.0512,-0.2675 0.231,-0.5056 0.5103,-0.5519 0.2903,-0.0482 0.5246,0.1096 0.6611,0.357l1.5679 2.8003c0.047,0.0822 0.071,0.157 0.0773,0.1952 0.0357,0.2134 -0.115,0.3906 -0.3176,0.4242 -0.2301,0.0382 -0.3649,-0.0633 -0.4473,-0.2183l-0.2494 -0.4872 -1.5221 0.2524 -0.0794 0.5363c-0.0269,0.179 -0.1218,0.3184 -0.3461,0.3558 -0.2192,0.0365 -0.4326,-0.0971 -0.4688,-0.3159 -0.0146,-0.0877 0.0017,-0.158 0.0085,-0.1869l0.6056 -3.161zm0.3902 1.977l1.0404 -0.1727 -0.7729 -1.5032 -0.0108 0.0022 -0.2567 1.6737z"/>
  <path id="_123055960" class="fil0" d="M15.8365 32.3641c0.2197,-0.0601 0.4588,0.0357 0.5317,0.3032l0.3752 1.3697c0.0642,0.2356 -0.0841,0.4082 -0.2713,0.4599 -0.182,0.0495 -0.4012,-0.0168 -0.4671,-0.2575l-0.2697 -0.9849 -0.7812 0.2142 0.2268 0.8291c0.0706,0.2571 -0.076,0.435 -0.2583,0.4851 -0.1873,0.0513 -0.4095,-0.0261 -0.48,-0.2827l-0.2268 -0.8295 -1.1669 0.3192c-0.2675,0.0735 -0.4641,-0.0571 -0.527,-0.2869 -0.063,-0.2301 0.0399,-0.4423 0.3074,-0.5157l3.0072 -0.8232z"/>
  <path id="_123056720" class="fil0" d="M14.1238 35.5786c0.1113,0.2112 0.0302,0.4738 -0.181,0.5851 -0.2108,0.1113 -0.4734,0.0302 -0.5847,-0.1806 -0.1118,-0.2112 -0.0307,-0.4738 0.1806,-0.5851 0.2109,-0.1113 0.4734,-0.0302 0.5851,0.1806z"/>
  <path id="_123057968" class="fil0" d="M18.6229 36.668c0.2775,0.2948 0.7203,0.9601 0.3646,1.2949 -0.1454,0.1369 -0.3659,0.1537 -0.5066,0.0041 -0.1559,-0.1658 -0.121,-0.412 -0.4402,-0.7513 -0.4712,-0.5015 -1.139,-0.3608 -1.6321,0.1028 -0.4809,0.4524 -0.646,1.103 -0.1785,1.6003 0.3196,0.3394 0.6186,0.3171 0.7745,0.4826 0.171,0.1823 0.0689,0.438 -0.0239,0.5254 -0.3882,0.3649 -1.0513,-0.1617 -1.3323,-0.4607 -0.7719,-0.8203 -0.6573,-2.0027 0.1793,-2.7893 0.8409,-0.7909 2.0195,-0.8333 2.7952,-0.0088z"/>
  <path id="_123059520" class="fil0" d="M17.9567 40.0968c0.2033,0.1248 0.2668,0.3923 0.142,0.5955 -0.1247,0.2034 -0.3919,0.2669 -0.5951,0.1421 -0.2033,-0.1248 -0.2672,-0.392 -0.1424,-0.5952 0.1251,-0.2032 0.3919,-0.2671 0.5955,-0.1424z"/>
  <path id="_123060768" class="fil0" d="M20.3743 38.6789c0.0689,-0.2689 0.2793,-0.3755 0.5103,-0.3167 0.2314,0.0591 0.365,0.2537 0.2965,0.5224l-0.2911 1.1395 1.6885 0.431 0.2906 -1.14c0.0689,-0.2687 0.2793,-0.3754 0.5104,-0.3162 0.2313,0.0588 0.3649,0.2532 0.2964,0.522l-0.7791 3.054c-0.0688,0.2687 -0.2793,0.3754 -0.5103,0.3165 -0.2314,-0.0587 -0.365,-0.2535 -0.2965,-0.5224l0.299 -1.1719 -1.6884 -0.4308 -0.2986 1.1722c-0.0688,0.2688 -0.2793,0.3755 -0.5103,0.3162 -0.2314,-0.0588 -0.365,-0.2532 -0.2961,-0.522l0.7787 -3.0538z"/>
  <path id="_123062744" class="fil0" d="M26.9394 39.0241c-0.1454,-0.2364 -0.0751,-0.4616 0.1277,-0.5867 0.0898,-0.055 0.2802,-0.0744 0.394,-0.0269l2.7283 1.0782 0.0093 -0.006 -1.0988 -1.787c-0.1454,-0.2365 -0.0752,-0.4616 0.1281,-0.5868 0.2029,-0.1252 0.4355,-0.0856 0.5809,0.1508l1.6514 2.6851c0.1454,0.2364 0.0756,0.4621 -0.1276,0.5867 -0.0899,0.0555 -0.2756,0.0719 -0.394,0.0274l-2.7136 -1.0547 -0.0098 0.0059 1.0845 1.7631c0.1454,0.2366 0.0756,0.4621 -0.1276,0.5869 -0.2034,0.1251 -0.436,0.0856 -0.5814,-0.1504l-1.6514 -2.6856z"/>
  <path id="_123064352" class="fil0" d="M31.4771 34.9262c0.1718,0.131 0.2386,0.3637 0.1009,0.5447 -0.1383,0.1806 -0.3785,0.2209 -0.5806,0.4855 -0.1448,0.1899 -0.1746,0.4393 0.011,0.5809 0.4541,0.3465 1.2877,-1.3491 2.426,-0.4805 0.6308,0.4818 0.6258,1.3016 0.1612,1.9106 -0.2591,0.3398 -0.8976,1.0114 -1.312,0.6947 -0.1723,-0.131 -0.226,-0.3536 -0.0879,-0.5347 0.1584,-0.207 0.5188,-0.3229 0.7376,-0.6093 0.2226,-0.2916 0.1801,-0.5746 -0.0357,-0.7397 -0.5204,-0.3973 -1.3318,1.3151 -2.3554,0.5338 -0.6178,-0.4712 -0.614,-1.2718 -0.1664,-1.8581 0.1886,-0.2469 0.7527,-0.7942 1.1013,-0.5279z"/>
  <path id="_123065992" class="fil5" d="M31.772 34.0809c-0.2168,-0.1651 -0.3502,-0.4318 -0.2676,-0.7027 0.0857,-0.2814 0.3314,-0.4208 0.6137,-0.4338l3.205 -0.1605c0.0946,-0.0063 0.1722,0.0058 0.2092,0.0173 0.2071,0.0629 0.2986,0.2766 0.239,0.4728 -0.068,0.223 -0.2189,0.2991 -0.3944,0.3036l-0.5473 0.0072 -0.4498 1.4759 0.4452 0.3096c0.1487,0.1033 0.2314,0.2504 0.1651,0.4682 -0.0647,0.2122 -0.2789,0.3441 -0.4914,0.2793 -0.0849,-0.0256 -0.1403,-0.0718 -0.1639,-0.0902l-2.5628 -1.9467zm1.9451 0.5284l0.307 -1.0089 -1.6901 0.0247 -0.003 0.011 1.3861 0.9732z"/>
  <path id="_123067184" class="fil5" d="M24.6886 39.3813c0.0512,-0.267 0.231,-0.5053 0.5103,-0.5515 0.2903,-0.0482 0.5246,0.1102 0.6611,0.3571l1.5679 2.8002c0.047,0.0823 0.0709,0.157 0.0773,0.1952 0.0357,0.2139 -0.1152,0.3907 -0.318,0.4242 -0.2297,0.0383 -0.3646,-0.0634 -0.4469,-0.2183l-0.2495 -0.4873 -1.522 0.2525 -0.0799 0.5364c-0.0264,0.1788 -0.1213,0.3187 -0.3456,0.3557 -0.2192,0.0364 -0.4327,-0.097 -0.4688,-0.3159 -0.0146,-0.0878 0.0017,-0.1579 0.008,-0.1873l0.6061 -3.161zm0.3902 1.9774l1.0403 -0.1726 -0.7728 -1.5028 -0.011 0.0017 -0.2565 1.6737z"/>
  <polygon id="_123068376" class="fil2" points="23.2374,9.1742 24.9595,9.1707 24.3505,12.1006 23.222,12.0673 23.2765,12.79 37.4566,10.4005 37.4447,10.7708 11.2367,15.258 11.2383,14.9104 22.7532,12.8459 22.7696,12.0816 21.6133,12.0852 21.0379,9.1695 22.8628,9.1719 23.051,6.5431 "/>
  <path id="_123069384" class="fil2" d="M23.3219 23.6372l-0.0072 10.3839c-0.509,0.0042 -0.9714,-0.042 -1.3831,-0.2558l0.5028 -10.1334c0,0 0.1865,-0.1034 0.8875,0.0053z"/>
  <path id="_123070024" class="fil1" d="M36.2644 11.7994c-2.6843,2.2958 -3.4705,6.0414 -2.6422,9.1595 0.4233,1.5948 1.0923,2.9657 1.9731,4.2287 -3.9165,-1.5823 -9.3548,-2.9405 -13.893,-1.8603 -4.5381,1.0799 -5.6016,2.3744 -6.434,3.5769 -2.8207,-2.0346 -3.6532,-5.503 -3.0106,-9.102 0.1415,-0.7943 0.3285,-1.58 0.5599,-1.9497l23.4468 -4.0531z"/>
  <path id="_123006504" class="fil5" d="M16.648 23.5277c-0.102,-0.4322 0.0726,-0.929 0.4481,-1.0541 0,-0.0341 -0.0134,-0.0118 -0.0021,-0.0349 -0.2503,0 -0.2456,0.1033 -0.496,0.0806 -0.1251,0.1248 -0.3187,-0.0386 -0.4754,0.2238 -0.0143,-0.9605 0.6598,-0.7446 1.2293,-0.7194 0,-0.0344 0.0071,0.037 0.032,-0.0529 -0.2878,0.0361 -0.4082,-0.4019 -0.9808,-0.3604 0.4196,-0.4167 0.8698,-0.3427 1.5373,0.0663 0.8186,0 2.0748,-0.3511 2.0395,-1.8114 -0.034,-0.0226 -0.0437,-0.0941 -0.0659,-0.1054 -0.0269,-0.0899 -0.0459,1.3831 -1.0812,1.5498 0.2268,-0.4427 -0.0369,-1.4587 0.1336,-1.5822 0.0643,-0.1705 -0.3654,0.6826 -0.9971,0.6612 0.2713,-0.5226 -0.0025,-0.8065 0.2499,-1.266 -0.2276,0.3415 -0.9278,-0.2628 -0.871,-0.4335 0.4209,-0.0339 0.9328,-0.1616 1.1717,-0.582 0.9081,0.047 0.8027,-0.7544 0.373,-1.2181 -0.3012,-0.3255 -0.5745,-0.3516 -0.5758,-0.7934 -0.0482,-0.018 -0.0437,0.1706 -0.0542,0.1253 0.0714,0.6013 0.906,0.5131 0.8715,1.5065 -0.0083,0.2494 -0.4939,0.2491 -1.045,0.2516 -0.3918,0.002 -0.6744,0.2255 -0.6867,0.1738 0.2953,-0.4548 0.924,-0.4787 1.3907,-0.706 -0.1743,-0.3234 -0.3843,-0.4423 -0.7796,-0.4069 -0.5561,-0.3071 -0.9899,0.0113 -1.0856,0.081 -0.0248,-0.239 -0.0022,-0.6523 0.0684,-0.8912 0.0811,-0.2378 0.5851,-0.2806 1.2302,-0.3411 0.2725,-0.0253 0.1369,-0.3714 0.9576,-0.3549 0.4494,0.0088 0.898,-0.1928 1.0101,-0.4922 0.1311,0.044 0.1319,0.3141 0.0887,0.4556 -0.0798,0.0567 -0.0344,-0.0067 -0.0803,0.0844 0.0912,0.0907 0.3222,-0.0616 0.5608,-0.1638 -0.0008,0.4499 -0.2004,0.6985 -0.5149,0.7326 0.5345,0.1704 0.3321,1.0504 0.6678,1.2255 -0.0459,0.1592 -0.3244,0.1999 -0.4154,0.1999 -0.0211,0.281 0.2091,0.7997 0.5627,0.9396 0.6527,0.0886 1.4075,-0.738 1.3017,-1.502 -0.1138,-0.824 -0.0954,-1.4124 0.2032,-1.6993 0.6934,-0.3981 1.4117,-0.0836 2.2416,-0.2999 -0.0693,0.6712 -0.5486,0.8492 -0.7631,0.8632 0.4317,0.2158 0.0247,0.6711 -0.2504,0.6972 0.034,0.0113 0.1294,0.0113 0.1558,0.0671 0.2273,0.5687 -0.2297,0.6242 -0.4796,0.7636 0.3414,0.5801 0.1176,0.6275 -0.3352,0.8559 0.0744,0.0371 0.3667,-0.1318 0.4814,-0.0385 0.2103,0.1709 1.8122,0.4074 2.4478,-0.3995 -0.0798,-0.0344 -0.297,-0.0583 -0.2667,-0.1306 0.1932,0 0.6232,-0.1776 0.8962,-0.2688 1.2281,-0.4377 2.6268,0.8703 3.715,0.6375 0.3562,-0.0764 0.6867,-0.4262 -1.3087,-1.247 -1.6393,-0.6741 -0.4818,-2.3574 0.8878,-2.1785 0.142,0.0185 0.491,-0.3553 0.699,-0.3982 0.535,-0.11 1.0692,-0.0231 1.6267,-0.0344 -0.0976,0.8118 -0.7536,0.9072 -0.7057,0.9446 0.1953,0.1327 0.3675,0.5519 0.2516,0.5666 -0.0227,0 -0.2991,-0.1605 -0.3137,-0.1668 -0.019,-0.0092 -0.4633,0.0576 -1.0098,-0.0521 -0.3994,-0.0802 -0.5061,-0.3708 -0.5732,-0.3708 -2.5465,0.7194 0.3805,1.4759 0.5224,1.5213 0.8313,0.265 1.092,1.037 0.8821,1.4145 -0.7128,1.2819 -2.4642,0.284 -3.5025,0.0189 -0.0113,0.0118 0.0109,0.0341 0.0109,0.0454 0.7632,0.4762 0.7439,1.2344 1.7699,1.6582 0.273,0 0.5347,-0.1189 0.8984,-0.2327 0.5545,0.688 1.0928,2.3264 0.1109,2.5536 0,0.1482 -0.3058,0.9908 -0.4507,0.7132 -0.034,0.0114 -0.26,0.0659 -0.2939,0.0887 0.1268,-0.2739 0.1696,-0.507 0.1238,-0.6889 -0.3863,0.0458 -0.5397,0.3323 -0.6648,0.6619 -0.0454,0 -0.1869,0.0424 -0.2327,0.0537 0.0114,-0.3522 -0.0773,-0.5485 0.1499,-0.7756 -0.5485,-0.0429 -0.7535,0.3074 -0.8085,0.2826 0.1215,-0.5481 0.2785,-0.6375 0.7304,-0.6766 0.0798,-0.1252 -0.7526,-0.0546 -0.764,-0.0546 0.8215,-0.8072 0.99,-0.2163 1.5473,-0.2163 0.2957,-0.2957 -0.1625,-0.6758 -0.265,-0.7556 -0.4548,0 -0.7569,0.1692 -1.155,0.1466 -0.2,-0.0504 -0.2457,-0.1869 -0.3369,-0.1756 0.0568,0.0568 -0.0482,0.5859 -0.3561,0.5813 0.16,-0.6859 -0.1765,-0.5691 -0.4608,-0.8989 -1.0344,-4.1735 -4.2991,0.7217 -6.1082,0.4558 0.1039,-0.1672 0.3378,-0.7951 0.3038,-0.9089 -0.1168,0.1449 -0.3457,0.4784 -0.5801,1.2562 -0.2449,0.8455 -2.1227,0.7774 -2.8346,1.3822 -0.1134,0.489 -0.1818,0.822 -0.835,0.9249 0.0841,-0.0702 0.2588,-0.2058 0.2092,-0.3372 -0.1181,-0.3138 0.0306,-0.2479 -0.0126,-0.3982 -0.3474,0.1163 -0.3684,0.4208 -0.5863,0.4502 -0.0971,0.013 -0.1924,0.0181 -0.2378,0.1092 -0.0226,0 -0.0798,0.1924 -0.0911,0.2037zm2.1474 -7.4622c0.2232,-0.0765 0.6725,-0.0109 0.9926,-0.076 -0.0542,0.1159 -0.1689,0.1545 -0.3222,0.1378 -0.155,0.2007 -0.3091,0.2587 -0.4977,0.0285 -0.0537,-0.0327 -0.1444,0.005 -0.1727,-0.0903z"/>
  <path id="_123009912" class="fil0" d="M16.9513 17.6725c-0.3189,-0.1025 -0.4267,-0.2294 -0.5515,-0.389 0.6749,0.2973 1.7833,-0.0756 2.1315,0.1466 -0.5115,0.0798 -1.1138,0.2424 -1.58,0.2424z"/>
  <path id="_123010936" class="fil0" d="M25.2527 17.788c-0.0232,-0.0231 -0.0458,-0.0459 -0.0571,-0.0572 0.0457,-0.0453 0.0911,-0.034 0.1705,-0.0227 0,0.0114 0.0113,0.0227 0.0231,0.034 -0.0118,0.0114 -0.0231,0.0228 -0.0341,0.0459 -0.0344,0 -0.0684,0 -0.1024,0z"/>
  <path id="_123004744" class="fil0" d="M21.4436 18.3678c-0.1436,-0.8367 0.1727,-0.8804 0.0495,-1.1945 -0.2838,-0.7254 -0.2997,-1.1875 -0.0146,-1.5919 0.2276,-0.1138 0.4683,-0.1806 0.8094,-0.1461 -0.1542,0.2491 -0.3797,0.7055 -0.0798,1.3318 0.2255,0.4712 -0.4696,1.4616 -0.7645,1.6007z"/>
  <path id="_123006096" class="fil0" d="M24.7428 18.2297c-0.9325,-0.0907 -1.0433,-0.0705 -0.9253,-0.8837 0.375,-0.1819 0.4079,-0.3981 0.3738,-0.7392 0.5124,-0.323 0.066,-0.5669 0.1227,-0.6922 0.3183,-0.1592 0.5443,-0.4699 0.6468,-0.7997 1.9832,-0.0701 2.2948,-0.2326 3.5116,-0.6648 0.0114,0 0.0437,-0.0395 0.0664,-0.0281 -0.4373,1.2078 -1.5725,1.4036 -2.9649,1.4524 -0.1078,-0.0198 -0.1688,-0.0173 -0.0591,0.0251 0.9407,0.368 1.5246,0.0239 2.4406,-0.2079 -0.3642,1.0933 -1.7225,0.9749 -2.6226,0.9993 0.2026,0.3049 1.3218,0.2393 1.8494,0.144 -0.0454,0.0908 -0.1676,0.2882 -0.1639,0.2234 -0.8643,0.7166 -1.1352,0.5074 -2.2928,0.3575 0,0.0226 0.0198,0.0356 0.0198,0.0697 0.1932,0.1138 0.5465,0.1949 0.8765,0.2861 0,0.0453 -0.0196,0.0613 -0.0281,0.0281 -0.1836,0.2982 -0.5779,0.4074 -0.8509,0.43z"/>
  <path id="_123006288" class="fil0" d="M18.759 21.1704c-0.7443,-0.1815 -2.6894,-1.0803 -2.8372,-1.376 -0.4061,0.2928 -0.9488,0.1021 -1.0852,-0.1822 0,-0.0042 0.1193,-0.0492 0.2809,0.0138 0.0521,-0.1479 0.5204,-0.2016 0.4595,-0.428 -0.1705,-0.1709 -0.2029,-0.0831 -0.2827,-0.1054 -0.181,0.0911 -0.2578,-0.0693 -0.2612,-0.0693 -0.1772,-0.0277 -0.2839,-0.0668 -0.5049,0.1903 0,-0.0454 0.1323,-0.4616 0.1597,-0.4817 0.3373,-0.2499 0.4271,-0.1966 0.9617,-0.174 -0.2087,-0.3104 -0.4438,-0.1462 -0.5006,-0.5292 -0.0306,-0.2037 -0.4452,-0.1411 -0.4595,-0.1746 0.3184,-0.3386 1.0945,-0.1248 1.2878,0.3522 0.023,0 0.0109,0.0951 0.045,0.1064 0.0113,-0.0228 0.0226,-0.1009 0.0344,-0.1235 -0.2051,-0.2701 0.0982,-0.2323 -0.024,-0.6691 1.4049,0.5864 -0.6426,1.7589 1.8396,2.2126 0.0453,0.2839 0.0962,0.591 -0.0113,0.8299 0.2045,0 0.5456,-0.2617 0.8757,-0.307 0,0.2503 0.0109,0.5002 0.0223,0.7619 -0.0223,0 0.0113,0.1416 0,0.1529z"/>
  <path id="_123006360" class="fil0" d="M23.6277 22.6229c-0.0227,-0.0113 0.0941,-0.2041 0.1466,-0.1612 0.1045,-0.1655 0.0171,-0.3046 0.1322,-0.441 -0.0231,-0.0341 -0.0244,-0.0786 -0.047,-0.1017 -0.4095,0.0685 -0.6036,0.2936 -0.8421,0.5439 -0.2193,-0.3784 0.1142,-0.6901 0.2049,-0.7812 -0.1746,0 -0.3813,-0.0227 -0.4212,-0.0437 -0.1289,-0.0676 -0.276,0.1323 -0.3595,0.1865 0.0189,-0.8976 0.9681,-0.4583 1.0441,-0.5763 -0.0462,-0.1151 -0.0504,-0.2721 -0.1391,-0.2406 -0.1238,0.0441 -0.4573,-0.0194 -0.4573,-0.1915 0.8614,-0.6376 1.2525,0.6354 2.1677,0.0987 -0.1273,-0.2856 -0.1572,-0.6367 -0.0395,-0.7539 -0.3192,0.2263 -0.46,0.1273 -0.6073,-0.1588 0.3469,0.034 1.0315,-1.6204 2.4797,-0.8841 0,0.0231 0,0.0458 0,0.0684 -0.6972,0.6439 -0.6246,1.179 -0.3289,2.0203 -0.0747,0.9908 -1.9292,0.3586 -2.5318,1.3372 -0.1021,0.0228 -0.3104,0.0564 -0.4015,0.079z"/>
 </g>
</svg>
