<?xml version="1.0" encoding="UTF-8" standalone="no"?>
<!-- Created with Inkscape (http://www.inkscape.org/) -->
<svg
   xmlns:svg="http://www.w3.org/2000/svg"
   xmlns="http://www.w3.org/2000/svg"
   version="1.0"
   width="300"
   height="300"
   id="svg7666">
  <defs
     id="defs3" />
  <g
     transform="translate(-30.176787,-35.17437)"
     id="layer1">
    <g
       id="g7775">
      <path
         d="M 325.14606,185.17444 C 325.14606,265.29519 260.22499,330.17437 180.1668,330.17437 C 100.10724,330.17437 35.207516,265.29519 35.207516,185.17444 C 35.207516,105.05368 100.10724,40.17437 180.1668,40.17437 C 260.22499,40.17437 325.14606,105.05368 325.14606,185.17444"
         style="font-size:9px;letter-spacing:0;word-spacing:0;fill:#ed3224;fill-rule:nonzero;stroke:none;stroke-width:0.5;stroke-linecap:butt;stroke-linejoin:miter;stroke-miterlimit:10;stroke-dasharray:none;font-family:fnt1"
         id="path1367" />
      <path
         d="M 314.99105,185.17444 C 314.99105,259.73402 254.6226,320.08206 180.1668,320.08206 C 105.70967,320.08206 45.361182,259.73402 45.361182,185.17444 C 45.361182,110.82068 105.70967,50.472637 180.1668,50.472637 C 254.6226,50.472637 314.99105,110.82068 314.99105,185.17444"
         style="font-size:9px;letter-spacing:0;word-spacing:0;fill:#ffffff;fill-rule:nonzero;stroke:none;stroke-width:0.5;stroke-linecap:butt;stroke-linejoin:miter;stroke-miterlimit:10;stroke-dasharray:none;font-family:fnt1"
         id="path1369" />
      <path
         d="M 218.55787,226.57358 C 180.84576,229.869 150.71289,248.19989 136.00661,258.70425 C 136.72825,253.1432 137.09908,247.58202 137.09908,242.22694 C 137.09908,235.22408 136.52149,228.42718 135.51307,222.04232 C 144.53425,215.65732 173.34922,196.91438 209.16585,194.64875 C 250.17403,192.17717 273.79879,180.43721 292.3974,167.46127 C 297.64897,182.49676 301.72672,194.03088 302.387,195.88461 C 285.97065,208.65446 261.56424,222.86614 218.55787,226.57358 z M 122.53685,181.8789 C 132.65051,175.28795 162.94745,157.98682 195.0785,156.13323 C 230.87512,154.27951 258.47491,145.62888 279.15308,129.76957 C 282.9427,140.6857 287.00043,152.21983 290.64599,162.51809 C 277.36165,171.99254 253.9223,186.61612 208.85772,189.49962 C 173.65736,191.5593 145.64672,208.65446 134.48329,216.48114 C 131.7648,203.09342 127.27354,191.35334 122.53685,181.8789 z M 125.95564,263.44147 L 77.348181,146.04079 C 81.117785,147.27665 84.659303,147.89451 87.296428,148.30642 C 89.84952,150.77801 101.8173,162.72405 112.01237,181.67294 C 122.59822,201.23969 127.91249,221.42432 127.91249,241.81502 C 127.91249,249.02384 127.25354,256.23266 125.95564,263.44147 z M 123.44257,292.89458 C 122.72227,292.27672 122.4128,291.45277 122.4128,290.423 C 122.4128,288.98118 122.80497,287.74545 123.36121,286.71554 L 126.65595,294.54235 C 125.35806,294.13031 124.20556,293.71839 123.44257,292.89458 z M 118.62319,128.32776 L 118.84995,128.1218 L 119.07671,128.1218 C 119.24211,127.91585 134.87413,118.64736 166.96383,117.41163 C 203.39939,115.96982 224.7992,109.79091 239.38143,104.8476 C 248.9175,101.34623 259.13386,94.549332 265.12709,90.018062 C 266.48634,93.725513 271.44979,107.93718 277.36165,124.8264 C 257.36244,140.47975 230.31889,149.13038 194.79038,150.98397 C 161.48549,152.83769 131.02314,170.34477 120.16784,177.14167 C 120.10648,177.14167 120.06513,176.93572 120.00378,176.93572 C 111.24938,160.66437 101.48783,149.54228 96.420331,144.1872 C 107.39839,133.68284 118.50047,128.32776 118.62319,128.32776 z M 146.24298,306.69435 C 147.52086,307.93007 148.13846,309.57785 148.15846,311.84347 C 148.13846,312.04943 147.9944,314.31506 147.85033,316.16866 L 143.19501,304.84062 C 144.32749,305.25252 145.41996,305.87039 146.24298,306.69435 z M 269.51429,74.57067 L 264.38544,78.895982 C 264.24138,78.895982 249.06156,91.665832 236.31212,95.991147 C 222.34748,100.93433 201.79203,106.70132 166.593,108.14314 C 133.53489,109.37887 116.68769,118.64736 114.48408,119.88322 C 112.58861,120.91299 99.180174,127.50394 86.760208,140.89166 C 83.402762,140.2738 78.851493,139.24402 74.629692,137.3903 C 78.707431,134.5068 80.932378,130.79934 79.881254,128.1218 C 78.419297,124.00245 71.33361,122.97267 64.001154,125.65022 C 56.690023,128.32776 51.931993,133.68284 53.39395,137.59625 C 54.423731,140.47975 58.337397,141.92157 63.136781,141.50965 L 119.79702,278.06504 C 116.97581,280.74258 114.17462,284.65599 114.17462,290.423 C 114.17462,293.71839 115.43116,296.80799 117.82018,298.86753 C 121.19761,302.16307 126.32648,303.19285 130.42556,303.81071 L 138.54326,322.97316 L 149.62175,320.49397 L 149.08553,319.05229 L 155.8831,319.67014 L 156.39799,312.04943 L 156.39799,311.84347 C 156.39799,307.3122 154.85332,303.60476 151.90806,300.72125 C 148.03575,297.01394 142.70147,295.98404 139.38539,295.77808 L 130.77504,274.9756 L 132.48511,273.32783 C 132.85593,273.12187 169.78503,239.96131 219.36087,235.84194 C 267.12528,231.72272 293.30313,215.24542 310.76926,201.23969 L 313.34368,199.18002 L 269.51429,74.57067"
         style="font-size:9px;letter-spacing:0;word-spacing:0;fill:#ed3224;fill-rule:nonzero;stroke:none;stroke-width:0.5;stroke-linecap:butt;stroke-linejoin:miter;stroke-miterlimit:10;stroke-dasharray:none;font-family:fnt1"
         id="path1371" />
      <path
         d="M 153.92627,244.49258 L 143.97801,226.77954 L 139.42674,229.25113 L 138.99321,222.66018 L 146.32568,218.54082 L 159.19917,241.40312 L 153.92627,244.49258"
         style="font-size:9px;letter-spacing:0;word-spacing:0;fill:#ed3224;fill-rule:nonzero;stroke:none;stroke-width:0.5;stroke-linecap:butt;stroke-linejoin:miter;stroke-miterlimit:10;stroke-dasharray:none;font-family:fnt1"
         id="path1373" />
      <path
         d="M 167.41736,237.28377 L 173.65736,234.60621 L 174.48171,228.01527 C 174.9139,224.92581 175.07929,222.45423 174.97525,220.6005 C 174.85253,218.74677 174.48171,217.09914 173.86412,215.65732 C 172.69027,212.97978 171.00022,211.12606 168.7766,210.30223 C 166.55165,209.27233 164.14263,209.47842 161.54685,210.50819 C 158.95108,211.74392 157.24234,213.39169 156.39799,215.65732 C 155.55362,217.92296 155.73904,220.39454 156.89153,223.07209 C 157.85994,225.33773 159.28188,226.9855 161.15602,227.80931 C 163.00881,228.63313 164.90429,228.83922 166.77842,228.01527 C 167.2106,227.80931 167.62278,227.60336 167.9736,227.3974 C 168.34442,226.9855 168.67389,226.77954 168.96201,226.57358 L 167.41736,237.28377 z M 164.10128,222.86614 C 163.21556,222.45423 162.51526,221.63041 162.02038,220.6005 C 161.50551,219.36477 161.4228,218.33487 161.73227,217.51105 C 162.04173,216.48114 162.72068,215.86328 163.75045,215.45137 C 164.78023,214.8335 165.74865,214.8335 166.63436,215.24542 C 167.54008,215.65732 168.24038,216.48114 168.73525,217.51105 C 169.25014,218.74677 169.33285,219.77669 169.02338,220.80646 C 168.71392,221.63041 168.03495,222.24827 166.98384,222.86614 C 165.95407,223.27804 165.00699,223.27804 164.10128,222.86614"
         style="font-size:9px;letter-spacing:0;word-spacing:0;fill:#ed3224;fill-rule:nonzero;stroke:none;stroke-width:0.5;stroke-linecap:butt;stroke-linejoin:miter;stroke-miterlimit:10;stroke-dasharray:none;font-family:fnt1"
         id="path1375" />
      <path
         d="M 191.43294,204.12319 C 189.188,202.26961 186.67491,201.65161 183.89373,202.47556 C 181.13388,203.29938 179.3211,205.1531 178.41539,207.83065 C 177.52968,210.71415 177.67374,214.21564 178.86892,218.33487 C 180.08409,222.45423 181.81417,225.33773 184.10048,227.19145 C 186.36545,229.04517 188.87852,229.66304 191.61836,228.83922 C 194.3782,228.01527 196.21099,226.36763 197.0967,223.484 C 198.00242,220.80646 197.85836,217.3051 196.66452,213.39169 C 195.42799,209.06638 193.6779,205.97692 191.43294,204.12319 z M 183.6683,210.30223 C 183.77101,208.86042 184.34726,208.0366 185.37703,207.62469 C 186.40681,207.41873 187.35387,207.83065 188.19823,209.06638 C 189.04393,210.09628 189.86694,212.15596 190.66995,214.8335 C 191.49431,217.51105 191.84512,219.77669 191.76242,221.01241 C 191.65971,222.45423 191.10348,223.27804 190.0737,223.68996 C 189.04393,223.89591 188.09553,223.484 187.25116,222.45423 C 186.40681,221.21836 185.56244,219.36477 184.73808,216.48114 C 183.93508,213.8036 183.56426,211.74392 183.6683,210.30223"
         style="font-size:9px;letter-spacing:0;word-spacing:0;fill:#ed3224;fill-rule:nonzero;stroke:none;stroke-width:0.5;stroke-linecap:butt;stroke-linejoin:miter;stroke-miterlimit:10;stroke-dasharray:none;font-family:fnt1"
         id="path1377" />
      <path
         d="M 208.81637,224.102 L 205.91247,204.12319 L 200.74225,204.94715 L 202.69909,198.56215 L 211.03998,197.32642 L 214.8096,223.27804 L 208.81637,224.102"
         style="font-size:9px;letter-spacing:0;word-spacing:0;fill:#ed3224;fill-rule:nonzero;stroke:none;stroke-width:0.5;stroke-linecap:butt;stroke-linejoin:miter;stroke-miterlimit:10;stroke-dasharray:none;font-family:fnt1"
         id="path1379" />
      <path
         d="M 245.58141,219.15882 L 238.61977,193.61898 L 255.87914,188.88175 L 257.4038,194.4428 L 247.5996,197.12034 L 248.81479,201.65161 L 258.06274,199.18002 L 259.56605,204.53524 L 250.29809,207.21279 L 251.47192,211.33201 L 261.27611,208.65446 L 262.84078,214.4216 L 245.58141,219.15882"
         style="font-size:9px;letter-spacing:0;word-spacing:0;fill:#ed3224;fill-rule:nonzero;stroke:none;stroke-width:0.5;stroke-linecap:butt;stroke-linejoin:miter;stroke-miterlimit:10;stroke-dasharray:none;font-family:fnt1"
         id="path1381" />
      <path
         d="M 264.40677,210.50819 C 264.03595,209.47842 264.03595,208.65446 264.36543,207.83065 C 264.71491,206.80074 265.33251,206.18288 266.19821,205.97692 C 267.10393,205.56502 267.96964,205.56502 268.834,205.97692 C 269.67837,206.38883 270.29729,207.21279 270.66813,208.0366 C 271.01761,209.06638 271.03895,210.09628 270.68813,210.9201 C 270.33865,211.74392 269.69971,212.36192 268.814,212.77383 C 267.9483,213.18573 267.08393,212.97978 266.23957,212.56787 C 265.37386,212.15596 264.77761,211.53796 264.40677,210.50819"
         style="font-size:9px;letter-spacing:0;word-spacing:0;fill:#ed3224;fill-rule:nonzero;stroke:none;stroke-width:0.5;stroke-linecap:butt;stroke-linejoin:miter;stroke-miterlimit:10;stroke-dasharray:none;font-family:fnt1"
         id="path1383" />
      <path
         d="M 280.9872,206.80074 L 259.73145,187.85198 L 265.99278,184.55644 L 277.13488,195.67865 C 277.23759,195.67865 277.50571,196.09057 277.89654,196.50248 C 278.30872,196.91438 278.8236,197.53238 279.48256,198.35621 C 279.27713,197.53238 279.09172,196.91438 278.92632,196.09057 C 278.76224,195.47271 278.65954,195.06079 278.61819,194.85484 L 276.10511,179.40731 L 282.36645,176.1119 L 285.47711,204.32915 L 280.9872,206.80074"
         style="font-size:9px;letter-spacing:0;word-spacing:0;fill:#ed3224;fill-rule:nonzero;stroke:none;stroke-width:0.5;stroke-linecap:butt;stroke-linejoin:miter;stroke-miterlimit:10;stroke-dasharray:none;font-family:fnt1"
         id="path1385" />
      <path
         d="M 291.18221,197.73834 C 290.62597,196.70844 290.41922,195.88461 290.56462,195.06079 C 290.70867,194.03088 291.16088,193.20707 291.94387,192.79516 C 292.74689,192.17717 293.61259,192.17717 294.53965,192.38325 C 295.46538,192.58921 296.20703,193.00111 296.78461,194.03088 C 297.34085,194.85484 297.54627,195.67865 297.40221,196.70844 C 297.25815,197.53238 296.78461,198.35621 295.98026,198.97407 C 295.21861,199.38598 294.37424,199.59193 293.42718,199.38598 C 292.50011,198.97407 291.75846,198.56215 291.18221,197.73834"
         style="font-size:9px;letter-spacing:0;word-spacing:0;fill:#ed3224;fill-rule:nonzero;stroke:none;stroke-width:0.5;stroke-linecap:butt;stroke-linejoin:miter;stroke-miterlimit:10;stroke-dasharray:none;font-family:fnt1"
         id="path1387" />
      <path
         d="M 184.03779,128.32776 C 182.98801,126.67999 181.71147,125.44426 180.18681,124.2084 C 178.66216,123.17863 176.99478,122.56076 175.22336,122.14886 C 173.45194,121.73681 171.6805,121.73681 169.95043,122.14886 C 168.17901,122.56076 166.57299,123.38458 165.13105,124.41449 C 163.6891,125.44426 162.51526,126.88607 161.5882,128.32776 C 160.61979,129.97553 160.00219,131.82926 159.73407,133.68284 C 159.46729,135.53657 159.54866,137.3903 159.98218,139.44998 C 160.41437,141.30357 161.13467,143.1573 162.1858,144.59911 C 163.21556,146.24688 164.51345,147.68857 166.07812,148.71847 C 167.60277,149.74824 169.2288,150.36611 171.00022,150.77801 C 172.77165,151.19005 174.52305,151.19005 176.29448,150.77801 C 178.02455,150.36611 179.61057,149.74824 181.05251,148.71847 C 182.51447,147.48261 183.70832,146.24688 184.67674,144.59911 C 185.60379,142.95134 186.22139,141.09761 186.48951,139.24402 C 186.75762,137.3903 186.67491,135.53657 186.24273,133.68284 C 185.80922,131.62317 185.06756,129.76957 184.03779,128.32776 z M 169.78503,143.36324 C 168.24038,142.12752 167.23194,140.2738 166.69572,137.8022 C 166.20217,135.53657 166.36624,133.47689 167.25196,131.82926 C 168.11766,129.97553 169.47691,128.94562 171.35104,128.53372 C 173.16381,128.1218 174.85253,128.53372 176.41721,129.76957 C 177.9832,131.0053 179.01298,132.85903 179.52786,135.12466 C 180.04275,137.3903 179.85733,139.44998 178.99164,141.30357 C 178.10593,142.95134 176.74667,144.1872 174.89389,144.59911 C 173.01975,145.01102 171.30969,144.59911 169.78503,143.36324"
         style="font-size:9px;letter-spacing:0;word-spacing:0;fill:#ed3224;fill-rule:nonzero;stroke:none;stroke-width:0.5;stroke-linecap:butt;stroke-linejoin:miter;stroke-miterlimit:10;stroke-dasharray:none;font-family:fnt1"
         id="path1389" />
      <path
         d="M 190.27912,144.59911 C 190.21776,143.5692 190.48454,142.53943 191.08213,141.92157 C 191.69974,141.09761 192.48273,140.6857 193.45114,140.47975 C 194.43956,140.47975 195.28392,140.89166 196.00557,141.50965 C 196.70587,142.12752 197.0967,143.1573 197.15806,144.1872 C 197.22075,145.21697 196.95264,146.24688 196.33505,147.0707 C 195.71611,147.68857 194.9131,148.10047 193.94468,148.30642 C 192.9776,148.30642 192.15326,148.10047 191.45295,147.27665 C 190.73265,146.65879 190.36183,145.62888 190.27912,144.59911"
         style="font-size:9px;letter-spacing:0;word-spacing:0;fill:#ed3224;fill-rule:nonzero;stroke:none;stroke-width:0.5;stroke-linecap:butt;stroke-linejoin:miter;stroke-miterlimit:10;stroke-dasharray:none;font-family:fnt1"
         id="path1391" />
      <path
         d="M 203.93428,146.86474 L 200.37143,119.26522 L 219.07275,116.79363 L 219.85576,122.97267 L 209.24856,124.2084 L 209.8875,129.15157 L 219.8771,127.91585 L 220.63876,133.68284 L 210.64916,135.12466 L 212.02975,145.83484 L 203.93428,146.86474"
         style="font-size:9px;letter-spacing:0;word-spacing:0;fill:#ed3224;fill-rule:nonzero;stroke:none;stroke-width:0.5;stroke-linecap:butt;stroke-linejoin:miter;stroke-miterlimit:10;stroke-dasharray:none;font-family:fnt1"
         id="path1393" />
      <path
         d="M 223.83079,140.89166 C 223.60403,139.86188 223.76942,138.83198 224.34567,138.00816 C 224.9019,137.18434 225.70492,136.56648 226.77604,136.36039 C 227.86851,136.15443 228.83559,136.36039 229.72131,136.77243 C 230.607,137.3903 231.16324,138.21411 231.39001,139.24402 C 231.61677,140.2738 231.45138,141.30357 230.87512,142.12752 C 230.29888,143.1573 229.47453,143.5692 228.40341,143.98124 C 227.35363,144.1872 226.38521,143.98124 225.4995,143.36324 C 224.61379,142.74538 224.05755,141.92157 223.83079,140.89166"
         style="font-size:9px;letter-spacing:0;word-spacing:0;fill:#ed3224;fill-rule:nonzero;stroke:none;stroke-width:0.5;stroke-linecap:butt;stroke-linejoin:miter;stroke-miterlimit:10;stroke-dasharray:none;font-family:fnt1"
         id="path1395" />
      <path
         d="M 251.57464,107.31919 L 254.5399,115.14599 C 253.05793,114.52799 251.67734,114.11609 250.42081,114.11609 C 249.16427,113.91013 247.92908,114.11609 246.71389,114.52799 C 244.46893,115.5579 242.90294,116.79363 242.03856,118.85332 C 241.17286,120.70703 241.17286,122.76672 242.03856,125.03235 C 242.82156,127.09203 244.20081,128.53372 246.13765,129.35767 C 248.09314,130.38744 250.17403,130.38744 252.35763,129.35767 C 253.57282,128.94562 254.6226,128.32776 255.50831,127.50394 C 256.37402,126.47403 257.13568,125.2383 257.79462,123.79649 L 260.76122,131.62317 C 259.73145,132.65307 258.63898,133.47689 257.50651,134.30084 C 256.37402,134.91871 255.17885,135.53657 253.9223,135.94848 C 252.35763,136.56648 250.83299,136.97838 249.39103,137.18434 C 247.92908,137.3903 246.50848,137.3903 245.14789,136.97838 C 242.49209,136.56648 240.22578,135.53657 238.33165,133.8888 C 236.45618,132.44712 235.03557,130.38744 234.0885,127.91585 C 233.32551,125.85617 232.99603,124.00245 233.07873,121.9429 C 233.18145,120.08917 233.67633,118.23545 234.62339,116.38172 C 235.4891,114.52799 236.66294,113.08632 238.14623,111.6445 C 239.60819,110.40877 241.39963,109.37887 243.50052,108.55505 C 244.75705,108.14314 246.05495,107.73123 247.39284,107.52527 C 248.73209,107.31919 250.11268,107.31919 251.57464,107.31919"
         style="font-size:9px;letter-spacing:0;word-spacing:0;fill:#ed3224;fill-rule:nonzero;stroke:none;stroke-width:0.5;stroke-linecap:butt;stroke-linejoin:miter;stroke-miterlimit:10;stroke-dasharray:none;font-family:fnt1"
         id="path1397" />
      <path
         d="M 262.30588,127.91585 C 261.76965,126.88607 261.58424,125.85617 261.791,125.03235 C 261.97641,124.00245 262.51131,123.38458 263.35566,122.76672 C 264.20003,122.3548 265.10709,122.14886 266.05415,122.56076 C 266.98122,122.76672 267.72286,123.38458 268.2791,124.41449 C 268.814,125.2383 268.9794,126.26808 268.77264,127.29799 C 268.58724,128.32776 268.05234,128.94562 267.20798,129.56362 C 266.38363,129.97553 265.47791,129.97553 264.5295,129.76957 C 263.58243,129.35767 262.84078,128.73967 262.30588,127.91585"
         style="font-size:9px;letter-spacing:0;word-spacing:0;fill:#ed3224;fill-rule:nonzero;stroke:none;stroke-width:0.5;stroke-linecap:butt;stroke-linejoin:miter;stroke-miterlimit:10;stroke-dasharray:none;font-family:fnt1"
         id="path1399" />
      <path
         d="M 139.44674,208.24256 L 126.14106,183.73262 L 132.25834,180.43721 L 138.29292,191.5593 L 139.40539,176.52381 L 146.5938,172.6104 L 144.71967,189.08771 L 160.64113,196.91438 L 152.93783,201.03375 L 139.59081,194.03088 L 145.56402,204.94715 L 139.44674,208.24256"
         style="font-size:9px;letter-spacing:0;word-spacing:0;fill:#ed3224;fill-rule:nonzero;stroke:none;stroke-width:0.5;stroke-linecap:butt;stroke-linejoin:miter;stroke-miterlimit:10;stroke-dasharray:none;font-family:fnt1"
         id="path1401" />
      <path
         d="M 162.1858,196.70844 L 151.82536,170.75681 L 158.39617,168.07927 L 168.75526,194.23684 L 162.1858,196.70844"
         style="font-size:9px;letter-spacing:0;word-spacing:0;fill:#ed3224;fill-rule:nonzero;stroke:none;stroke-width:0.5;stroke-linecap:butt;stroke-linejoin:miter;stroke-miterlimit:10;stroke-dasharray:none;font-family:fnt1"
         id="path1403" />
      <path
         d="M 181.34065,162.10619 L 183.6683,170.13882 C 182.43177,169.315 181.27795,168.69713 180.20682,168.49117 C 179.13703,168.28523 178.0659,168.28523 177.01479,168.69713 C 175.07929,169.10904 173.6987,170.34477 172.9157,172.1985 C 172.13404,173.84627 172.07135,175.90594 172.73028,178.17158 C 173.34922,180.43721 174.48171,182.08485 176.12907,183.11476 C 177.75644,184.14453 179.52786,184.35048 181.42201,183.93858 C 182.47312,183.52667 183.37884,182.9088 184.14183,182.08485 C 184.9235,181.46699 185.60379,180.23126 186.18004,178.9954 L 188.52904,187.02803 C 187.62199,187.85198 186.67491,188.46984 185.7065,189.08771 C 184.71808,189.70557 183.6883,190.11761 182.59718,190.52952 C 181.25793,190.94144 179.96005,191.14739 178.70351,191.14739 C 177.46832,191.14739 176.27315,190.73548 175.09931,190.32357 C 172.85435,189.49962 170.9602,188.26389 169.41421,186.61612 C 167.84954,184.7624 166.69572,182.70285 165.95407,180.02517 C 165.35781,177.96563 165.13105,176.1119 165.25377,174.25817 C 165.37783,172.40445 165.85135,170.55086 166.69572,168.69713 C 167.49872,167.25532 168.5285,165.81363 169.82639,164.78373 C 171.10426,163.75396 172.64892,162.93001 174.44036,162.31214 C 175.53149,162.10619 176.64397,161.90023 177.79778,161.90023 C 178.93028,161.69428 180.12545,161.90023 181.34065,162.10619"
         style="font-size:9px;letter-spacing:0;word-spacing:0;fill:#ed3224;fill-rule:nonzero;stroke:none;stroke-width:0.5;stroke-linecap:butt;stroke-linejoin:miter;stroke-miterlimit:10;stroke-dasharray:none;font-family:fnt1"
         id="path1405" />
      <path
         d="M 191.49431,187.43994 L 188.56906,159.63459 L 195.46934,158.81078 L 196.80857,171.37467 L 203.56346,157.98682 L 211.67893,157.16301 L 203.6675,171.58063 L 215.4272,184.7624 L 206.73548,185.7923 L 197.0967,174.25817 L 198.39459,186.61612 L 191.49431,187.43994"
         style="font-size:9px;letter-spacing:0;word-spacing:0;fill:#ed3224;fill-rule:nonzero;stroke:none;stroke-width:0.5;stroke-linecap:butt;stroke-linejoin:miter;stroke-miterlimit:10;stroke-dasharray:none;font-family:fnt1"
         id="path1407" />
      <path
         d="M 218.76462,184.96835 L 214.39743,157.36896 L 231.32866,154.69142 L 232.27572,160.66437 L 222.67695,162.31214 L 223.43995,167.04936 L 232.48114,165.60755 L 233.40821,171.58063 L 224.36702,173.02244 L 225.10733,177.75954 L 234.7061,176.1119 L 235.6745,182.2908 L 218.76462,184.96835"
         style="font-size:9px;letter-spacing:0;word-spacing:0;fill:#ed3224;fill-rule:nonzero;stroke:none;stroke-width:0.5;stroke-linecap:butt;stroke-linejoin:miter;stroke-miterlimit:10;stroke-dasharray:none;font-family:fnt1"
         id="path1409" />
      <path
         d="M 250.42081,178.37754 L 246.982,167.87318 L 256.49674,176.31786 L 264.65356,173.64031 L 253.9223,165.40159 C 255.71507,164.16586 256.8889,162.93001 257.4865,161.28236 C 258.06274,159.63459 258.00138,157.78088 257.32109,155.72119 C 256.8889,154.48546 256.20861,153.24961 255.3229,152.21983 C 254.43719,151.39601 253.38741,150.57206 252.19223,150.16015 C 251.14245,149.74824 249.98862,149.74824 248.73209,149.74824 C 247.47555,149.95419 245.37466,150.57206 242.4094,151.39601 L 234.85016,154.07355 L 243.64457,180.64317 L 250.42081,178.37754 z M 243.48051,157.36896 L 244.92246,156.75109 C 246.48712,156.33919 247.70232,156.13323 248.54668,156.54515 C 249.41237,156.95705 250.04999,157.78088 250.50351,159.01673 C 250.87433,160.25246 250.79163,161.07642 250.25674,161.90023 C 249.72051,162.72405 248.67073,163.34205 247.12606,163.95991 L 245.78683,164.37182 L 243.48051,157.36896"
         style="font-size:9px;letter-spacing:0;word-spacing:0;fill:#ed3224;fill-rule:nonzero;stroke:none;stroke-width:0.5;stroke-linecap:butt;stroke-linejoin:miter;stroke-miterlimit:10;stroke-dasharray:none;font-family:fnt1"
         id="path1411" />
      <path
         d="M 267.3934,161.90023 C 269.01942,162.51809 270.48271,162.72405 271.75925,162.72405 C 273.0358,162.72405 274.14828,162.51809 275.09534,161.90023 C 275.98105,161.48832 276.55864,160.87046 276.86677,160.04651 C 277.15623,159.22269 277.09353,158.39887 276.66135,157.57492 C 276.18781,156.95705 275.59023,156.33919 274.82857,156.33919 C 274.08692,156.13323 272.70632,156.33919 270.68813,156.95705 C 267.9483,157.57492 265.80739,157.78088 264.22137,157.16301 C 262.65537,156.75109 261.35748,155.72119 260.30769,153.8676 C 258.96845,151.60197 258.63898,149.33633 259.33928,146.86474 C 260.03959,144.59911 261.62559,142.53943 264.09732,141.09761 C 265.43656,140.47975 266.7958,139.86188 268.21641,139.44998 C 269.61701,139.24402 271.05895,139.03807 272.54226,139.24402 L 273.24255,145.01102 C 272.11006,144.80507 271.05895,144.80507 270.07053,145.01102 C 269.10212,145.21697 268.21641,145.42293 267.43341,145.83484 C 266.65174,146.24688 266.0955,146.86474 265.82739,147.48261 C 265.53926,148.30642 265.58061,148.92442 265.9301,149.54228 C 266.28091,150.16015 266.7958,150.36611 267.43341,150.57206 C 268.09369,150.57206 269.14347,150.57206 270.58543,150.16015 C 270.68813,150.16015 270.79083,150.16015 270.93491,149.95419 C 274.04556,149.13038 276.29053,148.92442 277.64977,149.33633 C 278.57683,149.54228 279.4212,149.95419 280.2042,150.77801 C 280.9872,151.39601 281.66615,152.21983 282.26375,153.24961 C 283.74704,155.72119 284.11787,158.39887 283.33486,160.87046 C 282.55186,163.548 280.73909,165.60755 277.93789,167.25532 C 276.24918,168.07927 274.54045,168.69713 272.83039,168.90309 C 271.12031,169.315 269.26753,169.10904 267.26934,168.69713 L 267.3934,161.90023"
         style="font-size:9px;letter-spacing:0;word-spacing:0;fill:#ed3224;fill-rule:nonzero;stroke:none;stroke-width:0.5;stroke-linecap:butt;stroke-linejoin:miter;stroke-miterlimit:10;stroke-dasharray:none;font-family:fnt1"
         id="path1413" />
      <path
         d="M 235.77722,202.06365 L 219.65034,212.97978 L 219.65034,217.51105 L 235.77722,206.38883 L 235.77722,202.06365"
         style="font-size:9px;letter-spacing:0;word-spacing:0;fill:#ed3224;fill-rule:nonzero;stroke:none;stroke-width:0.5;stroke-linecap:butt;stroke-linejoin:miter;stroke-miterlimit:10;stroke-dasharray:none;font-family:fnt1"
         id="path1415" />
      <path
         d="M 134.38058,157.57492 C 133.76165,158.39887 132.46509,158.60482 131.53804,157.98682 L 121.15759,150.98397 C 120.23054,150.36611 119.96243,149.13038 120.60136,148.30642 L 121.52709,146.86474 C 122.16603,145.83484 123.46392,145.62888 124.39098,146.24688 L 134.77142,153.24961 C 135.69847,153.8676 135.94524,155.10332 135.32766,156.13323 L 134.38058,157.57492"
         style="font-size:9px;letter-spacing:0;word-spacing:0;fill:#ed3224;fill-rule:nonzero;stroke:none;stroke-width:0.5;stroke-linecap:butt;stroke-linejoin:miter;stroke-miterlimit:10;stroke-dasharray:none;font-family:fnt1"
         id="path1417" />
      <path
         d="M 112.36185,153.66165 C 112.36185,153.66165 112.03237,159.01673 119.03536,162.10619 C 119.03536,162.10619 122.4128,160.04651 122.78363,155.51524 C 122.78363,155.51524 120.14783,151.60197 112.36185,153.66165"
         style="font-size:9px;letter-spacing:0;word-spacing:0;fill:#ed3224;fill-rule:nonzero;stroke:none;stroke-width:0.5;stroke-linecap:butt;stroke-linejoin:miter;stroke-miterlimit:10;stroke-dasharray:none;font-family:fnt1"
         id="path1419" />
      <path
         d="M 115.65792,137.59625 C 115.65792,137.59625 112.62995,141.50965 112.30049,145.42293 C 112.30049,145.42293 111.39476,147.89451 115.2044,150.36611 C 115.2044,150.36611 122.37279,143.36324 125.77024,134.30084 C 125.77024,134.30084 123.79339,132.24116 120.8268,133.06498 C 120.8268,133.06498 118.02693,133.8888 115.65792,137.59625"
         style="font-size:9px;letter-spacing:0;word-spacing:0;fill:#ed3224;fill-rule:nonzero;stroke:none;stroke-width:0.5;stroke-linecap:butt;stroke-linejoin:miter;stroke-miterlimit:10;stroke-dasharray:none;font-family:fnt1"
         id="path1421" />
      <path
         d="M 132.58782,166.01959 C 132.58782,166.01959 132.89728,160.45842 125.89429,157.57492 C 125.89429,157.57492 122.51685,159.63459 122.14603,164.16586 C 122.14603,164.16586 124.78182,168.07927 132.58782,166.01959"
         style="font-size:9px;letter-spacing:0;word-spacing:0;fill:#ed3224;fill-rule:nonzero;stroke:none;stroke-width:0.5;stroke-linecap:butt;stroke-linejoin:miter;stroke-miterlimit:10;stroke-dasharray:none;font-family:fnt1"
         id="path1423" />
      <path
         d="M 139.09726,150.36611 C 138.45833,151.19005 137.18178,151.39601 136.23338,150.77801 L 125.87294,143.77529 C 124.92588,143.1573 124.6791,141.92157 125.31804,140.89166 L 126.24378,139.65593 C 126.88272,138.62603 128.15926,138.42007 129.10766,139.03807 L 139.46675,146.04079 C 140.41516,146.65879 140.66193,147.89451 140.02299,148.92442 L 139.09726,150.36611"
         style="font-size:9px;letter-spacing:0;word-spacing:0;fill:#ed3224;fill-rule:nonzero;stroke:none;stroke-width:0.5;stroke-linecap:butt;stroke-linejoin:miter;stroke-miterlimit:10;stroke-dasharray:none;font-family:fnt1"
         id="path1425" />
      <path
         d="M 126.86271,130.59339 C 126.86271,130.59339 126.53323,135.94848 133.53489,138.83198 C 133.53489,138.83198 136.93367,136.97838 137.30449,132.44712 C 137.30449,132.44712 134.6687,128.32776 126.86271,130.59339"
         style="font-size:9px;letter-spacing:0;word-spacing:0;fill:#ed3224;fill-rule:nonzero;stroke:none;stroke-width:0.5;stroke-linecap:butt;stroke-linejoin:miter;stroke-miterlimit:10;stroke-dasharray:none;font-family:fnt1"
         id="path1427" />
      <path
         d="M 147.08868,142.74538 C 147.08868,142.74538 147.41815,137.3903 140.41516,134.5068 C 140.41516,134.5068 137.03638,136.36039 136.64556,140.89166 C 136.64556,140.89166 139.30268,144.80507 147.08868,142.74538"
         style="font-size:9px;letter-spacing:0;word-spacing:0;fill:#ed3224;fill-rule:nonzero;stroke:none;stroke-width:0.5;stroke-linecap:butt;stroke-linejoin:miter;stroke-miterlimit:10;stroke-dasharray:none;font-family:fnt1"
         id="path1429" />
      <path
         d="M 145.21321,158.81078 C 145.21321,158.81078 148.22116,154.89738 148.57064,150.98397 C 148.57064,150.98397 149.47769,148.51238 145.64672,145.83484 C 145.64672,145.83484 138.47834,153.04365 135.10089,162.10619 C 135.10089,162.10619 137.07773,164.16586 140.04433,163.34205 C 140.04433,163.34205 142.82419,162.31214 145.21321,158.81078"
         style="font-size:9px;letter-spacing:0;word-spacing:0;fill:#ed3224;fill-rule:nonzero;stroke:none;stroke-width:0.5;stroke-linecap:butt;stroke-linejoin:miter;stroke-miterlimit:10;stroke-dasharray:none;font-family:fnt1"
         id="path1431" />
    </g>
  </g>
</svg>
