<?xml version="1.0" encoding="UTF-8"?>
<!DOCTYPE svg PUBLIC "-//W3C//DTD SVG 1.1//EN" "http://www.w3.org/Graphics/SVG/1.1/DTD/svg11.dtd">
<!-- Creator: CorelDRAW -->
<svg xmlns="http://www.w3.org/2000/svg" xml:space="preserve" width="2358px" height="2358px" shape-rendering="geometricPrecision" text-rendering="geometricPrecision" image-rendering="optimizeQuality" fill-rule="evenodd" clip-rule="evenodd"
viewBox="0 0 2173.27 2173.27"
 xmlns:xlink="http://www.w3.org/1999/xlink">
 <g id="Ebene_x0020_1">
  <metadata id="CorelCorpID_0Corel-Layer"/>
  <path fill="#41448B" fill-rule="nonzero" d="M2173.27 1086.64c0,600.126 -486.501,1086.64 -1086.64,1086.64 -600.13,0 -1086.64,-486.511 -1086.64,-1086.64 0,-600.13 486.507,-1086.64 1086.64,-1086.64 600.136,0 1086.64,486.507 1086.64,1086.64z"/>
  <path fill="white" fill-rule="nonzero" d="M1900.86 1086.64c0,449.678 -364.535,814.221 -814.221,814.221 -449.678,0 -814.221,-364.544 -814.221,-814.221 0,-449.679 364.544,-814.222 814.221,-814.222 449.686,0 814.221,364.544 814.221,814.222z"/>
  <path fill="#41448B" fill-rule="nonzero" d="M1336.4 474.127c-32.8594,39.8449 -79.7921,71.1566 -118.762,103.901 -43.1602,-34.1666 -84.0097,-105.328 -145.029,-98.2082 -20.1761,10.9038 -24.8726,34.1525 -17.3734,52.6665 108.437,196.428 417.299,366.313 250.648,620.19 -66.6527,90.6208 -170.374,131.424 -282.097,111.019 -75.0934,-14.2507 -153.009,-72.6096 -184.456,-145.672 -33.3274,-64.5325 -33.3274,-163.709 -2.81683,-230.621l152.08 74.0322c0,29.4222 -2.81792,64.5346 17.3592,87.7833 17.8338,21.345 39.4346,32.744 62.9009,35.5903 29.1065,2.37602 51.626,-9.97102 69.4782,-30.8469 19.7124,-21.345 21.5845,-59.7815 12.6551,-89.6793 -77.4411,-122.418 -180.242,-234.412 -259.561,-355.884 -28.6298,-64.5357 -25.345,-149.938 18.7665,-206.405 50.2393,-68.8056 125.331,-90.6284 207.47,-79.2348 86.844,16.1239 154.9,84.4582 218.737,151.37z"/>
  <path fill="none" fill-rule="nonzero" stroke="white" stroke-width="3.83995" d="M858.098 653.958c70.8834,91.1084 138.93,182.207 208.871,271.41 -145.034,-67.3809 -293.827,-136.645 -441.209,-209.726 -32.8605,26.5651 -53.0583,68.8056 -73.2355,105.33 -99.0452,184.585 -76.5171,455.058 47.8709,621.133"/>
  <polyline fill="none" fill-rule="nonzero" stroke="white" stroke-width="3.83995" points="600.396,1442.1 704.136,1559.77 561.451,1621.46 "/>
  <path fill="none" fill-rule="nonzero" stroke="white" stroke-width="3.83995" d="M561.451 1621.46c-189.638,-184.575 -263.811,-453.623 -205.606,-712.211 39.9037,-145.209 111.254,-279.005 235.172,-384.83"/>
  <path fill="#41448B" fill-rule="nonzero" d="M1621.04 1074.84c-5.16673,-103.906 -30.0448,-197.382 -84.4886,-279.962l-142.682 66.4372c17.8207,27.0429 33.7759,54.5647 43.1689,84.9338 83.0781,224.444 -56.797,423.268 -222.028,568.94 -39.4139,32.8191 -82.5284,60.0569 -128.377,80.8457 -45.8486,-20.7888 -88.9577,-48.0266 -128.376,-80.8457 -165.232,-145.672 -305.103,-344.496 -222.025,-568.94 9.39307,-30.3691 25.345,-57.8909 43.1689,-84.9338l-142.681 -66.4372c-54.4493,82.5806 -79.323,176.056 -84.4897,279.962 -11.1944,322.346 274.388,575.815 534.403,706.161 260.016,-130.346 545.601,-383.815 534.407,-706.161z"/>
  <path fill="#41448B" fill-rule="nonzero" d="M1817.43 909.246c-39.9015,-145.209 -111.251,-279.005 -235.17,-384.83l-356.79 180.277 96.9358 127.049c68.5357,-32.4817 156.674,-82.1638 225.111,-116.101 32.8605,26.5651 53.0583,68.8056 73.2322,105.33 99.0484,184.585 76.516,455.058 -47.8676,621.133l-103.745 117.668 142.69 61.6841c189.64,-184.575 263.811,-453.623 205.603,-712.211z"/>
  <path fill="#41448B" fill-rule="nonzero" d="M342.321 916.179c39.9015,-145.209 111.251,-279.005 235.17,-384.83l337.377 163.637 194.26 251.847c-68.5357,-32.4817 -428.457,-190.322 -496.894,-224.259 -32.8605,26.5651 -53.0583,68.8056 -73.2322,105.33 -99.0484,184.585 -76.516,455.058 47.8676,621.133l103.745 117.668 -142.69 61.6841c-189.64,-184.575 -263.811,-453.623 -205.603,-712.211z"/>
  <polygon fill="white" fill-rule="nonzero" points="535.597,1916.15 587.689,1788.53 555.77,1763.85 449.686,1850.68 528.077,1743 491.932,1716.42 387.723,1857.33 445.47,1900.51 530.43,1831.23 489.588,1934.18 547.789,1976.41 651.526,1835.51 615.381,1808.94 "/>
  <polygon fill="white" fill-rule="nonzero" points="375.532,1574.57 345.015,1600.18 405.099,1673.24 377.876,1695.06 323.432,1629.11 297.133,1652.37 351.595,1717.85 330.455,1736.34 271.785,1666.13 243.161,1689.84 336.093,1804.19 471.288,1690.32 "/>
  <polygon fill="white" fill-rule="nonzero" points="331.867,1496.76 180.726,1585.95 209.83,1633.39 358.619,1544.68 "/>
  <path fill="white" fill-rule="nonzero" d="M280.237 1383.83c-2.81357,-8.52995 -8.45159,-18.4988 -15.0213,-28.4655 -6.09298,-9.00233 -12.6616,-14.2235 -22.0547,-18.969 -8.46247,-4.74334 -19.7124,-6.64045 -30.516,-7.11065 -11.2521,-0.95128 -25.8119,1.8895 -41.7823,9.96667 -12.1925,2.8386 -21.5856,8.06193 -30.9634,15.1639 -8.45159,6.17243 -15.4926,13.7707 -22.0699,23.253 -4.22634,9.01756 -7.5199,18.5064 -7.5199,29.9087 -0.917539,10.8842 1.41168,23.2421 6.57841,37.4526l29.1044 76.8675 163.35 -61.1921 -29.1055 -76.8751zm-117.34 72.1144l0 0 -4.22634 -12.334c-5.16673,-12.7911 -5.16673,-23.7134 0,-33.1947 2.81466,-7.11283 14.0733,-14.2409 31.4488,-20.8911 12.6779,-5.22333 22.9961,-7.59935 29.5746,-7.59935 7.0399,0 12.6616,2.37602 16.4177,6.65025 3.28485,2.3684 9.39307,10.9158 12.2066,21.8402l5.16673 12.3198 -90.5882 33.2088z"/>
  <polygon fill="white" fill-rule="nonzero" points="225.8,1129.56 186.833,1135.7 199.982,1230.12 166.651,1234.87 153.503,1149.48 117.829,1155.64 130.977,1239.14 102.814,1243.42 90.6056,1152.32 53.5198,1157.54 74.1802,1303.19 246.445,1279.47 "/>
  <path fill="white" fill-rule="nonzero" d="M229.549 1045.09l-70.879 -5.6772 0.941484 -4.74551c0,-6.17134 0.931688,-9.49538 4.22525,-13.7663 2.81466,-3.32077 7.02575,-5.22115 14.5446,-9.97102l55.3777 -24.1923 5.16564 -62.6255 -53.5024 24.1923c-1.87426,0.474551 -5.16782,2.84949 -11.276,5.69788 -3.28376,4.27314 -6.55338,6.17134 -8.89784,8.5441 -3.28594,2.37493 -5.63693,7.12045 -7.51881,13.2961 -1.40297,-8.54737 -3.28594,-14.7198 -5.63802,-18.5195 -3.75505,-8.5441 -9.86327,-14.6959 -16.4177,-18.4955 -5.63802,-5.69244 -15.0311,-8.5441 -23.9529,-8.5441 -11.251,-0.949103 -20.1815,0.954545 -28.6342,5.22333 -8.42873,5.21789 -14.5359,12.3438 -16.8879,20.8705 -3.75614,8.06628 -7.04099,20.4101 -7.98248,38.9099l-7.04752 90.611 173.69 13.7555 4.69 -54.5636zm-103.268 -8.04996l0 0 -35.6752 -3.32404 1.87426 -25.1425c0.941484,-8.5441 2.35317,-14.7122 6.10822,-19.9333 2.82227,-3.32186 7.51881,-4.27532 13.1329,-4.27532 3.28485,0 7.04861,1.89821 10.3335,4.27532 2.35208,3.32077 4.22634,7.12045 5.16782,10.4412 0.470198,6.6459 0.470198,10.9005 0.470198,13.7457l-1.41168 24.213z"/>
  <polygon fill="white" fill-rule="nonzero" points="261.946,850.587 92.4798,806.451 79.3469,860.532 247.378,903.237 "/>
  <path fill="white" fill-rule="nonzero" d="M189.177 777.985c19.7113,9.9732 36.6232,12.8227 53.9835,9.9732 15.4915,-0.949103 28.6244,-7.12045 38.4887,-16.1358 9.86327,-9.00995 18.7687,-22.7774 26.7523,-39.8405 7.04752,-14.7154 10.3335,-28.0083 10.3335,-39.3834 0,-10.919 -3.28594,-21.8185 -7.98248,-31.3149 -5.16782,-9.49212 -12.6855,-19.9355 -22.9951,-27.0396l-32.8605 36.5361c8.45159,8.05322 14.0744,14.2202 17.8294,21.345 2.82119,8.0652 2.35317,17.0719 -1.88297,25.616 -4.22525,9.49212 -11.7212,16.1391 -19.7026,18.4912 -9.86327,2.84622 -22.526,-0.474551 -39.4367,-8.04669 -15.0082,-6.6459 -24.8715,-13.7653 -29.568,-21.8402 -5.63693,-9.94599 -6.10713,-19.9224 -1.41059,-31.7862 1.41059,-5.20265 5.63802,-8.05431 9.39307,-12.7976 3.29356,-1.42365 7.98139,-4.27423 12.6779,-4.74878 3.27723,-0.949103 7.96615,-0.949103 12.2001,0l10.8037 -48.8592c-18.7938,-2.37493 -34.7413,1.42257 -48.3607,9.00341 -13.6031,6.64045 -24.8769,20.8857 -34.27,41.7583 -10.7808,26.0851 -12.6627,50.2818 -5.61407,71.1642 7.96615,20.3926 24.4067,35.0972 51.6216,47.9057z"/>
  <polygon fill="white" fill-rule="nonzero" points="386.783,591.062 330.926,547.424 366.601,499.97 422.926,543.63 456.258,499.97 318.735,391.806 285.405,435.447 333.279,473.405 297.133,520.841 248.318,481.949 214.055,526.539 353.453,635.196 "/>
  <polygon fill="white" fill-rule="nonzero" points="597.065,379.471 572.188,349.102 499.451,408.883 476.44,382.318 542.151,327.757 519.624,299.77 454.847,354.8 437.487,332.029 507.417,274.138 483.481,244.244 372.239,339.131 482.069,474.828 "/>
  <path fill="white" fill-rule="nonzero" d="M718.643 243.769c-6.56426,-2.35643 -8.90763,-4.72483 -11.731,-5.20265 -4.22634,-0.949103 -9.39307,-0.474551 -16.9043,0.948014 7.0399,-4.74878 12.2077,-9.49212 14.5598,-14.2355 5.16782,-7.1248 7.0497,-16.1271 7.51119,-23.7189 0,-8.54737 -0.46149,-16.6169 -6.09842,-26.0938 -4.69653,-9.49212 -11.276,-17.0915 -19.2422,-21.8402 -8.4592,-3.32077 -17.3745,-5.20265 -26.3039,-3.32077 -8.90763,1.42692 -22.0558,5.69353 -35.6599,14.7154l-82.6231 41.2838 81.2136 156.568 47.8742 -24.6865 -32.8605 -64.5281 5.63693 -2.35099c2.81466,-0.953456 7.98139,-2.3782 12.6779,-1.90147 3.7409,0.948014 8.43744,2.35425 15.485,7.09977l49.2782 34.6379 54.4613 -28.9367 -46.0086 -32.7397c-0.941484,-1.89821 -7.0497,-4.26879 -11.2662,-5.69788zm-58.2087 -27.0429l0 0c0,2.37602 -2.81683,6.1757 -4.67259,8.55281 -5.16673,4.74334 -9.86327,6.64045 -11.7462,8.5441l-19.2411 10.4205 -16.9043 -32.2619 20.6615 -10.4216c7.96397,-4.75313 15.4839,-7.12371 19.7102,-6.1757 5.63802,1.89712 8.45159,4.27423 11.251,10.4456 1.88188,3.32186 1.88188,6.15175 0.941484,10.8962z"/>
  <path fill="white" fill-rule="nonzero" d="M1038.3 146.055c-5.16673,-6.65351 -14.0896,-13.3005 -24.8769,-15.6722 -11.2662,-5.21898 -28.6331,-8.0739 -52.5642,-9.4932 -9.39307,-0.949103 -16.4406,-2.82989 -18.3149,-5.1983 -2.82227,-1.42692 -4.69762,-3.79968 -4.69762,-6.18005 -0.938219,-3.79532 0,-7.12045 2.81683,-9.96776 2.82119,-3.32077 8.4592,-4.74769 14.5598,-6.16699 7.03337,-1.42692 14.0733,0 17.8283,2.84622 5.16673,3.79641 8.45159,9.02192 10.8048,16.6137l51.1514 -9.49212c-5.16673,-17.0762 -12.6627,-31.3182 -25.8108,-37.0107 -13.6194,-7.595 -30.9786,-8.99906 -53.0344,-6.16808 -18.3159,2.37276 -31.9168,6.16808 -41.7812,11.8605 -9.86327,5.70115 -17.8294,14.242 -21.5856,22.7698 -3.75505,7.595 -5.63693,16.6213 -4.69545,26.0938 1.87208,13.2918 7.5101,23.7374 19.2313,30.8426 11.7462,7.58738 29.5767,13.7631 53.5274,14.242 15.0158,1.89276 23.4674,4.26987 29.1055,7.59064 3.75505,2.37602 6.55447,6.6459 7.02467,11.8529 0.471286,5.22224 -1.41168,9.01865 -4.21001,12.8172 -3.75614,3.32512 -9.86436,7.595 -17.3745,8.5441 -9.86436,1.42365 -18.772,-1.89712 -25.3482,-8.5441 -3.75505,-3.79859 -6.57188,-9.49647 -9.39307,-18.0242l-50.691 10.4292c3.29465,17.5628 12.1925,29.8869 25.3504,40.3314 12.6779,10.4412 33.7998,13.2722 62.8955,9.96993 17.3592,-3.32404 31.4488,-6.64807 41.7834,-12.3416 10.7873,-7.59935 18.2985,-14.7198 23.4653,-25.6171 4.69653,-9.96993 6.5795,-20.4122 4.69653,-31.316 -0.470198,-9.96667 -4.69653,-18.5151 -9.86327,-25.6116z"/>
  <polygon fill="white" fill-rule="nonzero" points="1166.45,185.892 1138.76,55.9089 1080.55,51.1645 1132.65,231.445 1191.79,237.617 1272.52,67.2872 1217.13,63.0119 "/>
  <path fill="white" fill-rule="nonzero" d="M1530.69 204.406c0.9306,-6.6459 0.9306,-12.8216 0.9306,-18.9886 -0.9306,-6.15284 -2.81357,-11.8529 -5.63693,-19.4435 -2.34337,-5.70224 -6.57733,-11.8736 -12.6703,-16.6224 -5.15041,-6.15175 -14.5435,-10.8951 -24.4144,-16.1228 -22.9972,-9.96667 -42.222,-10.4412 -58.2011,-2.36731 -17.3581,7.595 -31.4488,26.564 -43.1689,57.8768 -6.10822,12.3438 -9.86327,24.6669 -11.7386,36.0605 -2.82119,10.9212 -2.82119,19.4446 -1.8797,27.5142 2.81357,11.8725 6.56862,21.345 14.0722,27.5164 6.1006,8.07282 15.965,16.1391 29.5833,21.8402 23.9365,10.4227 44.5882,10.8973 60.0819,0.945837 16.4177,-9.01865 29.5659,-28.9574 41.7583,-58.372 4.70415,-13.7468 8.4592,-26.0894 11.2837,-39.8373zm-56.3269 22.2963l0 0c-6.5795,15.1889 -12.2088,25.6105 -16.4352,31.7819 -4.69653,6.17243 -8.92287,10.9212 -13.1405,12.3449 -5.16782,1.8797 -9.39307,1.8797 -14.0896,0 -7.0399,-2.8484 -11.251,-9.02083 -11.7223,-18.5162 -0.468021,-8.5441 3.74852,-23.7134 12.6638,-43.6326 7.9803,-20.8868 15.5013,-34.6379 21.5921,-41.7583 6.5795,-5.22224 13.6118,-7.60262 21.6019,-2.84622 6.55229,1.89821 10.7808,8.5441 10.7808,16.6093 1.4095,9.95469 -3.29465,25.6192 -11.251,46.0173z"/>
  <path fill="white" fill-rule="nonzero" d="M1595.46 337.234c3.76267,-0.47564 12.6703,-0.47564 23.4663,-0.47564 21.1219,-0.949103 36.1454,-4.24919 46.9327,-7.57867 10.7971,-6.16808 18.3159,-12.3438 25.3646,-20.8879 4.2111,-8.99688 7.49595,-18.4955 7.49595,-28.4622 0,-9.00015 -3.76485,-18.021 -9.37783,-27.5164 -6.09842,-8.06955 -15.9704,-17.5475 -29.5669,-26.5651 -15.0376,-9.02192 -26.2962,-15.19 -37.0836,-16.5962 -8.92287,-0.949103 -18.7861,0 -26.7534,2.35534 -8.45159,5.21898 -17.8534,10.9201 -26.7588,21.3613l38.9513 30.3648c6.56971,-8.06846 12.2077,-10.9201 17.3745,-11.8692 5.1602,-1.89712 11.7212,0 15.0061,1.90256 6.5795,4.27314 9.40069,8.54192 9.86436,14.7144 1.41168,5.20265 0.940395,9.47688 -0.933865,13.2744 -3.28485,5.22115 -8.93049,7.59282 -15.0289,11.3925 -5.62278,2.84622 -17.8381,3.80076 -35.1897,3.80076 -29.5735,1.42257 -51.1754,5.69135 -64.7773,11.3729 -14.5609,6.16808 -26.2821,14.2409 -35.6752,25.1567l122.516 83.0247 21.5779 -34.1644 -63.3755 -42.2285c5.64564,-0.952368 11.2826,-1.42365 15.9715,-2.37602z"/>
  <path fill="white" fill-rule="nonzero" d="M1780.88 576.361c7.50357,4.25355 15.486,8.52886 25.8108,10.9038 10.7808,1.42474 21.1219,0.949103 30.515,-3.79859 11.7223,-3.32186 24.4089,-9.47688 38.0033,-22.7698 9.86436,-6.6459 17.8447,-14.6991 24.4242,-23.7134 6.1006,-9.02083 10.3171,-19.4479 12.2001,-29.4146 2.34555,-10.4467 1.87426,-19.9224 -0.941484,-30.3648 -3.28485,-10.4445 -9.84694,-22.7643 -19.7102,-34.6368l-51.159 -63.0957 -134.726 111.485 51.1612 63.5703c6.10604,6.64481 13.6194,14.7198 24.422,21.8348zm63.8315 -128.097l0 0 8.44179 9.95143c8.46138,10.9158 12.2088,21.3657 11.2684,29.4309 -1.87535,8.52669 -9.38545,19.9224 -24.3991,31.7721 -10.3346,9.49212 -18.7785,13.7653 -26.2995,16.138 -5.61298,1.89821 -11.7288,1.42692 -16.8858,-0.948014 -4.70633,-1.42474 -10.8058,-6.6459 -16.8988,-16.1391l-9.86109 -9.95578 74.6341 -60.2495z"/>
  <path fill="white" fill-rule="nonzero" d="M1860.67 624.751c-5.63693,6.17243 -8.92178,11.8681 -13.1481,20.8672 -2.81357,7.12045 -4.68892,15.6645 -4.68892,22.7883 0,8.04887 0.941484,16.593 4.68892,27.0396 4.22634,8.52669 7.51119,18.0199 9.85674,26.0927 7.0399,13.2885 15.0376,23.7112 22.9951,31.3062 6.10822,6.17896 13.6183,10.4445 22.0699,12.3307 9.38654,3.79097 19.7124,5.21789 29.1055,3.79097 9.37674,-1.89712 19.24,-3.79097 27.6916,-8.04887l93.4137 -46.4984 -24.4067 -48.8646 -95.2858 46.4875c-8.92505,5.22333 -15.5013,5.69788 -23.0147,3.32077 -8.44179,-2.37276 -12.1903,-7.11936 -16.8966,-15.6439 -3.75505,-9.49647 -4.69545,-17.566 -3.75505,-24.2119 3.75505,-7.57867 9.40069,-13.7468 16.913,-17.5475l96.2109 -46.961 -25.3482 -50.3024 -92.0009 48.4053c-7.51881,2.83098 -16.4264,8.52886 -24.4002,15.6493z"/>
  <polygon fill="white" fill-rule="nonzero" points="1919.8,881.421 2086.46,832.545 2072.36,779.888 1905.27,828.746 "/>
  <path fill="white" fill-rule="nonzero" d="M2055.94 901.34c-13.6259,1.42257 -23.0016,8.07282 -30.9775,19.4479 -7.51881,10.9147 -12.6779,29.4102 -15.4991,54.0967 -0.941484,14.2224 -2.82336,24.668 -7.04208,27.9931 -2.82227,5.22224 -5.63802,7.10086 -10.3248,7.10086 -5.1602,0.948014 -9.37892,-0.456048 -14.082,-4.25464 -2.81466,-3.31968 -5.63802,-9.49538 -6.5795,-17.0871 -1.88188,-10.4303 1.88297,-18.9733 6.5795,-25.1414 4.70307,-3.32512 10.7971,-6.1757 18.7687,-9.49647l-9.37565 -51.2363c-16.9043,3.80076 -30.516,12.3438 -40.8419,24.6712 -10.3346,13.2874 -13.602,34.6346 -8.93049,65.4718 1.4193,15.6645 5.16673,30.3658 12.2143,41.2849 5.63802,10.8962 14.0907,18.969 24.4089,23.7167 8.92287,4.74551 20.6593,6.6459 31.4488,4.74551 9.39307,-0.949103 17.3821,-2.84622 23.9289,-9.01865 7.51772,-5.69353 12.6779,-14.2246 17.3821,-25.616 3.75505,-10.4412 6.57841,-27.992 8.92178,-53.1334 0.463667,-9.49212 2.33902,-15.6645 4.68239,-18.5108 0.941484,-3.32295 3.28485,-5.22333 6.09842,-5.22333 4.70633,0 7.0497,0 10.3346,3.80076 3.28703,2.84622 5.16673,7.59173 6.11584,13.2885 0.462579,7.59935 0,14.2213 -3.29247,19.4425 -2.82336,5.22333 -7.51228,8.54628 -16.913,10.9212l10.3422 51.2341c16.8814,-4.75096 29.5659,-12.8009 35.6741,-26.0916 7.50357,-13.7674 9.36912,-29.888 6.57188,-54.0825 -2.35317,-18.5129 -6.57188,-30.8393 -11.276,-42.2296 -5.62931,-9.47688 -13.1481,-18.021 -22.0558,-21.345 -8.45159,-4.27423 -17.3745,-6.17243 -26.2821,-4.74878z"/>
  <path fill="white" fill-rule="nonzero" d="M1949.85 1095.86l-9.86327 93.467 0 24.6636c0.941484,10.9158 1.87535,17.5508 2.81574,21.8239 5.17544,7.59826 9.86436,14.2409 15.9802,19.9181 6.56862,5.22333 15.4763,7.11392 23.9355,7.59826 11.2586,1.42039 19.7037,-0.955633 28.1574,-5.69135 8.44179,-5.69353 14.0874,-14.2267 18.2909,-26.0981 1.41168,7.59826 5.64455,14.71 9.86327,20.4046 6.5795,6.15502 15.0311,9.95143 24.878,10.9005 13.1481,1.43345 22.551,-1.42039 31.919,-9.95252 9.39307,-8.06193 15.9715,-21.3526 16.9108,-37.9543l9.3713 -102.487 -172.259 -16.593zm63.8391 88.7063l0 0c-1.40406,10.438 -3.75505,17.5508 -6.10822,20.4068 -5.15911,3.79423 -7.98139,5.22877 -13.6042,4.27314 -5.62822,-0.478905 -9.85347,-2.85384 -12.2066,-6.17243 -3.75505,-4.74334 -4.69653,-11.3696 -4.22634,-20.8748l3.28485 -27.5174 36.6156 2.85602 -3.75505 27.0287zm66.1901 3.81165l0 0c-0.941484,8.0456 -2.82336,14.2246 -6.10822,16.5951 -2.34337,3.79423 -7.0497,3.79423 -12.2066,3.79423 -5.62387,0 -8.90763,-2.37493 -11.7299,-5.69353 -2.81574,-3.32404 -4.22525,-10.9082 -2.81574,-18.9701l2.81574 -24.1912 32.3881 4.27423 -2.34337 24.1912z"/>
  <path fill="white" fill-rule="nonzero" d="M1966.29 1296.55c-7.0497,0 -14.0896,0.948014 -22.5488,4.73572 -7.98248,1.90691 -14.0744,8.08588 -20.6441,11.4099 -5.63693,7.0965 -9.39307,14.2104 -13.1503,23.7058 -4.67912,9.01865 -8.90546,18.969 -10.3171,26.5683 -5.63802,14.7046 -7.5101,26.5607 -6.5795,37.483 0,8.54954 1.87535,18.0144 6.5795,25.6127 4.22634,8.54737 10.3171,17.0795 17.8305,22.7741 6.57624,5.22115 15.5013,11.386 25.3395,14.2387l98.5782 32.7266 18.3007 -52.1887 -101.84 -33.6648c-7.99118,-2.85602 -15.0387,-8.54737 -17.8545,-14.7285 -4.22525,-6.64154 -4.22525,-13.7544 -0.931688,-23.7058 2.80704,-9.01865 7.98139,-15.1987 14.082,-18.0515 7.04752,-4.71939 14.5435,-5.19068 23.9365,-0.933865l100.924 33.6823 16.8956 -51.7174 -98.1091 -33.211c-8.43526,-3.31642 -19.24,-4.73572 -30.491,-4.73572z"/>
  <path fill="white" fill-rule="nonzero" d="M1832.98 1518.58l60.0732 36.0659 -2.81357 4.73681c-1.88188,4.25681 -6.1006,7.09541 -9.86327,9.00233 -2.82227,1.90474 -7.95744,2.3684 -16.889,1.90474l-60.5521 -3.32404 -32.8583 52.1963 57.7353 5.22115c2.81683,0 7.04208,0 13.1503,-0.948014 6.56209,-0.949103 10.7884,-1.90582 13.1318,-3.32404 2.81574,-2.3684 7.5199,-3.7877 12.6801,-9.01865 -3.28703,6.65025 -4.22851,15.1813 -4.22851,19.9257 0,9.01103 1.87535,17.5584 5.16782,23.2519 4.70524,8.05214 10.3182,14.6959 18.2996,19.4555 9.86436,6.16264 18.7861,9.48123 28.1651,8.53104 8.92178,0 17.8349,-4.2579 24.8769,-9.47905 6.5795,-6.65025 14.082,-18.5075 23.9529,-32.263l46.9262 -77.353 -148.32 -92.974 -28.6342 48.3923zm70.879 87.2892l0 0c1.87426,-7.59826 3.74743,-11.3707 6.0908,-13.7391l12.2088 -18.9842 29.1044 18.4988 -11.7451 19.4479c-6.55338,9.01865 -10.3106,14.6948 -15.4784,15.6515 -4.23287,1.4193 -8.4592,0.462579 -13.1481,-1.90474 -3.28485,-1.40406 -5.6206,-5.6772 -7.03229,-8.5158 -1.41277,-4.27423 -1.41277,-7.13024 0,-10.4543z"/>
  <path fill="white" fill-rule="nonzero" d="M1830.63 1683.21c-12.2164,-11.8485 -26.7534,-21.3548 -41.3132,-26.0829 -15.4763,-4.75313 -30.5073,-4.75313 -44.1191,0 -14.55,4.7281 -28.6255,15.6537 -44.1191,29.8782 -10.7873,12.8053 -19.7102,24.2076 -26.2886,36.0496 -5.63584,10.9147 -10.3324,26.5585 -14.0657,46.5093l53.9661 51.7032 58.2087 -60.7284 -25.8108 -25.6203 -25.8184 26.5683 -12.2077 -11.386c2.81466,-9.00233 5.62822,-15.1824 7.5101,-20.4057 1.88297,-4.74334 6.5795,-9.01865 10.7884,-13.737 8.92178,-10.439 17.837,-13.2929 29.0978,-13.2929 12.2066,1.4193 23.4805,7.11174 36.6145,20.8672 12.2066,11.8736 19.7265,24.201 20.6506,35.5859 0,10.4456 -2.79724,20.422 -11.7288,28.9378 -5.62822,5.22224 -10.8026,9.00995 -17.8207,10.4445 -5.17435,0.95781 -12.2066,0 -17.8534,-2.85384l-30.0382 43.6631c9.39307,7.0965 20.1761,9.00341 30.0382,9.46599 9.39307,0.956722 18.7709,-0.950191 28.6342,-5.20809 8.92178,-4.74334 19.7102,-13.7533 33.7998,-28.4655 14.082,-13.2755 23.4598,-27.5174 28.1564,-40.3227 4.70415,-15.6613 5.63584,-31.7753 0.471286,-47.4519 -3.28703,-16.1152 -12.6703,-31.3128 -26.7523,-44.118z"/>
  <path fill="white" fill-rule="nonzero" d="M1157.86 2038.02c0,39.4063 -31.8167,70.2652 -71.2295,70.2652 -38.9263,0 -71.2132,-30.8589 -71.2132,-70.2652 0,-40.3554 32.2869,-72.1775 71.2132,-72.1775 39.4128,0 71.2295,31.8222 71.2295,72.1775z"/>
 </g>
</svg>
