<?xml version="1.0" encoding="utf-8"?>
<!-- Generator: Adobe Illustrator 13.0.2, SVG Export Plug-In . SVG Version: 6.00 Build 14948)  -->
<!DOCTYPE svg PUBLIC "-//W3C//DTD SVG 1.1 Tiny//EN" "http://www.w3.org/Graphics/SVG/1.1/DTD/svg11-tiny.dtd">
<svg version="1.1" baseProfile="tiny" id="Ebene_1" xmlns="http://www.w3.org/2000/svg" xmlns:xlink="http://www.w3.org/1999/xlink"
	 x="0px" y="0px" width="447.343px" height="566px" viewBox="0 0 447.343 566" xml:space="preserve">
<polygon fill="#CD051D" points="0.003,410.507 0.003,285.344 0.003,5.076 0,5.076 0,0.002 362.589,0 362.589,0.002 447.337,95.69 
	447.337,284.638 447.343,284.638 447.337,566 85.037,566 0.003,469.606 "/>
<path fill="#FFFFFF" d="M5.076,5.076v280.268h59.404c0,87.696,71.117,158.109,158.813,158.109
	c87.696,0,158.815-71.12,158.815-158.815h60.154V98.31L359.631,5.076H5.076z"/>
<path fill="#CD051D" d="M223.292,142.575c76.917,0,139.297,62.377,139.297,139.297c0,76.917-62.38,139.294-139.297,139.294
	S83.998,358.789,83.998,281.872C83.998,204.952,146.375,142.575,223.292,142.575"/>
<path fill="#FFFFFF" d="M307.309,178.179c8.275,10.527,16.55,17.526,24.825,39.058c1.103,4.175,3.415,7.897,6.947,11.162
	c6.254,6.133,11.852,13.033,16.282,21.295c-7.679-31.846-24.508-54.934-46.462-73.109
	C307.631,175.345,305.899,176.399,307.309,178.179"/>
<path fill="#FFFFFF" d="M275.31,362.544c-3.002,2.273-5.661,4.89-5.921,9.908c0.118,5.008,0.005,10.356-1.708,18.106
	c-2.021,6.848-1.669,11.986,6.034,11.845c12.448-1.149,35.72-12.698,52.575-32.161c3.777-4.364,6.868-9.458,9.527-14.91
	c3.724-7.646,7.239-15.679,8.845-24.673c0.872-6.593-2.795-8.146-7.401-8.653c-5.01,0.142-10.023,0.16-15.034,0
	c-4.43,0.073-8.244,1.632-11.157,5.349C298.787,342.886,286.984,353.403,275.31,362.544"/>
<path fill="#FFFFFF" d="M224.295,174.875c-3.614,3.247-4.394,7.727-1.024,14.01c7.59,14.622,14.385,28.915,18.33,42.019
	c17.275,4.346,34.736,9.545,52.611,16.624c4.331,1.9,8.199,1.367,11.616-1.593c6.53-6.719,13.06-13.438,19.589-20.156
	c3.683-2.845,3.604-6.527,1.819-10.587c-5.761-12.577-12.532-22.731-19.813-31.66c-2.714-2.895-5.674-5.417-8.997-7.401
	c-10.049-5.013-20.902-9.947-37.353-14.349c-6.7-1.527-12.658-1.698-17.534,0.116C236.092,165.928,229.612,170.234,224.295,174.875"
	/>
<path fill="#FFFFFF" d="M141.05,178.633c-0.764,0.709-0.396,1.013,1.596,2.394c2.58,2.163,5.163,4.325,7.743,6.491
	c1.974,2.278,5.619,2.732,10.931,1.367c13.516-6.202,27.594-9.212,42.021-10.251c4.667,0.473,9.146-0.283,13.209-3.758
	c5.503-6.01,12.411-11.752,22.775-16.852c3.551-2.031,2.714-3.85-0.113-5.58c-6.477-3.58-12.359-3.89-18.222-4.1
	C183.753,147.394,157.107,162.844,141.05,178.633"/>
<path fill="#FFFFFF" d="M134.515,184.963c-8.803,5.097-16.958,15.062-24.98,26.038c-9.049,14.474-14.256,31.085-16.283,49.467
	c-0.168,8.06,1.247,14.853,4.979,19.787c2.953,3.958,5.905,3.078,8.853,0c6.637-8.65,13.692-16.815,21.663-23.902
	c3.937-3.388,5.186-7.309,5.215-11.477c1.9-14.125,6.231-28.625,13.202-43.53c1.373-4.496,0.792-7.821-1.74-9.973
	c-2.659-2.163-5.32-4.328-7.984-6.491C136.462,184.326,135.491,184.349,134.515,184.963"/>
<path fill="#FFFFFF" d="M258.723,361.486c2.989,0.861,6.178,1.145,10.099-0.614c12.742-8.937,26.043-21.067,40.452-39.515
	c1.74-2.16,2.695-5.816,2.152-13.624c-1.916-14.794-4.478-29.032-7.818-42.593c-1.727-6.226-5.375-9.359-10.097-11.097
	c-17.899-6.721-35.785-13.288-53.44-17.135c-12.026,12.873-25.114,30.132-37.374,45.737c-3.299,3.916-4.22,9.259-2.771,16.028
	c2.349,15.025,4.756,30.017,7.821,44.567c0.367,1.412,0.824,2.766,1.908,3.698C218.82,351.442,236.053,356.775,258.723,361.486"/>
<path fill="#FFFFFF" d="M156.991,375.646c4.412,1.961,8.829,2.541,13.244,0.082c8.794-7.372,17.694-15.592,26.655-24.279
	c3.118-2.764,4.249-7.076,3.393-12.931c-2.811-13.895-4.9-27.791-7.034-41.688c-0.703-5.17-3.524-8.362-7.535-10.443
	c-15.524-6.609-29.652-15.013-43.623-23.618c-4.304-2.75-8.249-3.165-11.671-0.166c-6.79,6.37-14,14.293-22.104,25.523
	c-1.598,1.908-2.425,4.257-2.48,7.047c-0.284,15.246,3.674,30.807,9.351,46.494c1.504,3.813,3.493,6.881,5.879,9.364
	C130.245,359.888,141.187,368.336,156.991,375.646"/>
<path fill="#FFFFFF" d="M117.093,360.066c16.193,28.928,42.077,45.05,75.492,51.215c2.097,0.22,2.181-2.074,0.333-3.068
	c-8.091-4.449-16.151-9.06-23.345-18.645c-2.84-4.299-6.456-7.918-12.829-9.115c-4.396-1.157-24.938-12.406-36.835-24.699
	C117.064,353.71,115.797,357.135,117.093,360.066"/>
<polygon fill="#FFFFFF" points="209.899,500.033 190.378,500.033 190.378,469.609 171.24,469.609 171.24,547.838 190.378,547.838 
	190.378,517.735 209.899,517.735 209.899,547.838 229.037,547.838 229.037,469.609 209.899,469.609 "/>
<path fill="#FFFFFF" d="M134.659,469.614l0.005-0.005h-14.619l-27.694,78.229h19.141l3.86-11.459h24.028l3.86,11.459h19.138
	l-27.691-78.229L134.659,469.614z M120.796,520.233l6.572-19.487l6.569,19.487H120.796z"/>
<polygon fill="#FFFFFF" points="411.977,469.609 411.977,508.696 387.223,469.609 370.822,469.609 370.822,547.838 389.96,547.838 
	389.96,508.932 414.429,547.838 431.115,547.838 431.115,469.609 "/>
<polygon fill="#FFFFFF" points="263.014,469.609 243.876,469.609 243.876,547.838 254.06,547.838 263.014,547.838 295.479,547.838 
	295.479,530.821 263.014,530.821 "/>
<polygon fill="#FFFFFF" points="316.51,469.609 305.403,469.609 305.403,547.838 316.51,547.838 324.539,547.838 357.928,547.838 
	357.928,530.821 324.539,530.821 324.539,517.145 352.747,517.145 352.747,500.127 324.539,500.127 324.539,486.626 
	357.928,486.626 357.928,469.609 324.539,469.609 "/>
<path fill="#CD051D" d="M101.85,49.9c-9.283,0-16.81,7.53-16.81,16.813v13.094c0,9.28,7.527,16.81,16.81,16.81
	c9.283,0,16.81-7.53,16.81-16.81V66.713C118.66,57.43,111.133,49.9,101.85,49.9z M107.892,80.381c0,3.359-2.706,6.083-6.042,6.083
	s-6.039-2.724-6.039-6.083V66.227c0-3.359,2.703-6.083,6.039-6.083s6.042,2.724,6.042,6.083V80.381z"/>
<path fill="#CD051D" d="M78.5,63.97c0-2.79-0.724-5.328-2.186-7.611c-1.462-2.278-3.315-3.842-5.535-4.693
	c-2.223-0.848-5.184-1.281-8.858-1.281H46.137v45.346h10.706V79.143h3.921l7.755,16.589h12.556l-9.498-18.655
	C77.471,74.227,78.5,69.907,78.5,63.97z M67.183,67.98c-0.63,0.863-1.344,1.415-2.147,1.664c-0.803,0.249-2.102,0.37-3.871,0.37
	h-4.322v-9.643h4.125c2.031,0,3.422,0.102,4.163,0.296c0.732,0.189,1.422,0.698,2.052,1.53c0.627,0.832,0.937,1.779,0.937,2.829
	C68.12,66.133,67.81,67.12,67.183,67.98z"/>
<polygon fill="#CD051D" points="134.612,50.385 123.718,50.385 123.718,60.419 134.612,60.419 134.612,95.732 145.417,95.732 
	145.417,60.419 156.346,60.419 156.346,50.385 145.417,50.385 "/>
<polygon fill="#CD051D" points="211.708,74.445 211.697,74.497 204.479,50.385 204.304,50.385 196.792,50.385 196.614,50.385 
	189.41,74.455 189.41,74.445 183.612,50.385 172.243,50.385 184.294,95.732 193.409,95.732 200.469,73.686 200.548,73.219 
	200.624,73.686 207.684,95.732 207.713,95.682 207.703,95.732 216.82,95.732 228.869,50.385 217.505,50.385 "/>
<path fill="#CD051D" d="M352.734,69.427c-2.131-0.945-3.64-1.15-8.217-1.751c-2.772-0.359-4.1-0.548-4.876-1.296
	c-2.795-2.693-0.25-6.527,3.881-6.527c3.895,0,7.417,0.567,8.619,2.748l7.018-6.85c-2.124-3.74-8.797-6.603-17.569-5.653
	c-7.803,0.845-13.847,6.249-13.847,14.372c0,8.359,4.564,12.154,13.553,13.679c2.047,0.346,8.866-0.331,7.824,5.104
	c-0.869,4.541-13.464,4.071-15.949-0.422l-7.089,7.343c0.953,1.189,2.084,2.208,3.394,3.058c3.233,2.089,7.152,3.147,11.753,3.147
	c11.558,0,18.739-4.695,18.739-15.046C359.967,75.985,357.846,71.691,352.734,69.427z"/>
<path fill="#CD051D" d="M315.366,69.427c-2.126-0.945-3.64-1.15-8.217-1.751c-2.771-0.359-4.097-0.548-4.874-1.296
	c-2.792-2.693-0.252-6.527,3.879-6.527c3.895,0,7.417,0.567,8.619,2.748l7.018-6.85c-2.123-3.74-8.797-6.603-17.568-5.653
	c-7.803,0.845-13.847,6.249-13.847,14.372c0,8.359,4.564,12.154,13.553,13.679c2.05,0.346,8.866-0.331,7.826,5.104
	c-0.872,4.541-13.466,4.071-15.949-0.422l-7.089,7.343c0.95,1.189,2.081,2.208,3.394,3.058c3.233,2.089,7.152,3.147,11.752,3.147
	c11.553,0,18.737-4.695,18.737-15.046C322.599,75.985,320.479,71.691,315.366,69.427z"/>
<polygon fill="#CD051D" points="239.21,50.385 234.145,50.385 234.145,95.732 239.131,95.732 244.952,95.732 264.366,95.732 
	264.366,85.696 244.952,85.696 244.952,78.051 261.471,78.051 261.471,68.015 244.952,68.015 244.952,60.419 264.447,60.419 
	264.447,50.385 244.952,50.385 "/>
<rect x="272.255" y="50.383" fill="#CD051D" width="10.802" height="45.349"/>
</svg>
