<?xml version="1.0" encoding="UTF-8" standalone="no"?>
<!-- Created with Inkscape (http://www.inkscape.org/) -->
<svg xmlns:svg="http://www.w3.org/2000/svg" xmlns="http://www.w3.org/2000/svg" version="1.0" width="956.69287" height="956.69287" id="svg2">
  <defs id="defs4"/>
  <g transform="translate(-802.93869,327.98706)" id="layer1">
    <g transform="matrix(1.0022852,0,0,1.0022852,33.598179,34.158279)" id="g5415">
      <path d="M 651.92023,387.83218 A 307.85123,307.85123 0 1 1 36.217773,387.83218 A 307.85123,307.85123 0 1 1 651.92023,387.83218 z" transform="matrix(1.36352,0,0,1.36352,775.69727,-412.88078)" id="path5413" style="opacity:1;fill:#ffffff;fill-opacity:1;fill-rule:nonzero;stroke:#0064b2;stroke-width:32.47806931;stroke-linecap:round;stroke-miterlimit:4;stroke-opacity:1;stroke-dasharray:none;stroke-dashoffset:0;marker:none;marker-start:none;marker-mid:none;marker-end:none;visibility:visible;display:inline;overflow:visible;enable-background:accumulate"/>
      <path d="M 901.67036,14.291518 L 936.61721,14.291518 L 956.36979,-21.415051 L 979.16121,12.77209 L 1017.1469,12.77209 L 999.67349,49.998078 L 1018.6663,85.704648 L 981.44035,85.704648 L 957.88922,120.6515 L 935.8575,85.704648 L 898.6315,85.704648 L 919.9035,48.47865 L 901.67036,14.291518 z" id="path5332" style="fill:#0064b2;fill-opacity:1;fill-rule:evenodd;stroke:none"/>
      <path d="M 1482.8517,15.810947 L 1518.5583,15.810947 L 1537.5512,-19.135914 L 1559.5829,14.291518 L 1597.5686,14.291518 L 1581.6146,51.517506 L 1599.088,86.464367 L 1563.3814,86.464367 L 1539.0706,122.17093 L 1517.0389,86.464367 L 1480.5726,86.464367 L 1501.0849,49.998078 L 1482.8517,15.810947 z" id="path5336" style="fill:#0064b2;fill-opacity:1;fill-rule:evenodd;stroke:none"/>
      <path d="M 891.79408,260.43892 L 1045.2563,167.75378 L 1087.0406,200.4215 L 1123.5069,236.12806 L 1151.6163,268.79577 L 1067.2881,8.9735144 L 1207.8352,-108.78219 L 1239.7432,224.73235 L 1036.8995,386.55148 L 1019.4261,359.20177 L 995.87492,335.65063 L 966.24607,309.82034 L 932.81864,283.99005 L 891.79408,260.43892 z" id="path5340" style="fill:#0064b2;fill-opacity:1;fill-rule:evenodd;stroke:none"/>
      <path d="M 1112.1112,-193.11047 L 1248.8598,-266.80274 L 1267.0929,-250.84874 L 1295.2023,-228.81704 L 1324.8312,-208.30475 L 1359.0183,-188.55218 L 1394.7249,-170.31904 L 1428.1523,-155.88447 L 1460.82,-146.00818 L 1335.4672,-48.005051 L 1287.6052,-66.238191 L 1249.6195,-83.711621 L 1219.2309,-100.42533 L 1188.0826,-120.1779 L 1157.694,-142.96932 L 1131.8638,-167.28019 L 1112.1112,-193.11047 z" id="path5344" style="fill:#0064b2;fill-opacity:1;fill-rule:evenodd;stroke:none"/>
      <path d="M 1335.4672,-46.485623 L 1446.3854,49.998078 L 1393.2055,100.89893 L 1336.9866,144.96236 L 1273.9303,107.73636 L 1216.192,61.393795 L 1335.4672,-46.485623 z" id="path5348" style="fill:#0064b2;fill-opacity:1;fill-rule:evenodd;stroke:none"/>
      <path d="M 1239.7432,223.21292 L 1336.9866,144.96236 L 1376.4917,176.11064 L 1415.9969,201.94093 L 1454.7423,223.21292 L 1492.728,240.68635 L 1542.1094,260.43892 L 1586.9326,275.6332 L 1456.2617,387.31119 L 1405.3609,362.24062 L 1366.6155,337.17005 L 1325.5909,306.78149 L 1295.2023,280.19149 L 1268.6123,255.88064 L 1239.7432,223.21292 z" id="path5352" style="fill:#0064b2;fill-opacity:1;fill-rule:evenodd;stroke:none"/>
      <path d="M 1191.1215,380.47376 L 1226.0683,380.47376 L 1245.8209,345.5269 L 1268.6123,378.95434 L 1306.598,378.95434 L 1289.1246,416.18033 L 1307.3578,451.8869 L 1270.8915,451.8869 L 1247.3403,487.59347 L 1224.5489,451.8869 L 1188.0826,451.8869 L 1209.3546,414.6609 L 1191.1215,380.47376 z" id="path5356" style="fill:#0064b2;fill-opacity:1;fill-rule:evenodd;stroke:none"/>
    </g>
  </g>
</svg>