<?xml version="1.0" encoding="utf-8"?>
<!-- Generator: Adobe Illustrator 13.0.2, SVG Export Plug-In . SVG Version: 6.00 Build 14948)  -->
<!DOCTYPE svg PUBLIC "-//W3C//DTD SVG 1.1 Tiny//EN" "http://www.w3.org/Graphics/SVG/1.1/DTD/svg11-tiny.dtd">
<svg version="1.1" baseProfile="tiny" id="Ebene_1" xmlns="http://www.w3.org/2000/svg" xmlns:xlink="http://www.w3.org/1999/xlink"
	 x="0px" y="0px" width="558px" height="558px" viewBox="0 0 558 558" xml:space="preserve">
<path d="M558,279.003C558,433.09,433.087,558,279,558S0,433.09,0,279.003C0,124.912,124.913,0,279,0S558,124.912,558,279.003z"/>
<path fill="#FFFFFF" d="M425.933,65.82l-63.914,88.601c-5.153,3.154-9.258,5.667-9.823,6.013
	c-1.781-0.847-58.799-27.967-58.799-27.967c-7.037-3.346-12.504-2.811-17.206,1.683l-38.619,36.904
	c-1.98,1.893-2.47,3.729-2.47,5.082c0,0.201,0.01,0.39,0.028,0.568c0.208,2.02,1.515,3.879,3.681,5.232
	c0,0,15.246,9.529,16.838,10.523v23.165c-3.105,0-18.957,0-18.957,0c-0.772,0-1.466,0.475-1.748,1.194
	c0,0-5.934,15.218-9.795,25.118c0-16.055,0-87.176,0-87.176c0-0.705-0.396-1.351-1.024-1.67l-46.478-23.678
	c-4.625-2.357-9.119-2.118-13.358,0.708c0,0-24.798,16.532-26.672,17.78c-1.919-1.203-29.808-18.677-29.808-18.677
	c-6.53-4.088-12.873-2.78-17.862,3.686l-28.838,37.375c-2.099,2.72-3.212,5.625-3.212,8.317c0,0.444,0.031,0.882,0.091,1.311
	c0.334,2.358,1.554,4.368,3.527,5.814c0,0,14.489,10.61,15.885,11.632c0,1.882,0,183.327,0,183.327c0,0.706,0.396,1.351,1.024,1.67
	l74.407,37.907c3.949,2.013,8.19,1.576,11.067-1.137l22.434-21.158l-63.281,87.724c43.38,32.78,97.386,52.245,155.95,52.245
	c143.007,0,258.938-115.928,258.938-258.935C537.938,190.572,493.579,112.535,425.933,65.82z"/>
<polygon fill="#009255" points="225.149,275.25 255.649,275.25 255.649,301.875 225.149,344.156 "/>
<path d="M81.149,196.409c0-0.598-0.286-1.16-0.768-1.513l-16.652-12.195c-1.154-0.845-1.837-1.96-2.029-3.313
	c-0.037-0.261-0.056-0.529-0.056-0.801c0-1.852,0.845-3.954,2.432-6.01l28.838-37.375c3.861-5.004,7.961-5.893,12.904-2.798
	l30.835,19.32c0.625,0.391,1.422,0.379,2.036-0.029l27.68-18.453c3.113-2.074,6.155-2.229,9.576-0.486
	c0,0,43.496,22.157,45.454,23.155c0,2.244,0,95.997,0,95.997c0,0.902,0.642,1.676,1.528,1.843s1.767-0.322,2.093-1.16
	c0,0,12.085-30.99,12.954-33.214c2.257,0,19.55,0,19.55,0c1.036,0,1.875-0.839,1.875-1.875v-26.079c0-0.646-0.333-1.248-0.882-1.589
	l-17.72-11.074c-1.162-0.728-1.85-1.592-1.937-2.436c-0.006-0.062-0.009-0.122-0.009-0.182c0-0.921,0.7-1.793,1.31-2.376
	l38.619-36.904c3.568-3.41,7.336-3.702,13.005-1.006l59.716,28.403c0.571,0.272,1.242,0.236,1.784-0.094
	c0,0,31.714-19.414,33.413-20.454c1.658,0.847,20.848,10.644,22.652,11.565c0,1.957,0,13.835,0,13.835
	c0,0.785,0.489,1.487,1.225,1.759c0.738,0.271,1.564,0.057,2.077-0.541l17.851-20.889c2.874-3.359,5.045-3.773,8.933-1.705
	l42.363,22.529c5.675,3.018,8.402,4.764,8.402,11.442v73c0,10.685-1.948,13.04-7.512,17.045l-12.334,8.88
	c-0.513,0.369-0.806,0.97-0.776,1.6c0.026,0.633,0.369,1.207,0.911,1.529l16.304,9.744c4.494,2.689,6.932,4.951,6.932,9.199v70.002
	c0,12.214-3.038,13.995-10.521,17.183c0,0-61.506,26.218-62.833,26.783c-1.362-0.492-80.432-28.957-80.432-28.957
	c-0.615-0.223-1.304-0.108-1.811,0.302c0,0-17.464,14.048-20.001,16.087c-0.926-1.148-1.605-1.995-2.531-3.144
	c2.722-2.188,40.327-32.426,40.327-32.426c0.442-0.357,0.7-0.894,0.7-1.462V175.737c0-0.598-0.284-1.159-0.768-1.513l-3.791-2.777
	c-0.401-0.294-0.905-0.417-1.4-0.338c-0.492,0.078-0.935,0.35-1.228,0.754l-32.13,44.54c-0.413,0.571-0.469,1.324-0.149,1.951
	c0.322,0.625,0.967,1.021,1.67,1.021c0,0,13.163,0,17.247,0c-1.775,4.553-19.479,49.945-20.329,52.125c-2.101,0-12.223,0-12.223,0
	c-1.034,0-1.875,0.841-1.875,1.875c0,0,0,137.344,0,139.116c-1.324,1.066-46.854,37.69-49.576,39.879
	c-0.924-1.148-1.603-1.992-2.527-3.141c2.172-1.749,9.152-7.362,9.152-7.362c0.442-0.357,0.7-0.894,0.7-1.462v-167.03
	c0-1.034-0.839-1.875-1.875-1.875h-34.25c-1.036,0-1.875,0.841-1.875,1.875c0,0,0,84.776,0,86.364
	c-1.154,1.087-60.075,56.657-60.075,56.657c-1.692,1.597-4.295,1.799-6.792,0.527c0,0-71.391-36.372-73.383-37.386
	C81.149,377.268,81.149,196.409,81.149,196.409z"/>
<path fill="#FFFFFF" d="M141.095,193.315c-1.657,1.05-2.646,2.943-2.646,5.06v150.012c0,0.727,0.419,1.386,1.077,1.696l12.135,5.713
	c2.503,1.181,4.916,1.175,6.792-0.012c1.657-1.052,2.647-2.944,2.647-5.063V200.71c0-0.727-0.419-1.387-1.077-1.696l-12.135-5.714
	C145.384,192.12,142.97,192.125,141.095,193.315z"/>
<path fill="#009255" d="M142.2,198.375c0-0.839,0.33-1.529,0.904-1.894c0.753-0.478,1.885-0.403,3.189,0.211
	c0,0,9.271,4.365,11.058,5.208c0,2.342,0,148.822,0,148.822c0,0.838-0.33,1.529-0.905,1.896c-0.753,0.475-1.884,0.401-3.186-0.214
	c0,0-9.271-4.365-11.06-5.206C142.2,344.856,142.2,198.375,142.2,198.375z"/>
<path fill="#FFFFFF" d="M412.345,197.981c-1.875,1.04-2.994,3.278-2.994,5.985v82.745c0,0.706,0.396,1.354,1.028,1.673
	c0.63,0.319,1.386,0.258,1.954-0.161l22.005-16.113c3.727-2.73,5.537-5.824,5.537-9.466v-49.57c0-0.647-0.334-1.248-0.882-1.591
	l-20.868-13.011C415.392,196.77,413.329,197.433,412.345,197.981z"/>
<path fill="#FFFFFF" d="M410.162,305.657c-0.507,0.349-0.812,0.926-0.812,1.544v61.989c0,0.727,0.419,1.389,1.078,1.696
	l21.357,10.049c2.502,1.181,4.916,1.178,6.791-0.012c1.658-1.052,2.648-2.944,2.648-5.065v-51.527c0-6.571-2.297-8.555-7.447-10.521
	l-21.885-8.361C411.319,305.229,410.672,305.306,410.162,305.657z"/>
<path fill="#009255" d="M152.83,420.264l-74.407-37.907c-0.628-0.319-1.024-0.964-1.024-1.67c0,0,0-181.444,0-183.327
	c-1.396-1.022-15.885-11.632-15.885-11.632c-1.973-1.446-3.193-3.456-3.527-5.814c-0.06-0.429-0.091-0.867-0.091-1.311
	c0-2.692,1.113-5.597,3.212-8.317l28.838-37.375c4.989-6.466,11.332-7.774,17.862-3.686c0,0,27.889,17.474,29.808,18.677
	c1.874-1.248,26.672-17.78,26.672-17.78c4.239-2.826,8.733-3.064,13.358-0.708l46.479,23.678c0.627,0.319,1.022,0.965,1.022,1.67
	c0,0,0,71.121,0,87.176c3.861-9.899,9.794-25.118,9.794-25.118c0.281-0.719,0.979-1.194,1.749-1.194c0,0,15.853,0,18.958,0
	c0-3.091,0-21.391,0-23.165c-1.594-0.995-16.84-10.523-16.84-10.523c-2.168-1.354-3.475-3.212-3.68-5.232
	c-0.018-0.179-0.029-0.368-0.029-0.568c0-1.352,0.489-3.189,2.47-5.082l38.619-36.904c4.702-4.494,10.169-5.029,17.206-1.683
	c0,0,57.018,27.12,58.799,27.967c0.565-0.346,4.67-2.859,9.823-6.013l63.914-88.601C384.182,36.987,333.577,20.063,279,20.063
	c-143.007,0-258.938,115.929-258.938,258.94c0,84.442,40.438,159.422,102.987,206.689l63.281-87.724l-22.434,21.158
	C161.02,421.84,156.779,422.276,152.83,420.264z"/>
<polyline fill="#FFFFFF" points="193.828,69.023 205.273,108.908 218.549,105.07 203.873,53.944 183.268,59.855 186.497,71.13 
	193.828,69.023 193.828,69.023 193.828,69.023 "/>
<path fill="#FFFFFF" d="M255.804,99.129l10.021-15.816l0,0c4.046-6.431,7.33-14.152,6.643-21.819
	c-0.464-5.553-3.776-10.919-8.348-14.013c-4.374-2.928-10.397-3.696-15.519-3.23c-12.097,1.039-22.17,9.006-21.021,22.011
	c0.847,9.768,8.241,18.117,18.639,17.212c2.82-0.246,5.013-1.009,7.308-2.269l0,0l0.168,0.136l-13.553,19.16L255.804,99.129
	L255.804,99.129L255.804,99.129 M249.614,55.147c4.846-0.437,9.142,3.094,9.555,7.935c0.438,4.847-3.177,9.06-8.024,9.47
	c-4.844,0.438-8.839-3.119-9.275-7.963C241.46,59.745,244.771,55.553,249.614,55.147L249.614,55.147L249.614,55.147L249.614,55.147"
	/>
<polyline fill="#FFFFFF" points="298.693,56.845 295.081,98.175 308.854,99.379 313.5,46.389 292.128,44.498 291.111,56.188 
	298.693,56.845 298.693,56.845 298.693,56.845 "/>
<path fill="#FFFFFF" d="M345.911,106.688l14.613-11.684l0,0c5.915-4.796,11.555-11.008,13.418-18.479
	c1.336-5.424-0.029-11.583-3.372-15.961c-3.17-4.213-8.619-6.867-13.597-8.127c-11.769-2.93-23.897,1.311-27.047,13.988
	c-2.385,9.523,1.89,19.815,12.018,22.336c2.736,0.683,5.063,0.683,7.658,0.243l0,0l0.082,0.163l-19.049,13.717L345.911,106.688
	L345.911,106.688L345.911,106.688 M354.366,63.056c4.737,1.206,7.644,5.912,6.466,10.651c-1.181,4.707-5.944,7.525-10.682,6.349
	c-4.734-1.176-7.333-5.83-6.155-10.569C345.176,64.78,349.655,61.878,354.366,63.056L354.366,63.056L354.366,63.056L354.366,63.056"
	/>
<polyline points="172.481,451.166 162.516,445.389 140.345,483.794 162.297,496.471 167.172,488.016 155.209,481.09 
	172.481,451.166 172.481,451.166 172.481,451.166 "/>
<path d="M208.039,449.938c-3.042-1.09-6.35,0.437-7.447,3.419c-1.094,3.044,0.467,6.293,3.504,7.421
	c2.985,1.066,6.268-0.41,7.39-3.454C212.556,454.342,211.02,451.028,208.039,449.938L208.039,449.938L208.039,449.938
	L208.039,449.938 M222.161,455.08c-3.038-1.093-6.349,0.439-7.418,3.422c-1.121,3.035,0.439,6.328,3.475,7.421
	c2.985,1.066,6.296-0.416,7.395-3.451C226.704,459.489,225.146,456.176,222.161,455.08L222.161,455.08L222.161,455.08
	L222.161,455.08 M216.659,471.038l-7.966,21.958l0,0c-1.97,5.385-4.518,11.165-11.468,8.616c-6.952-2.517-5.2-8.558-3.23-13.986l0,0
	l7.992-21.929l-10.84-3.935l-8.514,23.432l0,0c-1.969,5.335-3.665,10.729-0.984,16.254c2.218,4.711,7.254,7.916,12.123,9.694
	c4.847,1.749,10.762,2.54,15.498,0.381c5.61-2.511,7.743-7.746,9.713-13.11l0,0l8.514-23.435L216.659,471.038L216.659,471.038
	L216.659,471.038"/>
<path d="M244.934,504.574l1.175,0.161l0,0c3.727,0.524,9.448,0.791,8.706,6.103c-0.684,4.819-6.375,3.858-9.744,3.366l0,0
	l-1.449-0.19L244.934,504.574L244.934,504.574L244.934,504.574 M248.546,523.623c8.048,1.122,16.345-0.797,17.629-9.993
	c0.851-6.129-1.23-10.758-7.393-12.448l0,0v-0.108l0,0c3.807-1.318,5.556-4.33,6.108-8.3c1.173-8.37-3.642-12.152-11.44-13.248l0,0
	l-16.289-2.268l-6.186,43.878L248.546,523.623L248.546,523.623L248.546,523.623 M247.317,487.576l0.82,0.105l0,0
	c3.095,0.437,6.624,1.184,6.048,5.206c-0.516,3.721-3.75,3.8-6.757,3.363l0,0l-1.288-0.161L247.317,487.576L247.317,487.576
	L247.317,487.576"/>
<polyline points="305.701,489.706 305.177,479.968 280.002,481.28 282.322,525.536 307.506,524.227 306.987,514.479 
	293.297,515.191 292.922,507.583 305.886,506.897 305.367,497.156 292.395,497.807 292.017,490.418 305.701,489.706 
	305.701,489.706 305.701,489.706 "/>
<path d="M347.391,472.219c-3.639-0.604-7.172-0.627-10.761,0.19c-6.073,1.397-11.602,5.446-14.833,10.784
	c-3.146,5.206-4.078,11.385-2.713,17.276c1.482,6.428,4.96,11.522,10.705,14.722c5.394,3.035,11.657,4.022,17.684,2.625
	c3.475-0.814,5.991-2.294,9.448-4.298l0,0l-3.126-13.465l0,0c-1.696,3.343-4.948,5.971-8.619,6.817
	c-6.984,1.614-12.812-2.218-14.399-9.035c-1.535-6.703,1.887-13.055,8.754-14.643c3.835-0.879,7.942-0.085,10.951,2.484l0,0
	L347.391,472.219L347.391,472.219L347.391,472.219"/>
<polyline points="374.622,479.713 374.514,479.766 366.794,463.213 356.341,468.056 375.088,508.242 385.518,503.367 
	377.417,485.962 377.496,485.903 399.123,497.048 412.649,490.72 385.359,477.686 392.476,451.228 379.526,457.269 374.622,479.713 
	374.622,479.713 374.622,479.713 "/>
</svg>
