<?xml version="1.0" encoding="utf-8"?>
<!-- Generator: Adobe Illustrator 13.0.0, SVG Export Plug-In . SVG Version: 6.00 Build 14948)  -->
<!DOCTYPE svg PUBLIC "-//W3C//DTD SVG 1.0//EN" "http://www.w3.org/TR/2001/REC-SVG-20010904/DTD/svg10.dtd">
<svg version="1.0" id="HQFL" xmlns="http://www.w3.org/2000/svg" xmlns:xlink="http://www.w3.org/1999/xlink" x="0px" y="0px"
	 width="399.684px" height="454.192px" viewBox="0 0 399.684 454.192" enable-background="new 0 0 399.684 454.192"
	 xml:space="preserve">
<path fill="#2E6DB0" d="M199.842,454.192c-85.987-38.604-143.896-64.979-174.428-100.53c-14.911-17.362-24.255-38.08-25.319-61.224
	c-2.55-55.45,47.154-109.933,48.046-162.959c0.35-20.748-5.836-42.821-28.595-62.446l0,0L87.751,0l0,0
	c42.579,40.966,86.207,26.146,112.09,0.668C225.725,26.146,269.354,40.966,311.932,0l0,0l67.843,66.85l0,0
	c-20.412,17.549-28.581,41.88-28.232,62.628c0.893,53.027,50.597,107.509,48.047,162.959c-1.064,23.144-10.407,43.862-25.318,61.224
	C343.74,389.212,285.831,415.588,199.842,454.192L199.842,454.192z"/>
<path fill="#FFFFFF" d="M199.842,435.562C139.858,408.781,91.85,386.24,60.553,362.913l0,0l297.4-296.547l-0.368,0.387l0,0
	c-16.193,18.801-21.662,41.335-21.378,66.516c0.606,53.573,50.19,108.424,47.537,154.407c-1.171,20.295-7.424,37.734-20.542,53.259
	C336.339,372.723,278.346,400.513,199.842,435.562L199.842,435.562z"/>
<path fill="#FFFFFF" d="M55.204,368.245c-9.553-7.165-17.684-14.475-24.309-22.147c-14.252-16.506-21.336-34.638-22.572-56.042
	C5.524,241.56,55.31,186.288,56.164,129.791c0.3-19.868-6.766-46.026-25.399-63.086l0,0l57.565-56.172l0,0
	c42.573,37.732,88.025,22.346,111.511-0.236c23.486,22.582,68.938,37.968,111.512,0.236l0,0l52.176,50.273L55.204,368.245
	L55.204,368.245z"/>
<path fill="#2E6DB0" stroke="#2E6DB0" stroke-width="0.7" d="M80.739,366.923l15.437-24.704l5.032,3.144l-12.814,20.508
	l12.505,7.814l-2.624,4.197L80.739,366.923L80.739,366.923z M115.89,385.416l8.587-28.09l20.826,6.367l-1.453,4.752l-15.155-4.634
	l-1.904,6.229l14.1,4.313l-1.446,4.732l-14.101-4.312l-2.336,7.642l15.694,4.799l-1.447,4.732L115.89,385.416L115.89,385.416z
	 M156.362,396.011l4.088-29.088l5.871,0.825l-4.087,29.087L156.362,396.011L156.362,396.011z M182.792,398.955l0.513-29.368
	l9.518,0.165l0,0c3.604,0.064,5.95,0.256,7.043,0.565c1.673,0.472,3.064,1.452,4.175,2.95c1.109,1.496,1.644,3.409,1.603,5.747
	c-0.032,1.805-0.388,3.313-1.063,4.532c-0.674,1.213-1.523,2.167-2.543,2.849c-1.024,0.684-2.05,1.144-3.102,1.34
	c-1.418,0.265-3.47,0.361-6.157,0.314l0,0l-3.866-0.067l-0.193,11.075L182.792,398.955L182.792,398.955z M189.146,374.659
	L189,382.992l3.246,0.057l0,0c2.339,0.041,3.906-0.087,4.696-0.38c0.794-0.294,1.417-0.762,1.876-1.408
	c0.461-0.65,0.696-1.403,0.711-2.271c0.019-1.071-0.275-1.957-0.892-2.662c-0.616-0.706-1.407-1.151-2.362-1.344
	c-0.707-0.144-2.126-0.237-4.263-0.275l0,0L189.146,374.659L189.146,374.659z M222.431,398.005l-0.929-5.269l11.884-21.442
	l-13.476,2.376l-0.862-4.895l21.167-3.732l0.801,4.541l-12.404,22.306l16.456-2.902l0.86,4.874L222.431,398.005L222.431,398.005z
	 M263.714,389.373l-9.562-27.772l5.605-1.93l9.563,27.772L263.714,389.373L263.714,389.373z M294.453,364.102l-2.623-4.197
	l10.84-6.773l6.198,9.922l0,0c-0.417,1.675-1.38,3.529-2.893,5.551c-1.517,2.025-3.3,3.684-5.349,4.963
	c-2.605,1.628-5.218,2.5-7.837,2.616c-2.624,0.117-5.053-0.536-7.296-1.959c-2.246-1.426-4.114-3.333-5.608-5.726
	c-1.62-2.591-2.518-5.236-2.69-7.935c-0.172-2.692,0.455-5.235,1.874-7.617c1.086-1.825,2.814-3.481,5.192-4.97
	c3.094-1.932,5.912-2.794,8.462-2.583c2.546,0.209,4.783,1.305,6.713,3.28l0,0l-4.409,4.056l0,0
	c-1.116-1.002-2.381-1.556-3.789-1.66c-1.413-0.104-2.843,0.3-4.291,1.205c-2.2,1.376-3.511,3.161-3.938,5.37
	c-0.428,2.201,0.216,4.673,1.928,7.413c1.849,2.957,3.892,4.768,6.13,5.423c2.234,0.655,4.419,0.316,6.549-1.014
	c1.053-0.659,1.982-1.523,2.781-2.597c0.803-1.077,1.4-2.146,1.787-3.21l0,0l-1.973-3.157L294.453,364.102L294.453,364.102z"/>
<g>
	<path fill="#2E6DB0" d="M182.132,308.991c0.008,12.391-1.831,24.679-8.957,24.679h-2.796v5.884h36.71v-5.884h-5.026
		c-6.7,0-8.888-9.997-8.795-24.744l0.06-78.407l-11.2,11.168L182.132,308.991z"/>
	<path fill="#2E6DB0" d="M241.337,166.904h-3.479v-4.46h23.738l96.355-96.078l-47.127-45.701
		c-42.578,34.962-90.563,18.942-110.984-1.755c-20.421,20.697-68.405,36.717-110.984,1.755L41.151,66.929
		c16.194,18.8,22.612,39.496,22.327,64.676c-0.026,24.847-11.465,52.924-23.675,80.259c-12.209,27.334-25.189,53.929-23.862,75.812
		c1.171,20.295,7.424,37.734,20.543,53.259c6.336,7.498,14.407,14.775,24.069,21.978l121.575-121.227l-0.005-74.349h-13.141v-10.506
		h13.141l0.025-41.437c0.01-17.417,0.531-41.649,10.331-52.1c3.94-4.202,8.884-6.247,15.716-6.247
		c4.789,0,12.581,4.105,16.58,13.123c2.062,4.649,3.573,11.294,3.289,16.732c-0.284,5.437-2.364,9.666-7.486,9.488
		c-3.294-0.114-6.75-2.572-8.264-6.573c-2.229-5.891-0.493-7.751-3.737-15.276c-1.298-3.008-3.116-4.342-4.956-4.33
		c-10.448,0.069-10.205,34.676-10.353,46.48l0.108,40.14h16.113v10.506h-16.113l-0.049,63.181l56.604-56.441
		c-0.202-0.76-0.429-1.387-0.679-1.88C247.488,168.658,244.849,166.904,241.337,166.904z M162.882,87.128
		c-3.286,1.046-5.768,2.86-7.446,5.506c-2.41,3.938-4.561,9.937-6.413,18.027l-32.295,138.683h-2.518L79.521,108.877
		c-1.764-7.229-3.023-11.628-3.757-13.228c-1.137-2.492-2.535-4.43-4.195-5.813c-1.66-1.416-3.897-2.308-6.728-2.708v-4.461h39.204
		v4.461c-4.264,0.707-7.043,2-8.318,3.845c-1.276,1.846-1.923,4.184-1.923,7.076c0,3.999,1.092,10.235,3.146,18.735l22.634,93.704
		l20.92-92.474c2.11-9.326,3.199-15.75,3.199-19.35c0-2.339-0.654-4.549-1.976-6.677c-1.316-2.119-3.547-3.632-6.694-4.522
		c-0.226-0.064-0.611-0.185-1.152-0.338v-4.461h29V87.128z"/>
	<path fill="#2E6DB0" d="M300.108,242.245c5.505-3.138,9.682-7.907,12.496-14.367c2.831-6.461,4.229-13.752,4.229-21.935
		c0-9.537-1.799-17.966-5.383-25.287c-3.601-7.323-8.808-12.43-15.641-15.321c-4.509-1.938-10.485-2.892-17.947-2.892h-16.265
		l-11.665,11.633c0.87,3.271,1.296,9.01,1.296,17.224v105.242c0,9.137-0.524,15.104-1.556,17.935
		c-1.694,4.308-4.474,6.462-8.335,6.462h-3.479v4.46h43.689c10.416,0,18.176-1.692,23.244-5.107
		c5.068-3.414,9.07-8.798,11.971-16.212c2.919-7.415,4.368-15.166,4.368-23.257c0-10.675-2.201-19.689-6.605-27.042
		C311.328,248.49,306.539,244.644,300.108,242.245z M264.335,173.15c3.651-1.785,7.741-2.646,12.303-2.646
		c8.459,0,14.889,3.353,19.311,10.09c4.422,6.738,6.623,14.859,6.623,24.396c0,6.152-0.891,11.844-2.655,17.074
		c-1.783,5.199-4.334,9.075-7.689,11.597c-3.339,2.523-8.336,3.785-14.978,3.785c-2.603,0-4.98-0.154-7.13-0.431
		c-2.167-0.277-4.089-0.708-5.784-1.262V173.15z M298.815,307.063c-4.316,6.553-10.607,9.814-18.84,9.814
		c-5.137,0-10.345-1.107-15.64-3.261v-66.819c1.24-0.399,2.849-0.677,4.858-0.83c1.992-0.154,4.403-0.246,7.234-0.246
		c6.502,0,11.971,1.692,16.375,5.044c4.422,3.384,7.602,7.969,9.56,13.813c1.957,5.876,2.936,11.936,2.936,18.274
		C305.298,292.482,303.131,300.542,298.815,307.063z"/>
</g>
</svg>
