<?xml version="1.0" encoding="utf-8"?>
<!-- Generator: Adobe Illustrator 13.0.2, SVG Export Plug-In . SVG Version: 6.00 Build 14948)  -->
<!DOCTYPE svg PUBLIC "-//W3C//DTD SVG 1.0//EN" "http://www.w3.org/TR/2001/REC-SVG-20010904/DTD/svg10.dtd">
<svg version="1.0" id="Layer_1" xmlns="http://www.w3.org/2000/svg" xmlns:xlink="http://www.w3.org/1999/xlink" x="0px" y="0px"
	 width="432px" height="432.023px" viewBox="0 0 432 432.023" enable-background="new 0 0 432 432.023" xml:space="preserve">
<path fill="#393738" d="M432,216.023c0,119.313-96.688,216-216,216c-119.29,0-216-96.688-216-216C0,96.71,96.71,0,216,0
	C335.313,0,432,96.71,432,216.023"/>
<path fill="#FFFFFF" d="M425.516,216.023c0,115.701-93.816,209.518-209.516,209.518c-115.7,0-209.516-93.816-209.516-209.518
	S100.3,6.508,216,6.508C331.699,6.508,425.516,100.322,425.516,216.023"/>
<path fill="#393738" d="M420.26,216.023c0,112.807-91.455,204.26-204.26,204.26c-112.804,0-204.236-91.453-204.236-204.26
	C11.764,103.22,103.196,11.766,216,11.766C328.805,11.766,420.26,103.22,420.26,216.023"/>
<path fill="#FFFFFF" d="M378.551,216.023c0,89.762-72.766,162.529-162.551,162.529c-89.786,0-162.55-72.768-162.55-162.529
	S126.214,53.474,216,53.474C305.785,53.474,378.551,126.262,378.551,216.023"/>
<path fill="#FFFFFF" d="M44.742,167.554c1.574,0.44,4.724,0.601,6.346-4.448c0.88-2.734,1.204-5.998-1.714-6.947
	c-2.176-0.672-3.428,1.205-5.048,3.912l-1.668,2.758c-2.479,4.146-4.864,8.151-10.93,6.186c-3.103-0.972-8.015-4.378-5.143-13.366
	c2.71-8.5,8.986-8.983,12.414-7.941l-1.784,5.534c-1.273-0.232-4.376-0.694-5.974,4.354c-0.719,2.2-0.719,5.094,1.784,5.906
	c2.151,0.672,3.172-0.948,3.796-2.017l3.844-6.229c2.154-3.473,4.816-6.46,9.773-4.887c8.339,2.687,6.347,11.418,5.582,13.828
	c-3.243,10.143-9.611,10.004-13.063,8.893L44.742,167.554"/>
<path fill="#FFFFFF" d="M51.458,132.63c2.038-4.054-0.88-5.49-2.038-6.068c-2.523-1.274-4.284-0.37-5.974,2.988l-2.154,4.33
	l7.666,3.821L51.458,132.63z M62.83,144.626l-2.708,5.439L34.09,137.076l5.928-11.902c2.502-5.026,7.272-6.486,12.368-3.914
	c2.362,1.158,7.664,5.418,4.168,12.458l-3.104,6.231L62.83,144.626"/>
<path fill="#FFFFFF" d="M75.658,114.404c1.924-2.664,2.988-7.597-3.588-12.391c-6.622-4.77-10.977-2.222-12.876,0.439
	c-1.946,2.664-3.011,7.597,3.59,12.367C69.382,119.592,73.712,117.065,75.658,114.404 M55.002,99.443
	c2.292-3.128,9.564-10.352,20.612-2.315c11.067,8.012,6.46,17.182,4.189,20.286c-2.246,3.128-9.54,10.352-20.609,2.315
	C48.146,111.718,52.754,102.548,55.002,99.443"/>
<path fill="#FFFFFF" d="M87.75,82.445c2.246-2.226,2.594-4.078,0.602-6.162c-1.09-1.088-3.174-2.222-5.724,0.278l-5.418,5.28
	l5.442,5.582L87.75,82.445z M69.43,82.422l10.515-10.307c5.558-5.396,10.56-2.291,12.321-0.485c2.223,2.292,3.011,5.372,1.62,8.104
	c2.454-0.926,3.984-1.18,7.78,2.688c3.012,3.056,3.729,3.798,5.002,3.242l0.534,0.531l-4.818,4.727
	c-1.25-0.696-2.478-1.598-4.562-3.776c-2.78-2.823-4.03-3.752-7.248-0.602l-4.519,4.378l7.971,8.128l-4.263,4.192L69.43,82.422"/>
<polygon fill="#FFFFFF" points="119.498,77.374 114.588,80.939 100.51,61.556 93.4,66.697 90.388,62.552 109.542,48.634 
	112.55,52.826 105.442,57.966 "/>
<polygon fill="#FFFFFF" points="130.105,37.47 135.708,34.554 140.434,64.914 135.292,67.6 113.105,46.34 118.896,43.33 
	134.645,59.979 134.714,59.934 "/>
<polygon fill="#FFFFFF" points="164.056,29.943 149.42,34.924 151.41,40.714 164.844,36.128 166.512,41.014 153.078,45.576 
	155.534,52.731 170.771,47.5 172.439,52.386 151.548,59.494 142.148,31.981 162.412,25.08 "/>
<path fill="#FFFFFF" d="M186.01,33.256c3.126-0.557,4.446-1.876,3.982-4.725c-0.278-1.506-1.342-3.636-4.84-3.033l-7.479,1.273
	l1.296,7.688L186.01,33.256z M170.958,22.834l14.496-2.479c7.642-1.296,9.983,4.076,10.422,6.555
	c0.534,3.174-0.603,6.162-3.244,7.598c2.524,0.624,3.938,1.271,4.864,6.645c0.718,4.193,0.88,5.233,2.271,5.489l0.093,0.765
	l-6.603,1.136c-0.626-1.298-1.134-2.71-1.644-5.677c-0.65-3.912-1.181-5.396-5.604-4.629l-6.208,1.041l1.946,11.232l-5.88,0.996
	L170.958,22.834"/>
<polygon fill="#FFFFFF" points="224.453,23.065 209.03,23.252 209.1,29.365 223.293,29.203 223.342,34.346 209.17,34.508 
	209.262,42.056 225.379,41.869 225.469,47.012 203.378,47.268 203.01,18.18 224.406,17.902 "/>
<polygon fill="#FFFFFF" points="234.969,48.147 228.922,47.592 231.633,18.619 237.703,19.197 "/>
<polygon fill="#FFFFFF" points="263.035,23.552 268.57,24.71 262.572,53.195 256.621,51.945 249.281,29.203 249.188,29.18 
	244.926,49.468 239.367,48.31 245.387,19.824 251.641,21.168 258.773,43.376 258.867,43.376 "/>
<path fill="#FFFFFF" d="M284.227,29.203l5.857,2.778c-3.471,15.98-4.006,17.972-4.955,21.19l0.07,0.048
	c1.783-2.526,3.449-5.002,12.781-17.508l5.836,2.778c-3.797,15.888-4.191,17.416-5.209,21.098l0.045,0.021
	c1.621-2.292,3.15-4.352,13.434-17.182l5.559,2.638l-19.871,22.79l-5.281-2.523c3.404-14.174,4.17-16.952,5.674-22.418l-0.068-0.024
	c-3.197,4.632-4.539,6.347-13.805,18.55l-5.139-2.432L284.227,29.203"/>
<path fill="#FFFFFF" d="M317.365,67.3l6.021,4.306l3.752-11.464l-0.047-0.046L317.365,67.3z M307.965,74.154l-5.188-3.707
	l25.334-17.67l5.697,4.076l-8.57,29.645l-5.348-3.844l1.969-5.953l-8.754-6.254L307.965,74.154z"/>
<path fill="#FFFFFF" d="M352.799,86.195c0.879-1.574,2.523-4.56-1.066-8.082c-2.084-2.037-6.529-3.636-12.275,2.225
	c-3.658,3.728-5.465,8.546-1.805,12.158c2.41,2.338,5.42,2.615,8.43,0.578l4.354,4.262c-5.279,3.66-11.346,3.938-16.535-1.158
	c-5.535-5.441-5.836-13.061,1.158-20.242c7.133-7.248,14.961-6.854,20.311-1.62c6.229,6.114,4.563,12.83,1.783,16.143
	L352.799,86.195"/>
<polygon fill="#FFFFFF" points="349.324,112.203 345.713,107.317 369.193,90.088 372.76,94.996 363.242,101.992 379.34,103.936 
	383.994,110.304 367.365,107.758 360.949,128.067 356.318,121.746 361.297,106.924 357.268,106.39 "/>
<polygon fill="#FFFFFF" points="392.631,137.748 385.592,124.014 380.125,126.815 386.609,139.414 382.025,141.777 375.539,129.156 
	368.824,132.605 376.211,146.966 371.648,149.304 361.553,129.642 387.443,116.348 397.217,135.386 "/>
<path fill="#FFFFFF" d="M392.539,159.958c0.973,3.008,2.5,4.122,5.232,3.241c1.482-0.487,3.428-1.832,2.316-5.233l-2.361-7.204
	l-7.41,2.41L392.539,159.958z M400.666,143.56l4.563,13.988c2.408,7.342-2.594,10.446-5.002,11.231
	c-3.01,0.996-6.16,0.303-7.967-2.105c-0.254,2.594-0.693,4.098-5.881,5.79c-4.029,1.319-5.004,1.644-5.096,3.032l-0.74,0.231
	l-2.086-6.392c1.205-0.811,2.549-1.506,5.398-2.454c3.773-1.228,5.164-1.922,3.773-6.208l-1.945-5.975l-10.84,3.521l-1.852-5.628
	L400.666,143.56"/>
<path fill="#FFFFFF" d="M83.602,337.885l5.513,5.557c1.808,1.877,4.03,2.615,5.79,0.861c1.899-1.832,1.158-3.734-0.973-5.887
	l-5.374-5.441L83.602,337.885z M73.712,347.635l5.746,5.813c2.269,2.314,4.606,2.639,6.9,0.348c1.993-1.947,1.067-4.402-0.626-6.115
	l-5.95-6.02L73.712,347.635z M88.004,324.592l10.884,11c5.466,5.555,3.404,10.398,1.066,12.736c-3.244,3.195-5.976,2.27-7.388,1.807
	c1.714,3.775,0.207,6.693-2.038,8.918c-1.807,1.758-4.238,2.686-6.603,2.639c-2.548-0.049-4.54-0.486-9.146-5.139l-9.473-9.613
	L88.004,324.592"/>
<path fill="#FFFFFF" d="M117.9,377.045c-4.862,6.855-11.047,6.855-17.622,2.201c-2.362-1.693-5.513-4.797-6.022-8.988
	c-0.277-2.615,0.648-5.094,2.454-7.758l12.182-17.201l5.559,3.91L102.5,366.09c-2.594,3.59-1.622,6.693,0.926,8.475
	c3.752,2.645,6.532,1.924,8.778-1.225l12.16-17.137l5.512,3.936L117.9,377.045"/>
<path fill="#FFFFFF" d="M140.828,381.168c3.126,1.436,5.164,1.088,6.506-1.783c0.696-1.504,1.066-4.1-2.454-5.746l-7.504-3.496
	l-3.634,7.713L140.828,381.168z M133.788,362.385l14.565,6.811c7.688,3.611,6.438,9.936,5.28,12.412
	c-1.481,3.195-4.354,5.164-7.666,4.793c1.876,2.133,2.756,3.637,0.254,9.01c-1.989,4.236-2.476,5.279-1.411,6.369l-0.349,0.762
	l-6.69-3.125c0.23-1.551,0.673-3.148,2.084-6.137c1.853-3.938,2.339-5.559-2.153-7.664l-6.206-2.895l-5.304,11.301l-5.906-2.781
	L133.788,362.385"/>
<path fill="#FFFFFF" d="M171.882,392.701l12.922,3.289l-4.26,16.648l-4.284-1.086l0.324-4.055c-2.107,1.48-5.188,3.66-10.814,2.223
	c-7.459-1.898-12.854-8.938-10.073-19.777c2.151-8.428,8.87-15.17,19.246-12.506c9.47,2.434,11.67,9.541,10.93,13.873l-6.462-1.621
	c0.3-1.227-0.904-5.648-5.488-6.809c-4.586-1.18-9.632,0.926-11.672,8.824c-2.132,8.43,1.898,11.809,6.276,12.922
	c1.411,0.348,6.321,1.02,9.239-4.887l-7.201-1.828L171.882,392.701"/>
<polygon fill="#FFFFFF" points="197.868,400.182 196.964,414.445 190.316,414.008 192.332,382.209 198.98,382.627 198.214,394.693 
	210.605,395.455 211.392,383.438 218.016,383.854 216,415.652 209.354,415.213 210.258,400.967 "/>
<path fill="#FFFFFF" d="M233.254,402.451l8.059-0.928l-5.326-12.088h-0.092L233.254,402.451z M230.66,414.885l-6.971,0.791
	l7.713-32.932l7.596-0.881l14.773,30.381l-7.201,0.813l-2.756-6.277l-11.674,1.32L230.66,414.885z"/>
<path fill="#FFFFFF" d="M280.543,393.209c2.316,8.059-1.527,12.898-9.262,15.145c-2.805,0.813-7.182,1.344-10.793-0.902
	c-2.199-1.41-3.566-3.682-4.539-6.738l-5.836-20.309l6.527-1.877l5.723,19.869c1.227,4.285,4.238,5.441,7.25,4.563
	c4.352-1.25,5.559-3.914,4.492-7.617l-5.813-20.174l6.508-1.873L280.543,393.209"/>
<path fill="#FFFFFF" d="M292.957,389.273c0.787,1.598,3.078,4.215,8.336,1.689c2.805-1.41,5.629-3.611,4.168-6.645
	c-1.109-2.223-3.543-1.785-6.947-1.02l-3.404,0.787c-5.141,1.182-10.119,2.314-13.223-3.982c-1.551-3.174-2.57-9.658,6.717-14.174
	c8.799-4.287,13.939,0.299,15.701,3.795l-5.744,2.803c-0.787-1.203-2.732-4.004-7.967-1.434c-2.293,1.109-4.584,3.266-3.309,5.857
	c1.086,2.225,3.172,1.83,4.467,1.508l7.828-1.693c4.377-0.951,8.754-1.109,11.256,4.057c4.215,8.59-4.191,13.641-6.719,14.865
	c-10.467,5.096-15.168-0.045-16.906-3.588L292.957,389.273"/>
<polygon fill="#FFFFFF" points="326.072,350.02 312.318,359.838 316.207,365.303 328.852,356.273 332.141,360.857 319.473,369.889 
	324.266,376.605 338.648,366.346 341.914,370.953 322.229,384.99 303.727,359.053 322.809,345.434 "/>
<polygon fill="#FFFFFF" points="339.738,328.896 344.092,324.498 366.74,346.893 362.084,351.639 336.771,344.902 336.703,344.949 
	352.846,360.949 348.49,365.35 325.842,342.934 330.773,337.953 355.439,344.578 355.508,344.531 "/>
<path fill="#393738" d="M373.293,216.023c0,86.865-70.426,157.291-157.293,157.291c-86.868,0-157.292-70.426-157.292-157.291
	c0-86.867,70.424-157.294,157.292-157.294C302.867,58.729,373.293,129.156,373.293,216.023"/>
<path fill="#FFFFFF" d="M366.785,216.023c0,83.279-67.484,150.762-150.785,150.762c-83.278,0-150.786-67.482-150.786-150.762
	c0-83.277,67.508-150.785,150.786-150.785C299.301,65.238,366.785,132.746,366.785,216.023"/>
<path fill="#393738" d="M313.799,116.002c-1.48,14.89-3.889,28.184-6.738,38.535c-7.713,28.16-21.283,52.385-35.734,71.908
	L216,82.537l-55.324,143.908c-14.454-19.523-28.023-43.771-35.758-71.908c-2.826-10.352-5.234-23.646-6.716-38.56
	c-18.806,18.39-32.47,42.058-38.561,68.597c17.765,78.113,60.606,130.221,102.916,159.008L216,250.783l33.441,92.799
	c42.311-28.787,85.154-80.895,102.916-159.008C346.268,158.035,332.604,134.367,313.799,116.002"/>
<path fill="#FFFFFF" d="M165.584,228.32c0,0,42.266-109.935,50.416-131.125c8.176,21.19,53.844,140.064,53.844,140.064l5.699-7.689
	c17.32-23.389,29.641-48.171,36.59-73.645c2.223-8.128,4.121-17.714,5.557-28.09c14.174,16.304,24.225,35.734,29.227,56.76
	c-19.338,83.535-65.516,129.25-94.857,150.715C247.982,324.057,216,235.246,216,235.246s-31.982,88.811-36.058,100.064
	c-29.343-21.465-75.521-67.18-94.858-150.715c5.004-21.025,15.054-40.456,29.227-56.76c1.436,10.376,3.334,19.962,5.56,28.09
	c6.97,25.474,19.266,50.256,36.588,73.645l5.7,7.689L165.584,228.32"/>
<path fill="#393738" d="M170.494,230.221c0,0,32.236-83.835,45.506-118.387c13.27,34.552,52.387,136.266,52.387,136.266
	l11.414-15.402c17.648-23.922,30.27-49.281,37.426-75.403c1.391-5.095,2.617-10.771,3.752-16.836
	c9.564,13.292,16.533,28.208,20.518,44.161c-17.924,76.008-58.404,119.754-86.938,142.172C247.566,307.311,216,219.752,216,219.752
	s-31.542,87.559-38.558,107.039c-28.532-22.418-68.99-66.188-86.938-142.172c3.984-15.953,10.954-30.869,20.54-44.161
	c1.112,6.065,2.34,11.741,3.729,16.836c7.181,26.122,19.778,51.481,37.425,75.403l11.42,15.402L170.494,230.221"/>
</svg>
