<?xml version="1.0" encoding="utf-8"?>
<!DOCTYPE svg PUBLIC "-//W3C//DTD SVG 1.1//EN" "http://www.w3.org/Graphics/SVG/1.1/DTD/svg11.dtd" [
<!ENTITY ns_svg "http://www.w3.org/2000/svg">
<!ENTITY ns_xlink "http://www.w3.org/1999/xlink">
]>
<svg  version="1.1" id="Layer_1" xmlns="&ns_svg;" xmlns:xlink="&ns_xlink;" width="187.087" height="187.087"
viewBox="0 0 187.087 187.087" overflow="visible" enable-background="new 0 0 187.087 187.087" xml:space="preserve">
<path fill-rule="evenodd" clip-rule="evenodd" d="M187.087,93.543c0,51.664-41.881,93.543-93.543,93.543S0,145.207,0,93.543
C0,41.881,41.881,0,93.543,0S187.087,41.881,187.087,93.543L187.087,93.543z"/>
<path fill-rule="evenodd" clip-rule="evenodd" fill="#FFFFFF" d="M172.119,93.543c0,43.397-35.178,78.577-78.576,78.577
c-43.397,0-78.577-35.18-78.577-78.577s35.18-78.576,78.577-78.576C136.941,14.967,172.119,50.146,172.119,93.543L172.119,93.543z"
/>
<path fill-rule="evenodd" clip-rule="evenodd" d="M43.067,107.552c0,0,5.726,11.52,14.471,19.565
c2.895,2.663,5.673-0.115,5.673-0.115s14.419-14.318,15.166-24.775c0.579-8.104-2.779-11.924-2.779-11.924
s-6.949-9.607-11.809-15.05c-2.895-3.242,0.232-6.368,0.232-6.368s2.894-4.515,5.441-0.579c2.547,3.936,3.589,5.557,3.589,5.557
s1.042,2.894,4.399-0.348s4.168-3.705,5.441-5.789c1.274-2.084,1.505-4.167-1.042-7.525c-2.547-3.358-7.988-11.462-9.493-12.967
c-1.505-1.505-3.474-3.705-7.873,0.348c-4.399,4.052-12.271,11.23-16.787,19.797c-3.357,6.367,1.737,12.966,1.737,12.966
s5.343,8.073,12.966,16.787c2.431,2.778,0.347,7.062,0.347,7.062s-1.389,3.82-4.631-0.231c0,0-4.515-6.252-5.326-7.641
c-0.81-1.39-1.852-3.357-4.515-1.158c-2.663,2.2-5.673,5.326-5.673,5.326S40.289,101.879,43.067,107.552L43.067,107.552z"/>
<path fill-rule="evenodd" clip-rule="evenodd" d="M93.543,121.329c13.429,24.543,29.836,37.792,29.836,37.792
c24.889-11.342,42.191-36.439,42.191-65.578c0-27.167-15.04-50.821-37.248-63.09l-7.921,10.452c0,0,29.946,17.134,29.946,50.939
c0,0-0.155,32.262-26.242,47.699c0,0-22.845-20.53-22.845-45.847V34.269H85.825v59.429c0,25.316-22.846,45.847-22.846,45.847
c-26.087-15.437-26.242-47.699-26.242-47.699c0-33.805,29.946-50.939,29.946-50.939l-7.921-10.452
c-22.208,12.269-37.249,35.923-37.249,63.09c0,29.138,17.303,54.236,42.193,65.578C63.708,159.121,80.114,145.872,93.543,121.329
L93.543,121.329z"/>
<path fill-rule="evenodd" clip-rule="evenodd" d="M131.672,127.194c0,0,20.915-25.547,12.348-50.477h-19.294l0.153,7.564
c0,0,0,5.248,3.551,5.248l2.623-0.154c0,0,0.231,11.809-3.937,19.218c0,0-10.65-14.355-5.479-41.138l6.02,6.638l11.577-7.873
c0,0-3.782-8.799-13.583-16.826c-4.162-3.408-9.108,1.234-9.108,1.234s-9.339,7.024-10.497,19.141c0,0-3.549,29.021,6.021,45.537
c0,0,3.184,6.558,11.577,14.048C127.232,132.559,131.672,127.194,131.672,127.194L131.672,127.194z"/>
<path fill-rule="evenodd" clip-rule="evenodd" d="M91,146.653c-1.781-2.494-4.055-3.758-6.757-3.758
c-2.837,0-5.133,1.482-6.639,4.288c-1.395,2.602-1.923,5.973-1.569,10.02c0.337,3.856,1.355,6.974,3.025,9.266
c1.794,2.464,4.122,3.713,6.919,3.713c1.946,0,4.656-0.745,6.508-4.293c1.352-2.595,1.857-5.969,1.501-10.03
C93.656,152.063,92.651,148.966,91,146.653L91,146.653z M86.28,163.65c-0.147,0.739-0.328,0.977-0.382,1.035
c-0.21-0.011-0.561-0.421-0.884-1.34c-0.493-1.399-0.896-3.843-1.195-7.266c-0.15-1.717-0.226-3.17-0.226-4.351
c0-0.99,0.053-1.789,0.159-2.389c0.11-0.625,0.258-0.897,0.327-0.996c0.291,0.027,0.653,0.535,0.957,1.368
c0.514,1.416,0.931,3.917,1.239,7.437c0.132,1.512,0.198,2.815,0.198,3.905C86.474,162.132,86.41,162.999,86.28,163.65L86.28,163.65
z"/>
<path fill-rule="evenodd" clip-rule="evenodd" d="M112.34,155.243c-0.315-3.623-1.312-6.58-2.962-8.785
c-1.765-2.363-3.995-3.563-6.626-3.563c-2.564,0-4.618,1.002-6.103,2.979c-1.42,1.893-2.014,4.29-1.766,7.125
c0.203,2.313,0.951,4.224,2.225,5.683c1.354,1.546,3.043,2.331,5.021,2.331c0.923,0,1.789-0.211,2.585-0.617
c-0.023,1.378-0.174,2.207-0.329,2.668c-0.277,0.813-0.628,0.879-0.993,0.879c-0.11,0-0.539-0.045-1.413-0.63
c-1.185-0.792-1.89-1.1-2.52-1.1c-0.942,0-1.726,0.449-2.204,1.269c-0.372,0.64-0.519,1.436-0.438,2.368
c0.115,1.308,0.696,2.413,1.681,3.198c0.942,0.752,2.155,1.133,3.599,1.133c1.537,0,3.029-0.39,4.436-1.158
c1.386-0.761,2.554-1.821,3.473-3.15c0.908-1.338,1.576-2.973,1.988-4.868C112.396,159.146,112.512,157.207,112.34,155.243
L112.34,155.243z M102.955,154.428c-0.252-0.425-0.579-1.274-0.724-2.911c-0.029-0.349-0.044-0.655-0.044-0.927
c0-0.818,0.12-1.303,0.237-1.581c0.089-0.214,0.157-0.271,0.164-0.274c0.01-0.001,0.042-0.004,0.042-0.004
c0.148,0,0.458,0,0.817,0.793c0.288,0.634,0.684,2.005,0.939,4.915c0,0,0.009,0.118,0.014,0.17
c-0.146,0.109-0.264,0.182-0.345,0.223l-0.004,0.001c-0.151,0.078-0.291,0.116-0.425,0.116
C103.499,154.948,103.261,154.948,102.955,154.428L102.955,154.428z"/>
</svg>
