<?xml version="1.0" encoding="utf-8"?>
<!-- Generator: Adobe Illustrator 22.1.0, SVG Export Plug-In . SVG Version: 6.00 Build 0)  -->
<svg version="1.1" id="Ebene_1" xmlns="http://www.w3.org/2000/svg" xmlns:xlink="http://www.w3.org/1999/xlink" x="0px" y="0px"
	 viewBox="0 0 99.1 99.1" enable-background="new 0 0 99.1 99.1" xml:space="preserve">
<title>main-logo</title>
<circle fill="#FFFFFF" cx="49.55" cy="49.55" r="49.55"/>
<path fill="#17428B" d="M49.55,97.744c-12.873,0-24.976-5.013-34.078-14.116S1.356,62.423,1.356,49.55s5.013-24.976,14.116-34.078
	S36.677,1.356,49.55,1.356c12.873,0,24.976,5.013,34.078,14.116S97.744,36.677,97.744,49.55c0,12.873-5.013,24.976-14.116,34.078
	S62.423,97.744,49.55,97.744z"/>
<circle fill="#FFFFFF" cx="49.55" cy="49.55" r="37.319"/>
<ellipse fill="#E53323" cx="49.55" cy="49.55" rx="36.014" ry="36.014"/>
<g>
	<path fill="#FFFFFF" d="M15.319,31.187c0,0-4.06-4.26-4.39-4.606c0.462,0.127,6.13,1.686,6.13,1.686l0.619-1.04l-5.643-5.749
		l-0.055,0.092l-0.616,1.033c0,0,4.064,3.885,4.44,4.246c-0.502-0.138-5.989-1.647-5.989-1.647l-0.641,1.076
		c0,0,3.938,4.107,4.299,4.483c-0.496-0.16-5.847-1.885-5.847-1.885l-0.66,1.107l7.731,2.245L15.319,31.187z"/>
	<path fill="#FFFFFF" d="M22.339,22.176c0.697-0.691,1.068-1.47,1.071-2.253c0.004-0.745-0.313-1.461-0.916-2.069l-3.541-3.574
		l-0.059,0.058l-0.791,0.783l3.452,3.484c1.23,1.242,0.558,2.276,0.048,2.781c-0.491,0.486-1.5,1.114-2.743-0.14l-3.437-3.469
		l-0.849,0.842l3.638,3.672C19.128,23.217,20.759,23.741,22.339,22.176z"/>
	<path fill="#FFFFFF" d="M27.195,9.324c-0.583-0.132-1.209-0.001-1.809,0.377l-2.97,1.875l4.158,6.587l1.011-0.638
		c0,0-1.633-2.588-1.718-2.721c0.131-0.083,1.959-1.237,1.959-1.237c0.84-0.53,1.147-1.216,1.147-1.877
		c0-0.491-0.169-0.968-0.415-1.358C28.221,9.798,27.749,9.449,27.195,9.324z M27.781,11.748c0,0.07-0.007,0.138-0.023,0.206
		c-0.075,0.329-0.332,0.629-0.786,0.916c0,0-1.534,0.968-1.663,1.05c-0.081-0.127-1.243-1.968-1.323-2.096
		c0.13-0.082,1.699-1.072,1.699-1.072c0.438-0.277,0.823-0.38,1.145-0.307c0.268,0.061,0.502,0.247,0.696,0.554
		C27.697,11.269,27.781,11.516,27.781,11.748z"/>
	<path fill="#FFFFFF" d="M34.795,13.622c0,0-1.052-2.874-1.106-3.022c0.145-0.053,2.176-0.796,2.176-0.796
		c1.162-0.426,1.566-1.261,1.566-2.074c0-0.324-0.064-0.644-0.17-0.934c-0.217-0.594-0.605-1.035-1.12-1.274
		c-0.543-0.252-1.181-0.256-1.848-0.012l-3.299,1.207l2.677,7.316L34.795,13.622z M32.477,7.29c0.144-0.053,1.887-0.69,1.887-0.69
		c0.486-0.178,0.885-0.198,1.184-0.059c0.249,0.116,0.439,0.347,0.564,0.688c0.076,0.208,0.114,0.396,0.114,0.567
		c0,0.151-0.029,0.289-0.088,0.416c-0.142,0.306-0.457,0.545-0.962,0.73c0,0-1.703,0.623-1.846,0.676
		C33.277,9.476,32.529,7.432,32.477,7.29z"/>
	<path fill="#FFFFFF" d="M42.512,10.261c-0.021-0.148-0.307-2.211-0.328-2.36c0.158-0.022,4.134-0.574,4.134-0.574L46.17,6.257
		c0,0-3.976,0.553-4.134,0.575c-0.02-0.147-0.278-2.002-0.298-2.149c0.158-0.022,4.48-0.623,4.48-0.623l-0.149-1.069l-0.082,0.012
		l-5.583,0.776l1.072,7.716l5.739-0.797l-0.148-1.069C47.067,9.628,42.671,10.239,42.512,10.261z"/>
	<path fill="#FFFFFF" d="M53.888,3.155L50.29,2.871l-0.006,0.082l-0.607,7.683l1.192,0.094c0,0,0.245-3.104,0.258-3.26
		c0.154,0.012,2.405,0.19,2.405,0.19c0.98,0.078,1.182,0.566,1.182,1.13c0,0.08-0.004,0.161-0.01,0.243
		c-0.012,0.157-0.036,0.581-0.036,1.012c0,0.354,0.016,0.713,0.068,0.933l0.013,0.059l1.403,0.111l0.024-0.3l-0.04-0.027
		c-0.23-0.156-0.29-0.276-0.29-0.55c0-0.051,0.002-0.107,0.006-0.169l0.045-1.383c0.002-0.049,0.003-0.096,0.003-0.142
		c0-0.884-0.347-1.167-0.701-1.36c0.415-0.214,1.015-0.624,1.103-1.732c0.006-0.077,0.009-0.153,0.009-0.226
		C56.31,4.023,55.458,3.28,53.888,3.155z M55.075,5.33c0,0.053-0.002,0.108-0.007,0.164c-0.031,0.388-0.155,0.678-0.369,0.861
		c-0.254,0.217-0.633,0.298-1.191,0.254c0,0-2.145-0.169-2.299-0.182c0.012-0.15,0.179-2.267,0.191-2.417
		c0.155,0.013,2.479,0.196,2.479,0.196c0.293,0.023,0.711,0.088,0.965,0.386C54.998,4.771,55.075,5.019,55.075,5.33z"/>
	<path fill="#FFFFFF" d="M59.843,12.125l1.148,0.334c0,0,1.831-6.288,1.876-6.443c0.149,0.043,2.478,0.721,2.478,0.721l0.302-1.036
		l-6.103-1.777l-0.023,0.08l-0.278,0.957c0,0,2.328,0.678,2.477,0.721C61.674,5.837,59.843,12.125,59.843,12.125z"/>
	<path fill="#FFFFFF" d="M68.994,13.394c-0.015,0.112-0.306,2.324-0.306,2.324l1.169,0.577l0.918-8.234l-1.151-0.568l-0.042,0.039
		l-6.033,5.651l1.112,0.549c0,0,1.617-1.561,1.696-1.637C66.456,12.141,68.894,13.344,68.994,13.394z M69.521,9.047
		c-0.047,0.348-0.405,2.988-0.433,3.19c-0.177-0.087-1.732-0.855-1.914-0.945C67.325,11.148,69.267,9.29,69.521,9.047z"/>
	<path fill="#FFFFFF" d="M76.089,19.649c0,0-2.938-2.26-3.064-2.357c0.098-0.129,4.092-5.32,4.092-5.32l-0.948-0.729l-0.051,0.066
		l-4.699,6.109l4.012,3.086L76.089,19.649z"/>
	<path fill="#FFFFFF" d="M80.795,26.338l0.812-0.71c0,0-2.922-3.341-3.027-3.461c0.113-0.099,1.681-1.47,1.794-1.568
		c0.105,0.12,2.747,3.141,2.747,3.141l0.812-0.711c0,0-2.642-3.021-2.748-3.141c0.113-0.098,1.522-1.331,1.634-1.429
		c0.105,0.12,2.978,3.405,2.978,3.405l0.812-0.71l-3.765-4.305l-0.063,0.054l-5.801,5.074L80.795,26.338z"/>
	<path fill="#FFFFFF" d="M82.76,29.396c0,0,2.732-1.493,2.87-1.569c0.075,0.136,1.158,2.117,1.158,2.117
		c0.168,0.306,0.238,0.559,0.238,0.771c0,0.47-0.345,0.742-0.745,0.961c-0.252,0.138-1.263,0.726-1.611,1.091l-0.042,0.044
		l0.675,1.235l0.265-0.145l0.001-0.048c0.005-0.33,0.099-0.431,0.446-0.632l1.182-0.719c0.746-0.448,0.882-0.863,0.882-1.243
		c0-0.057-0.008-0.112-0.012-0.167c0.406,0.231,1.076,0.516,2.058-0.022c1.206-0.66,1.43-1.83,0.629-3.295l-1.731-3.166l-0.073,0.04
		l-6.762,3.698L82.76,29.396z M88.676,26.161c0.075,0.136,1.193,2.182,1.193,2.182c0.11,0.201,0.24,0.479,0.24,0.77
		c0,0.082-0.011,0.165-0.034,0.248c-0.078,0.265-0.291,0.495-0.634,0.682c-0.748,0.409-1.3,0.195-1.786-0.696
		c0,0-1.032-1.888-1.107-2.023C86.68,27.252,88.544,26.233,88.676,26.161z"/>
	<path fill="#FFFFFF" d="M13.309,71.682l-0.644-2.139c-0.119-0.408-0.171-0.867,0.354-1.167c0.949-0.54,1.605,0.282,1.911,0.82
		c0.202,0.355,0.772,1.569-0.383,2.299l-0.067,0.042l0.561,0.985l0.073-0.047c1.405-0.898,1.63-2.209,0.668-3.898
		c-0.989-1.735-2.482-1.7-3.46-1.143c-0.587,0.334-1.2,1.021-0.793,2.396l0.459,1.535c0.362,1.237,0.298,1.627-0.329,1.984
		c-0.251,0.143-0.507,0.18-0.762,0.11c-0.577-0.158-1.018-0.806-1.23-1.178c-0.194-0.34-0.494-1.008-0.318-1.648
		c0.107-0.389,0.375-0.708,0.796-0.949l0.072-0.041l-0.561-0.983L9.586,68.7c-0.573,0.327-1.132,0.757-1.335,1.684
		c-0.079,0.356-0.243,1.096,0.513,2.424c0.734,1.288,2.063,2.354,3.592,1.482C13.319,73.742,13.649,72.839,13.309,71.682z"/>
	<path fill="#FFFFFF" d="M21.773,77.884c0.032-0.597-0.201-1.192-0.676-1.719l-2.348-2.614l-0.062,0.056l-5.734,5.15l0.799,0.89
		c0,0,2.277-2.045,2.394-2.15c0.103,0.115,1.548,1.723,1.548,1.723c0.472,0.526,1.009,0.809,1.594,0.84
		c0.588,0.032,1.213-0.21,1.717-0.663C21.478,78.974,21.742,78.451,21.773,77.884z M20.608,77.664c0,0.016,0,0.032-0.001,0.048
		c-0.015,0.274-0.159,0.536-0.429,0.779c-0.653,0.586-1.269,0.513-1.938-0.232c0,0-1.212-1.349-1.314-1.463
		c0.112-0.101,1.732-1.555,1.844-1.656c0.102,0.114,1.343,1.494,1.343,1.494C20.441,77.002,20.608,77.348,20.608,77.664z"/>
	<path fill="#FFFFFF" d="M27.334,81.304c-0.888-0.622-1.805-0.856-2.727-0.694c-1.02,0.179-2.042,0.877-2.737,1.867
		c-0.694,0.99-1.002,2.189-0.823,3.209c0.162,0.922,0.694,1.705,1.582,2.327c2.456,1.721,4.59,0.073,5.463-1.173
		C28.967,85.594,29.789,83.026,27.334,81.304z M27.088,86.135c-0.555,0.791-1.275,1.3-2.027,1.432
		c-0.621,0.109-1.248-0.042-1.811-0.438c-0.564-0.395-0.919-0.932-1.028-1.554c-0.132-0.753,0.101-1.603,0.655-2.394
		c1.052-1.501,2.559-1.891,3.838-0.994C27.994,83.085,28.14,84.634,27.088,86.135z"/>
	<path fill="#FFFFFF" d="M35.856,86.034l-3.357-1.323l-0.03,0.077l-2.827,7.171l1.113,0.439c0,0,1.142-2.896,1.199-3.043
		c0.144,0.057,2.244,0.885,2.244,0.885c0.666,0.263,0.874,0.613,0.874,0.993c0,0.215-0.067,0.44-0.154,0.663
		c-0.105,0.266-0.504,1.365-0.538,1.869l-0.004,0.061l1.309,0.516l0.111-0.28l-0.03-0.038c-0.112-0.138-0.161-0.242-0.161-0.368
		c0-0.107,0.036-0.23,0.099-0.403l0.448-1.309c0.108-0.31,0.152-0.562,0.152-0.77c0-0.429-0.189-0.673-0.391-0.878
		c0.605-0.117,1.199-0.383,1.571-1.327c0.121-0.305,0.18-0.597,0.18-0.871c0-0.244-0.047-0.475-0.141-0.691
		C37.274,86.833,36.713,86.372,35.856,86.034z M35.541,87.036c0.403,0.159,0.882,0.429,0.882,1.017c0,0.162-0.037,0.349-0.121,0.564
		c-0.313,0.794-0.874,0.982-1.818,0.609c0,0-2.002-0.789-2.146-0.846c0.055-0.14,0.834-2.117,0.889-2.256
		C33.372,86.181,35.541,87.036,35.541,87.036z"/>
	<path fill="#FFFFFF" d="M39.87,87.511l-0.166,0.983c0,0,2.391,0.403,2.545,0.429c-0.027,0.159-1.116,6.618-1.116,6.618l1.179,0.199
		c0,0,1.089-6.459,1.116-6.618c0.153,0.026,2.545,0.429,2.545,0.429l0.179-1.064l-6.268-1.057L39.87,87.511z"/>
	<path fill="#FFFFFF" d="M53.182,88.392c0,0-1.75,6.039-1.862,6.427c-0.143-0.378-2.369-6.265-2.369-6.265l-1.324,0.05l3.139,7.676
		l1.209-0.047l2.543-7.894l-0.119,0.005L53.182,88.392z"/>
	<path fill="#FFFFFF" d="M59.537,94.144c-0.038-0.145-0.558-2.162-0.595-2.307c0.154-0.04,4.04-1.044,4.04-1.044l-0.27-1.045
		c0,0-3.887,1.004-4.041,1.043c-0.038-0.144-0.506-1.957-0.543-2.101c0.155-0.04,4.38-1.131,4.38-1.131l-0.27-1.045l-0.08,0.021
		l-5.458,1.409l1.948,7.543l5.61-1.449l-0.27-1.045C63.989,92.995,59.692,94.104,59.537,94.144z"/>
	<path fill="#FFFFFF" d="M73.875,89.244c-0.33-0.013-0.428-0.11-0.621-0.461l-0.69-1.199c-0.499-0.879-0.973-0.931-1.401-0.905
		c0.177-0.302,0.322-0.629,0.322-1.025c0-0.302-0.08-0.642-0.281-1.033c-0.284-0.549-0.671-0.906-1.15-1.06
		c-0.593-0.189-1.309-0.071-2.128,0.351l-3.207,1.654l3.57,6.924l1.063-0.548c0,0-1.426-2.767-1.498-2.907
		c0.138-0.071,2.144-1.105,2.144-1.105c0.401-0.207,0.744-0.267,1.019-0.18c0.343,0.11,0.547,0.43,0.701,0.729
		c0.131,0.255,0.694,1.279,1.052,1.637l0.043,0.043l1.251-0.645l-0.138-0.268L73.875,89.244z M70.345,85.928
		c0,0.44-0.302,0.798-0.922,1.118c0,0-1.913,0.986-2.05,1.057c-0.069-0.134-1.042-2.022-1.111-2.156
		c0.138-0.071,2.21-1.139,2.21-1.139c0.491-0.253,1.2-0.48,1.69,0.469C70.283,85.514,70.345,85.729,70.345,85.928z"/>
	<path fill="#FFFFFF" d="M77.685,85.551c-0.096-0.115-1.433-1.712-1.53-1.827c0.122-0.102,3.2-2.679,3.2-2.679l-0.693-0.827
		c0,0-3.078,2.577-3.2,2.679c-0.096-0.114-1.298-1.55-1.393-1.664c0.123-0.103,3.468-2.905,3.468-2.905l-0.693-0.827l-0.064,0.054
		l-4.322,3.618l5.001,5.973l4.443-3.72l-0.693-0.827C81.211,82.599,77.808,85.448,77.685,85.551z"/>
	<polygon fill="#FFFFFF" points="79.45,74.523 78.724,75.367 84.633,80.444 85.413,79.537 79.504,74.46 	"/>
	<path fill="#FFFFFF" d="M91.321,70.78l-6.692-3.989l-0.043,0.071l-0.554,0.929c0,0,4.734,2.822,5.141,3.065
		c-0.468,0.008-7.037,0.117-7.037,0.117l-0.691,1.16l6.692,3.989l0.596-1c0,0-4.743-2.828-5.144-3.067
		c0.462-0.011,7.073-0.171,7.073-0.171L91.321,70.78z"/>
</g>
<path fill="#FFFFFF" d="M92.217,48.554c0.55,0,0.996,0.446,0.996,0.996c0,0.55-0.446,0.996-0.996,0.996s-0.996-0.446-0.996-0.996
	C91.222,49,91.667,48.554,92.217,48.554z"/>
<path fill="#FFFFFF" d="M6.883,48.554c0.55,0,0.996,0.446,0.996,0.996c0,0.55-0.446,0.996-0.996,0.996
	c-0.55,0-0.996-0.446-0.996-0.996C5.888,49,6.334,48.554,6.883,48.554z"/>
<polygon fill="#FFFFFF" points="49.55,81.684 25.325,71.175 25.325,66.751 49.55,73.609 73.775,66.751 73.775,71.175 "/>
<path fill="#FFFFFF" d="M54.557,18.317c-0.165-0.165-2.684-2.684-2.684-2.684l-0.117,0.117c0,0-2.402,2.401-2.566,2.566
	c-0.204-0.112-3.644-2.011-3.644-2.011l2.252,3.709h8.151l2.252-3.709C58.201,16.306,54.761,18.204,54.557,18.317z"/>
<g>
	<path fill="#FFFFFF" d="M23.406,33.391h2.612c1.502,5.347,1.649,6.027,1.861,7.143h0.033c0.212-1.02,0.392-2.014,1.633-7.143h2.596
		c1.371,5.361,1.486,5.878,1.747,7.143h0.033c0.196-0.925,0.392-1.769,1.911-7.143h2.482l-3.298,9.769h-2.351
		c-1.208-4.789-1.42-5.741-1.812-7.619h-0.033c-0.359,1.878-0.555,2.585-1.812,7.619h-2.286L23.406,33.391z"/>
	<path fill="#FFFFFF" d="M33.663,57.285h2.759l-4.316,9.769h-2.529l-4.281-9.769h2.848l2.724,7.401h0.035L33.663,57.285z"/>
	<path fill="#FFFFFF" d="M33.733,50.747c-0.341-0.582-0.9-1.063-1.661-1.429l-0.864-0.369c-0.749-0.302-1.069-0.514-1.204-0.638
		c-0.184-0.172-0.32-0.366-0.404-0.575c-0.086-0.214-0.13-0.478-0.13-0.785c0-0.59,0.148-1.078,0.44-1.449
		c0.277-0.352,0.619-0.523,1.048-0.523c0.395,0,0.7,0.151,0.933,0.461c0.257,0.342,0.413,0.852,0.463,1.514l0.024,0.307h1.651
		l-0.017-0.348c-0.059-1.187-0.348-2.129-0.859-2.801c-0.536-0.704-1.274-1.062-2.194-1.062c-0.949,0-1.734,0.387-2.334,1.151
		c-0.581,0.739-0.876,1.693-0.876,2.835c0,0.899,0.195,1.646,0.578,2.219c0.383,0.572,1.005,1.045,1.851,1.408
		c0.008,0.003,0.272,0.112,0.272,0.112c1.394,0.572,2.07,1.374,2.07,2.453c0,0.759-0.164,1.36-0.488,1.788
		c-0.307,0.405-0.707,0.602-1.225,0.602c-0.478,0-0.853-0.196-1.147-0.6c-0.315-0.433-0.484-1.036-0.501-1.793L29.153,52.9h-1.676
		l0.003,0.335c0.013,1.295,0.317,2.361,0.904,3.168c0.612,0.841,1.42,1.267,2.403,1.267c1.052,0,1.906-0.449,2.538-1.335
		c0.608-0.851,0.916-1.977,0.916-3.347C34.241,52.077,34.07,51.323,33.733,50.747z"/>
</g>
<path fill="#FFFFFF" d="M55.911,51.154c-3.042-0.498-6.195-2.102-6.195-2.102c-1.991,2.987-6.914,2.792-6.914,2.792
	c-0.365-0.015-0.63,0.27-0.59,0.633c0,0,0.093,0.834,3.466,2.327v1.327c0,0.365-0.009,0.962-0.021,1.327
	c0,0-0.007,0.222,0.851,0.775c0,0,0.36,0.221-0.069,0.899c0,0-0.28,0.446-0.788,0.207c0,0-2.821-1.079-6.015-4.646
	c0,0-0.529-0.55-1.048-0.55c0,0-0.28,0.021-0.539,0.166c-0.259,0.145-0.954,0.632-1.556,0.788c0,0,0.819,0.363,1.255,0.363
	c0,0,0.435,0.021,0.435,0.622c0,0,0.042,2.302-0.29,3.215c0,0-0.567,1.445-1.327,2.385l1.012-0.626
	c0.311-0.192,0.624-0.056,0.697,0.302l0.282,1.382l0.781-1.116c0.21-0.299,0.474-0.26,0.587,0.087l0.582,1.775l0.699-1.397
	c0.163-0.327,0.54-0.42,0.837-0.208c0,0,0.622,0.444,0.622,2.269l0.746-1.292c0.183-0.316,0.385-0.281,0.451,0.078
	c0,0,0.213,1.172,1.831,2.002l0.279-1.341c0.075-0.358,0.417-0.549,0.76-0.426c0,0,0.537,0.192,1.366,1.643l0.346-1.469
	c0.084-0.355,0.433-0.545,0.776-0.421c0,0,0.413,0.149,1.491,1.974c0,0,0.29-3.36,3.485-1.493c0,0-1.991-2.945,0.954-3.194
	l-1.59-0.69c-0.335-0.145-0.39-0.468-0.123-0.716l0.231-0.215c0.267-0.249,0.747-0.368,1.066-0.266
	c0.32,0.103,0.581,0.187,0.581,0.187s0.166-1.701-2.406-1.203c0,0,0.083-0.664,0.581-1.162c0.373-0.373,0.29-0.871,0.29-0.871
	s0-0.553-0.332-1.023c-0.332-0.47-0.111-1.189,0.442-1.604c0,0,0.111-0.138,0.553-0.36c0.442-0.221,0.923-0.232,1.272-0.747
	C55.928,51.23,55.911,51.154,55.911,51.154z"/>
<path fill="#FFFFFF" d="M63.343,56.519c0,0-0.075-0.056-0.166-0.125c-0.091-0.068-0.333,0.124-0.536,0.426l-1.932,2.872
	l-0.162-2.345c-0.025-0.364-0.23-0.427-0.455-0.14l-1.872,2.382c0,0-0.062-1.348,0.249-2.053c0.311-0.705,0.166-1.659-0.083-2.281
	c-0.249-0.622-0.415-3.837,0.27-5.309c0,0,0.208-0.747,0.208-1.514l-1.431,1.099c0,0-4.936-1.224-7.093-4.065
	c0,0-0.093-0.121-0.207-0.27c-0.114-0.148-0.436-0.083-0.496,0.328c0,0-0.251,1.227-0.914,1.891
	c-0.363-0.363-0.508-0.913-0.508-0.913c-0.177-0.319-0.417-0.297-0.533,0.049l-0.701,2.088L46.4,47.219
	c-0.138-0.338-0.429-0.374-0.646-0.081L44.78,48.45l-0.786-1.916c-0.138-0.338-0.428-0.373-0.643-0.078l-1.123,1.538l-0.588-2.099
	c-0.099-0.351-0.359-0.4-0.579-0.109l-0.679,0.901l-0.72-1.909c-0.129-0.342-0.438-0.403-0.687-0.136l-0.708,0.759l-0.452-1.501
	c-0.105-0.349-0.374-0.399-0.596-0.109l-0.695,0.905c0,0,0.062-1.182-0.124-1.431c-0.187-0.249-0.503-1.078,0.643-2.53
	c0.622-0.788,1.224-0.726,1.224-0.726c0.746,0,1.327,0.498,2.904,1.41s2.323,0.415,2.987,0.166c0.664-0.249,1.825-0.166,1.825-0.166
	l0.937,1.288c0.215,0.295,0.614,0.338,0.886,0.096l1.744-1.55l1.729,0.865c0.326,0.163,0.733,0.033,0.904-0.29l0.436-0.824
	c0,0,0.112-0.168,0.249-0.373c0.137-0.205,0.485-0.191,0.774,0.032l0.774,0.599c0.289,0.224,0.747,0.206,1.018-0.038
	c0,0,0.336-0.303,0.917-1.962c0,0,2.019,3.125,3.374,3.595c1.355,0.47,2.886,0.379,5.448,3.567c1.134,1.604,3.374,1.383,3.374,1.383
	l0.027-1.023c0,0-2.655-2.102-2.655-5.531c0,0,0-3.373,1.881-4.618c0,0-2.876-1.549-2.876-4.286c0,0-0.055-1.466,0.746-2.434
	c0.802-0.968,0.609-1.327,0.609-1.327s0.138-0.996-0.802-0.996c0,0-0.968-0.055-1.161,0.304c-0.168,0.312-0.387,1.051-0.94,1.051
	c0,0-0.609,0-0.609-0.691c0-0.691,0.885-1.051,0.885-1.051s0.857-0.442,1.853-0.442c0,0,2.171,0.014,2.171,2.129
	c0,0,0.021,0.519-0.166,1.161c-0.186,0.643-0.166,2.427-0.166,2.427s0.041,2.447,1.825,2.447c0,0,2.178,0,2.178-2.385
	c0,0,0.062-1.099-0.27-2.012c-0.332-0.913-0.373-1.908-0.373-1.908s0-2.51,1.97-2.51c0,0,1.141,0,1.908,0.851
	c0,0,0.809,0.767,0.809,1.306c0,0,0.062,0.684-0.498,0.684c0,0-0.643,0.021-0.788-0.83c-0.167-0.978-0.954-0.975-0.954-0.975
	s-0.746-0.021-0.746,0.975c0,0,0.021,1.078,0.519,1.701c0.498,0.622,0.498,2.572,0.498,2.572s0.021,2.136-1.659,3.505
	c0,0,2.904,1.784,2.904,5.766s-1.473,5.787-5.911,8.13c0,0-1.058,0.519-1.058,1.659c0,0-0.021,1.452,0.933,1.452
	c0.119-0.004,0.684,0.041,1.286-0.56c0.425-0.425,0.641-0.521,1.244-0.747c0.498-0.186,1.887-0.145,1.887-0.145
	s1.016,0.021,1.39,1.016c0,0-2.924-0.249-3.692,2.074c0,0,2.447-1.12,3.692,1.369c0,0-4.148-1.141-4.314,2.364
	c0,0,1.991-1.452,3.298,0.996c0,0-3.609-1.244-4.293,2.551c0,0,1.39-1.224,2.987,1.141c0,0-1.95-0.519-2.945,1.099
	c-0.996,1.618-0.415,1.929-2.572,2.821c-2.157,0.892-2.613-0.435-5.413,2.199c0,0-0.643-1.41,0.104-1.825
	c0,0-1.556-0.29-2.406,1.867l-0.04-1.203c-0.012-0.365-0.271-0.499-0.576-0.298L56.81,68.59l0.331-1.468
	c0.08-0.356-0.119-0.51-0.443-0.342l-1.692,0.877c0,0-0.166-3.961,4.687-3.961h1.784c0,0,0.291-2.116,1.763-2.8
	c0,0-0.27-2.385,0.042-4.21c0,0,0.011-0.06,0.05-0.175 M69.903,36.94c0,0-4.148,5.642,0.941,9.347
	C70.844,46.287,75.379,40.811,69.903,36.94z"/>
<path fill="#FFFFFF" d="M47.798,21.052h7.726c0,0-1.286,2.489-0.954,2.904c0,0,0.363,0.425,0.539,0.083
	c0.264-0.512,0.954-2.033,2.406-2.033c0,0,1.39,0.228,0.332,1.638c-1.058,1.41-1.618,1.721-1.618,1.721s-0.615,0.443-0.187,0.913
	c0,0,0.664,0.788,2.779-1.099c0,0-0.062,0.83-0.436,1.597c-0.373,0.767-0.332,0.954,0.208,1.369
	c0.539,0.415,0.705,0.477,0.954,1.721c0,0-1.106,0.022-1.141,0.913c-0.021,0.539,0.664,0.954,0.664,0.954s1.141,0.484,1.141,4.21
	l-1.208-0.892c-0.294-0.217-0.588-0.1-0.653,0.259l-0.545,2.997c0,0-2.575-1.563-2.862,0.83c-0.186,1.556-1.037-0.021-1.037-0.021
	s-1.369-2.302-2.613,1.431l-1.256-1.166c-0.268-0.249-0.665-0.212-0.882,0.081l-1.408,1.894l-1.074-1.681
	c-0.196-0.307-0.639-0.461-0.984-0.342l-1.82,0.633c0,0-0.27-1.535,0.042-2.364c0.311-0.83-0.27-1.286-0.27-1.286
	s-0.512-0.56,0.436-1.452c0,0,0.622-0.622-0.498-1.659l-1.452,2.531c0,0,0.684,1.597,0.684,3.899l-1.69-1.706
	c-0.257-0.259-0.593-0.2-0.746,0.131l-0.613,1.326c0,0-0.622-0.415-0.519-2.427c0,0-0.664-0.228-1.286,0.187
	c0,0,0.208-1.078,1.265-1.556c0,0-0.021-0.954-0.104-1.224c-0.083-0.27-0.187-0.83-0.083-1.12c0.104-0.29,0-0.456-0.27-0.664
	c-0.27-0.207-1.078-0.747-2.136-0.747c-1.058,0-2.24,1.016-2.24,1.016s-0.477-0.332-0.477-1.037c0,0-1.016,0.124-1.555,0.934
	c0,0-0.519-0.477-0.519-1.556c0,0-0.995-0.062-1.638,0.353c0,0,0.083-0.581,0.249-0.851c0.166-0.27,0.249-0.249,0.353-0.622
	c0.104-0.373,0.871-3.526,4.646-3.526c0,0,1.807,0.008,4.19,2.924c2.033,2.489,7.01,2.572,7.01,2.572s2.738,0.041,2.8-2.51
	c0,0-3.09,1.763-3.671-0.809c0,0,0.643,0.477,1.224,0.477c0.394,0,0.747-0.29,0.747-0.29s0.394-0.311,0.954-0.311
	c0,0-0.705-2.157-0.238-2.416l-2.122,0.366c0,0-1.717-0.652-1.995-2.824c-0.124-0.975,1.162-0.954,1.162-0.954
	S47.228,22.815,47.798,21.052z M50.275,23.553L50.275,23.553c0,0,1.033,0.003,1.033-0.827c0-0.539-0.285-0.634-0.285-0.634h-1.618
	C49.405,23.534,50.275,23.553,50.275,23.553z M44.733,23.479c-0.252,1.369,1.221,1.255,1.221,1.255
	C46.413,23.337,44.733,23.479,44.733,23.479z"/>
<path fill="#FFFFFF" d="M48.084,27.378l-2.641,0.104c-2.489,0-3.401-3.712-3.401-3.712s-0.18,0.214-0.18,1.583
	c0,0,0.063,0.96,0.934,1.83c0.842,0.841,1.61,1.004,2.357,1.004c0,0,2.164-0.062,2.848-0.374
	C48.001,27.814,48.022,27.607,48.084,27.378z"/>
</svg>
